<svg xmlns="http://www.w3.org/2000/svg" viewBox="0 0 1480 720" width="1480" height="720" style="font-family: Inter, -apple-system, system-ui, sans-serif;">
<defs>
  <filter id="card-shadow" x="-5%" y="-5%" width="110%" height="115%">
    <feDropShadow dx="0" dy="2" stdDeviation="6"
                  flood-color="#0F1B2A" flood-opacity="0.08"/>
  </filter>
  <linearGradient id="bg" x1="0" y1="0" x2="0" y2="1">
    <stop offset="0" stop-color="#FAFBFC"/>
    <stop offset="1" stop-color="#F1F4F8"/>
  </linearGradient>
</defs>

<rect x="0" y="0" width="1480" height="720" fill="url(#bg)"/>
<rect x="36" y="40" rx="14" ry="14" width="60" height="60" fill="#E04E2A"/><text x="66.0" y="82.0" text-anchor="middle" font-family="Inter, sans-serif" font-size="32" font-weight="900" fill="#FFFFFF">02</text><text x="114" y="68" font-family="Inter, -apple-system, system-ui, sans-serif" font-size="28" font-weight="800" fill="#0F1B2A" text-anchor="start">Parallel band download with idempotent retry</text><text x="114" y="94" font-family="Inter, -apple-system, system-ui, sans-serif" font-size="14" font-weight="400" fill="#3F4D5E" text-anchor="start">Concurrent Sentinel-2 asset retrieval into Volumes, with self-healing throttle handling</text><rect x="1229" y="48" rx="13" ry="13" width="215" height="26" fill="#0F1B2A"/><text x="1336.5" y="66" text-anchor="middle" font-family="Inter, sans-serif" font-size="12" font-weight="700" fill="#FFFFFF">EO Series  ·  Notebook 2 of 4</text>
<rect x="36" y="160" rx="14" ry="14" width="310" height="380" fill="#FFFFFF" stroke="#E5E7EB" stroke-width="1" filter="url(#card-shadow)"/><path d="M 36 174 A 14 14 0 0 1 50 160 H 332 A 14 14 0 0 1 346 174 V 165 H 36 Z" fill="#E04E2A"/><rect x="126.0" y="227.0" rx="6" ry="6" width="130" height="22" fill="#FFFFFF" stroke="#E04E2A" stroke-width="1.6"/><rect x="126.0" y="227.0" width="6" height="22" rx="2" ry="2" fill="#E04E2A"/><text x="142.0" y="241.0" font-family="ui-monospace, Menlo, monospace" font-size="10" font-weight="600" fill="#E04E2A">S2A_T08VML…</text><rect x="126.0" y="255.0" rx="6" ry="6" width="130" height="22" fill="#FFFFFF" stroke="#E04E2A" stroke-width="1.6"/><rect x="126.0" y="255.0" width="6" height="22" rx="2" ry="2" fill="#E04E2A"/><text x="142.0" y="269.0" font-family="ui-monospace, Menlo, monospace" font-size="10" font-weight="600" fill="#E04E2A">S2A_T08VML…</text><rect x="126.0" y="283.0" rx="6" ry="6" width="130" height="22" fill="#FFFFFF" stroke="#E04E2A" stroke-width="1.6"/><rect x="126.0" y="283.0" width="6" height="22" rx="2" ry="2" fill="#E04E2A"/><text x="142.0" y="297.0" font-family="ui-monospace, Menlo, monospace" font-size="10" font-weight="600" fill="#E04E2A">S2A_T08VML…</text><rect x="126.0" y="311.0" rx="6" ry="6" width="130" height="22" fill="#FFFFFF" stroke="#E04E2A" stroke-width="1.6"/><rect x="126.0" y="311.0" width="6" height="22" rx="2" ry="2" fill="#E04E2A"/><text x="142.0" y="325.0" font-family="ui-monospace, Menlo, monospace" font-size="10" font-weight="600" fill="#E04E2A">S2A_T08VML…</text><text x="191.0" y="396" font-family="Inter, -apple-system, system-ui, sans-serif" font-size="16" font-weight="800" fill="#0F1B2A" text-anchor="middle">Item list</text><g transform="translate(112.5, 410)"><rect x="0" y="0" rx="11" ry="11" width="157" height="22" fill="#FCE9E2"/><text x="78.5" y="15.0" text-anchor="middle" font-family="ui-monospace, SFMono-Regular, Menlo, Consolas, monospace" font-size="12" font-weight="700" fill="#E04E2A">cell_assets_*.delta</text></g><text x="191.0" y="458" text-anchor="middle" font-family="Inter, sans-serif" font-size="12" fill="#3F4D5E">Unique sentinel-2 item_ids consolidated</text><text x="191.0" y="474" text-anchor="middle" font-family="Inter, sans-serif" font-size="12" fill="#3F4D5E">from cell_assets</text>
<line x1="354" y1="320.0" x2="384" y2="320.0" stroke="#E04E2A" stroke-width="2.5" stroke-linecap="round"/><polygon points="394,320.0 384,313.3333333333333 384,326.6666666666667" fill="#E04E2A"/>
<rect x="402" y="160" rx="14" ry="14" width="310" height="380" fill="#FFFFFF" stroke="#E5E7EB" stroke-width="1" filter="url(#card-shadow)"/><path d="M 402 174 A 14 14 0 0 1 416 160 H 698 A 14 14 0 0 1 712 174 V 165 H 402 Z" fill="#E04E2A"/><circle cx="557.0" cy="196.0" r="22" fill="#2D6CDF" fill-opacity="0.18" stroke="#2D6CDF" stroke-width="2.4"/><text x="557.0" y="201.0" text-anchor="middle" font-family="ui-monospace, Menlo, monospace" font-size="13" font-weight="700" fill="#2D6CDF">B02</text><circle cx="557.0" cy="252.0" r="22" fill="#2FA56A" fill-opacity="0.18" stroke="#2FA56A" stroke-width="2.4"/><text x="557.0" y="257.0" text-anchor="middle" font-family="ui-monospace, Menlo, monospace" font-size="13" font-weight="700" fill="#2FA56A">B03</text><circle cx="557.0" cy="308.0" r="22" fill="#E04E2A" fill-opacity="0.18" stroke="#E04E2A" stroke-width="2.4"/><text x="557.0" y="313.0" text-anchor="middle" font-family="ui-monospace, Menlo, monospace" font-size="13" font-weight="700" fill="#E04E2A">B04</text><circle cx="557.0" cy="364.0" r="22" fill="#7A4FD3" fill-opacity="0.18" stroke="#7A4FD3" stroke-width="2.4"/><text x="557.0" y="369.0" text-anchor="middle" font-family="ui-monospace, Menlo, monospace" font-size="13" font-weight="700" fill="#7A4FD3">B08</text><text x="557.0" y="396" font-family="Inter, -apple-system, system-ui, sans-serif" font-size="16" font-weight="800" fill="#0F1B2A" text-anchor="middle">Bands of interest</text><g transform="translate(499.5, 410)"><rect x="0" y="0" rx="11" ry="11" width="115" height="22" fill="#FCE9E2"/><text x="57.5" y="15.0" text-anchor="middle" font-family="ui-monospace, SFMono-Regular, Menlo, Consolas, monospace" font-size="12" font-weight="700" fill="#E04E2A">download_band</text></g><text x="557.0" y="458" text-anchor="middle" font-family="Inter, sans-serif" font-size="12" fill="#3F4D5E">B02 / B03 / B04 / B08 — extensible to any</text><text x="557.0" y="474" text-anchor="middle" font-family="Inter, sans-serif" font-size="12" fill="#3F4D5E">Sentinel-2 band</text>
<line x1="720" y1="320.0" x2="750" y2="320.0" stroke="#E04E2A" stroke-width="2.5" stroke-linecap="round"/><polygon points="760,320.0 750,313.3333333333333 750,326.6666666666667" fill="#E04E2A"/>
<rect x="768" y="160" rx="14" ry="14" width="310" height="380" fill="#FFFFFF" stroke="#E5E7EB" stroke-width="1" filter="url(#card-shadow)"/><path d="M 768 174 A 14 14 0 0 1 782 160 H 1064 A 14 14 0 0 1 1078 174 V 165 H 768 Z" fill="#E04E2A"/><path d="M 873.0 280.0 A 30 30 0 1 1 973.0 280.0" fill="none" stroke="#E04E2A" stroke-width="2.4" stroke-linecap="round"/><polygon points="973.0,280.0 961.0,273.0 961.0,287.0" fill="#E04E2A"/><text x="923.0" y="286.0" text-anchor="middle" font-family="Inter, sans-serif" font-size="11" font-weight="700" fill="#E04E2A">retry</text><text x="923.0" y="396" font-family="Inter, -apple-system, system-ui, sans-serif" font-size="16" font-weight="800" fill="#0F1B2A" text-anchor="middle">Self-healing retry</text><g transform="translate(851.5, 410)"><rect x="0" y="0" rx="11" ry="11" width="143" height="22" fill="#FCE9E2"/><text x="71.5" y="15.0" text-anchor="middle" font-family="ui-monospace, SFMono-Regular, Menlo, Consolas, monospace" font-size="12" font-weight="700" fill="#E04E2A">is_out_file_valid</text></g><text x="923.0" y="458" text-anchor="middle" font-family="Inter, sans-serif" font-size="12" fill="#3F4D5E">1 KB threshold detects throttled</text><text x="923.0" y="474" text-anchor="middle" font-family="Inter, sans-serif" font-size="12" fill="#3F4D5E">auth-error payloads; Delta MERGE patches</text><text x="923.0" y="490" text-anchor="middle" font-family="Inter, sans-serif" font-size="12" fill="#3F4D5E">them</text>
<line x1="1086" y1="320.0" x2="1116" y2="320.0" stroke="#E04E2A" stroke-width="2.5" stroke-linecap="round"/><polygon points="1126,320.0 1116,313.3333333333333 1116,326.6666666666667" fill="#E04E2A"/>
<rect x="1134" y="160" rx="14" ry="14" width="310" height="380" fill="#FFFFFF" stroke="#E5E7EB" stroke-width="1" filter="url(#card-shadow)"/><path d="M 1134 174 A 14 14 0 0 1 1148 160 H 1430 A 14 14 0 0 1 1444 174 V 165 H 1134 Z" fill="#E04E2A"/><rect x="1219.0" y="208.0" rx="6" ry="6" width="140" height="30" fill="#FFFFFF" stroke="#E04E2A" stroke-width="1.4"/><rect x="1219.0" y="208.0" width="8" height="30" rx="3" ry="3" fill="#2D6CDF"/><text x="1237.0" y="222.0" font-family="ui-monospace, Menlo, monospace" font-size="11" font-weight="700" fill="#2D6CDF">band_b02</text><text x="1237.0" y="233.0" font-family="Inter, sans-serif" font-size="9" fill="#5A6878">is_out_file_valid</text><rect x="1219.0" y="246.0" rx="6" ry="6" width="140" height="30" fill="#FFFFFF" stroke="#E04E2A" stroke-width="1.4"/><rect x="1219.0" y="246.0" width="8" height="30" rx="3" ry="3" fill="#2FA56A"/><text x="1237.0" y="260.0" font-family="ui-monospace, Menlo, monospace" font-size="11" font-weight="700" fill="#2FA56A">band_b03</text><text x="1237.0" y="271.0" font-family="Inter, sans-serif" font-size="9" fill="#5A6878">is_out_file_valid</text><rect x="1219.0" y="284.0" rx="6" ry="6" width="140" height="30" fill="#FFFFFF" stroke="#E04E2A" stroke-width="1.4"/><rect x="1219.0" y="284.0" width="8" height="30" rx="3" ry="3" fill="#E04E2A"/><text x="1237.0" y="298.0" font-family="ui-monospace, Menlo, monospace" font-size="11" font-weight="700" fill="#E04E2A">band_b04</text><text x="1237.0" y="309.0" font-family="Inter, sans-serif" font-size="9" fill="#5A6878">is_out_file_valid</text><rect x="1219.0" y="322.0" rx="6" ry="6" width="140" height="30" fill="#FFFFFF" stroke="#E04E2A" stroke-width="1.4"/><rect x="1219.0" y="322.0" width="8" height="30" rx="3" ry="3" fill="#7A4FD3"/><text x="1237.0" y="336.0" font-family="ui-monospace, Menlo, monospace" font-size="11" font-weight="700" fill="#7A4FD3">band_b08</text><text x="1237.0" y="347.0" font-family="Inter, sans-serif" font-size="9" fill="#5A6878">is_out_file_valid</text><text x="1289.0" y="396" font-family="Inter, -apple-system, system-ui, sans-serif" font-size="16" font-weight="800" fill="#0F1B2A" text-anchor="middle">Per-band tables</text><g transform="translate(1182.5, 410)"><rect x="0" y="0" rx="11" ry="11" width="213" height="22" fill="#FCE9E2"/><text x="106.5" y="15.0" text-anchor="middle" font-family="ui-monospace, SFMono-Regular, Menlo, Consolas, monospace" font-size="12" font-weight="700" fill="#E04E2A">/Volumes/.../alaska/&lt;band&gt;/</text></g><text x="1289.0" y="458" text-anchor="middle" font-family="Inter, sans-serif" font-size="12" fill="#3F4D5E">One band_&lt;band&gt; Delta table per band,</text><text x="1289.0" y="474" text-anchor="middle" font-family="Inter, sans-serif" font-size="12" fill="#3F4D5E">ready for joins</text>
<text x="36" y="650" font-family="Inter, -apple-system, system-ui, sans-serif" font-size="10" font-weight="700" fill="#7A8794" text-anchor="start" letter-spacing="1.6">KEY FUNCTIONS</text><rect x="166" y="640" rx="12" ry="12" width="94" height="24" fill="#FCE9E2"/><text x="213.0" y="656.0" text-anchor="middle" font-family="ui-monospace, SFMono-Regular, Menlo, Consolas, monospace" font-size="12" font-weight="700" fill="#E04E2A">pandas_udf</text><rect x="268" y="640" rx="12" ry="12" width="115" height="24" fill="#FCE9E2"/><text x="325.5" y="656.0" text-anchor="middle" font-family="ui-monospace, SFMono-Regular, Menlo, Consolas, monospace" font-size="12" font-weight="700" fill="#E04E2A">download_band</text><rect x="391" y="640" rx="12" ry="12" width="115" height="24" fill="#FCE9E2"/><text x="448.5" y="656.0" text-anchor="middle" font-family="ui-monospace, SFMono-Regular, Menlo, Consolas, monospace" font-size="12" font-weight="700" fill="#E04E2A">update_assets</text><rect x="514" y="640" rx="12" ry="12" width="185" height="24" fill="#FCE9E2"/><text x="606.5" y="656.0" text-anchor="middle" font-family="ui-monospace, SFMono-Regular, Menlo, Consolas, monospace" font-size="12" font-weight="700" fill="#E04E2A">download_missing_assets</text><rect x="707" y="640" rx="12" ry="12" width="101" height="24" fill="#FCE9E2"/><text x="757.5" y="656.0" text-anchor="middle" font-family="ui-monospace, SFMono-Regular, Menlo, Consolas, monospace" font-size="12" font-weight="700" fill="#E04E2A">Delta MERGE</text><text x="1444" y="650" font-family="Inter, -apple-system, system-ui, sans-serif" font-size="11" font-weight="400" fill="#7A8794" text-anchor="end">databrickslabs/geobrix  ·  Sentinel-2 L2A  ·  Planetary Computer</text>
</svg>