<svg xmlns="http://www.w3.org/2000/svg" viewBox="0 0 1480 720" width="1480" height="720" style="font-family: Inter, -apple-system, system-ui, sans-serif;">
<defs>
  <filter id="card-shadow" x="-5%" y="-5%" width="110%" height="115%">
    <feDropShadow dx="0" dy="2" stdDeviation="6"
                  flood-color="#0F1B2A" flood-opacity="0.08"/>
  </filter>
  <linearGradient id="bg" x1="0" y1="0" x2="0" y2="1">
    <stop offset="0" stop-color="#FAFBFC"/>
    <stop offset="1" stop-color="#F1F4F8"/>
  </linearGradient>
</defs>

<rect x="0" y="0" width="1480" height="720" fill="url(#bg)"/>
<rect x="36" y="40" rx="14" ry="14" width="60" height="60" fill="#7A4FD3"/><text x="66.0" y="82.0" text-anchor="middle" font-family="Inter, sans-serif" font-size="32" font-weight="900" fill="#FFFFFF">04</text><text x="114" y="68" font-family="Inter, -apple-system, system-ui, sans-serif" font-size="28" font-weight="800" fill="#0F1B2A" text-anchor="start">Stack bands + clip with geometry</text><text x="114" y="94" font-family="Inter, -apple-system, system-ui, sans-serif" font-size="14" font-weight="400" fill="#3F4D5E" text-anchor="start">Fuse R/G/B/NIR per (cellid, date) and write CRS-safe clipped GeoTIFFs</text><rect x="1229" y="48" rx="13" ry="13" width="215" height="26" fill="#0F1B2A"/><text x="1336.5" y="66" text-anchor="middle" font-family="Inter, sans-serif" font-size="12" font-weight="700" fill="#FFFFFF">EO Series  ·  Notebook 4 of 4</text>
<rect x="36" y="160" rx="14" ry="14" width="310" height="380" fill="#FFFFFF" stroke="#E5E7EB" stroke-width="1" filter="url(#card-shadow)"/><path d="M 36 174 A 14 14 0 0 1 50 160 H 332 A 14 14 0 0 1 346 174 V 165 H 36 Z" fill="#7A4FD3"/><rect x="162.0" y="241.0" rx="6" ry="6" width="130" height="90" fill="#7A4FD3" fill-opacity="0.18" stroke="#7A4FD3" stroke-width="2"/><text x="172.0" y="257.0" font-family="ui-monospace, Menlo, monospace" font-size="11" font-weight="700" fill="#7A4FD3">B08</text><rect x="150.0" y="229.0" rx="6" ry="6" width="130" height="90" fill="#E04E2A" fill-opacity="0.18" stroke="#E04E2A" stroke-width="2"/><text x="160.0" y="245.0" font-family="ui-monospace, Menlo, monospace" font-size="11" font-weight="700" fill="#E04E2A">B04</text><rect x="138.0" y="217.0" rx="6" ry="6" width="130" height="90" fill="#2FA56A" fill-opacity="0.18" stroke="#2FA56A" stroke-width="2"/><text x="148.0" y="233.0" font-family="ui-monospace, Menlo, monospace" font-size="11" font-weight="700" fill="#2FA56A">B03</text><rect x="126.0" y="205.0" rx="6" ry="6" width="130" height="90" fill="#2D6CDF" fill-opacity="0.18" stroke="#2D6CDF" stroke-width="2"/><text x="136.0" y="221.0" font-family="ui-monospace, Menlo, monospace" font-size="11" font-weight="700" fill="#2D6CDF">B02</text><text x="191.0" y="396" font-family="Inter, -apple-system, system-ui, sans-serif" font-size="16" font-weight="800" fill="#0F1B2A" text-anchor="middle">Per-band cell tables</text><g transform="translate(130.0, 410)"><rect x="0" y="0" rx="11" ry="11" width="122" height="22" fill="#ECE6FA"/><text x="61.0" y="15.0" text-anchor="middle" font-family="ui-monospace, SFMono-Regular, Menlo, Consolas, monospace" font-size="12" font-weight="700" fill="#7A4FD3">(cellid, date)</text></g><text x="191.0" y="458" text-anchor="middle" font-family="Inter, sans-serif" font-size="12" fill="#3F4D5E">band_b02_h3 / b03 / b04 / b08 joined on</text><text x="191.0" y="474" text-anchor="middle" font-family="Inter, sans-serif" font-size="12" fill="#3F4D5E">(cellid, date)</text>
<line x1="354" y1="320.0" x2="384" y2="320.0" stroke="#7A4FD3" stroke-width="2.5" stroke-linecap="round"/><polygon points="394,320.0 384,313.3333333333333 384,326.6666666666667" fill="#7A4FD3"/>
<rect x="402" y="160" rx="14" ry="14" width="310" height="380" fill="#FFFFFF" stroke="#E5E7EB" stroke-width="1" filter="url(#card-shadow)"/><path d="M 402 174 A 14 14 0 0 1 416 160 H 698 A 14 14 0 0 1 712 174 V 165 H 402 Z" fill="#7A4FD3"/><rect x="492.0" y="230.0" rx="8" ry="8" width="130" height="100" fill="#ECE6FA" stroke="#7A4FD3" stroke-width="2"/><rect x="500.0" y="238.0" width="114" height="17.0" rx="3" ry="3" fill="#E04E2A" fill-opacity="0.65"/><text x="506.0" y="250.5" font-family="ui-monospace, Menlo, monospace" font-size="11" font-weight="800" fill="#FFFFFF">R</text><rect x="500.0" y="259.0" width="114" height="17.0" rx="3" ry="3" fill="#2FA56A" fill-opacity="0.65"/><text x="506.0" y="271.5" font-family="ui-monospace, Menlo, monospace" font-size="11" font-weight="800" fill="#FFFFFF">G</text><rect x="500.0" y="280.0" width="114" height="17.0" rx="3" ry="3" fill="#2D6CDF" fill-opacity="0.65"/><text x="506.0" y="292.5" font-family="ui-monospace, Menlo, monospace" font-size="11" font-weight="800" fill="#FFFFFF">B</text><rect x="500.0" y="301.0" width="114" height="17.0" rx="3" ry="3" fill="#7A4FD3" fill-opacity="0.65"/><text x="506.0" y="313.5" font-family="ui-monospace, Menlo, monospace" font-size="11" font-weight="800" fill="#FFFFFF">NIR</text><text x="557.0" y="396" font-family="Inter, -apple-system, system-ui, sans-serif" font-size="16" font-weight="800" fill="#0F1B2A" text-anchor="middle">Multi-band raster</text><g transform="translate(499.5, 410)"><rect x="0" y="0" rx="11" ry="11" width="115" height="22" fill="#ECE6FA"/><text x="57.5" y="15.0" text-anchor="middle" font-family="ui-monospace, SFMono-Regular, Menlo, Consolas, monospace" font-size="12" font-weight="700" fill="#7A4FD3">rst_frombands</text></g><text x="557.0" y="458" text-anchor="middle" font-family="Inter, sans-serif" font-size="12" fill="#3F4D5E">rst_frombands stacks bands in (R, G, B,</text><text x="557.0" y="474" text-anchor="middle" font-family="Inter, sans-serif" font-size="12" fill="#3F4D5E">NIR) order — one tile per cell-date</text>
<line x1="720" y1="320.0" x2="750" y2="320.0" stroke="#7A4FD3" stroke-width="2.5" stroke-linecap="round"/><polygon points="760,320.0 750,313.3333333333333 750,326.6666666666667" fill="#7A4FD3"/>
<rect x="768" y="160" rx="14" ry="14" width="310" height="380" fill="#FFFFFF" stroke="#E5E7EB" stroke-width="1" filter="url(#card-shadow)"/><path d="M 768 174 A 14 14 0 0 1 782 160 H 1064 A 14 14 0 0 1 1078 174 V 165 H 768 Z" fill="#7A4FD3"/><rect x="868.0" y="240.0" rx="8" ry="8" width="110" height="80" fill="#ECE6FA" stroke="#7A4FD3" stroke-width="2"/><rect x="868.0" y="240.0" width="110" height="22" rx="8" ry="8" fill="#7A4FD3"/><rect x="868.0" y="252.0" width="110" height="10" fill="#7A4FD3"/><text x="923.0" y="256.0" text-anchor="middle" font-family="Inter, sans-serif" font-size="11" font-weight="700" fill="#FFFFFF">stacked-tif</text><line x1="878.0" y1="270.0" x2="968.0" y2="270.0" stroke="#7A4FD3" stroke-opacity="0.45" stroke-width="1.4"/><line x1="878.0" y1="284.0" x2="968.0" y2="284.0" stroke="#7A4FD3" stroke-opacity="0.45" stroke-width="1.4"/><line x1="878.0" y1="298.0" x2="968.0" y2="298.0" stroke="#7A4FD3" stroke-opacity="0.45" stroke-width="1.4"/><text x="923.0" y="396" font-family="Inter, -apple-system, system-ui, sans-serif" font-size="16" font-weight="800" fill="#0F1B2A" text-anchor="middle">GeoTIFF write-back</text><g transform="translate(872.5, 410)"><rect x="0" y="0" rx="11" ry="11" width="101" height="22" fill="#ECE6FA"/><text x="50.5" y="15.0" text-anchor="middle" font-family="ui-monospace, SFMono-Regular, Menlo, Consolas, monospace" font-size="12" font-weight="700" fill="#7A4FD3">gdal writer</text></g><text x="923.0" y="458" text-anchor="middle" font-family="Inter, sans-serif" font-size="12" fill="#3F4D5E">gdal writer materializes stacked tiles to</text><text x="923.0" y="474" text-anchor="middle" font-family="Inter, sans-serif" font-size="12" fill="#3F4D5E">/Volumes/.../alaska/out/stacked-tif</text>
<line x1="1086" y1="320.0" x2="1116" y2="320.0" stroke="#7A4FD3" stroke-width="2.5" stroke-linecap="round"/><polygon points="1126,320.0 1116,313.3333333333333 1116,326.6666666666667" fill="#7A4FD3"/>
<rect x="1134" y="160" rx="14" ry="14" width="310" height="380" fill="#FFFFFF" stroke="#E5E7EB" stroke-width="1" filter="url(#card-shadow)"/><path d="M 1134 174 A 14 14 0 0 1 1148 160 H 1430 A 14 14 0 0 1 1444 174 V 165 H 1134 Z" fill="#7A4FD3"/><rect x="1233.0" y="224.0" width="112" height="112" fill="#ECE6FA" stroke="#7A4FD3" stroke-width="2"/><rect x="1233.0" y="224.0" width="14" height="14" fill="#7A4FD3" fill-opacity="0.53"/><rect x="1247.0" y="224.0" width="14" height="14" fill="#7A4FD3" fill-opacity="0.47"/><rect x="1261.0" y="224.0" width="14" height="14" fill="#7A4FD3" fill-opacity="0.50"/><rect x="1275.0" y="224.0" width="14" height="14" fill="#7A4FD3" fill-opacity="0.61"/><rect x="1289.0" y="224.0" width="14" height="14" fill="#7A4FD3" fill-opacity="0.75"/><rect x="1303.0" y="224.0" width="14" height="14" fill="#7A4FD3" fill-opacity="0.84"/><rect x="1317.0" y="224.0" width="14" height="14" fill="#7A4FD3" fill-opacity="0.82"/><rect x="1331.0" y="224.0" width="14" height="14" fill="#7A4FD3" fill-opacity="0.74"/><rect x="1233.0" y="238.0" width="14" height="14" fill="#7A4FD3" fill-opacity="0.40"/><rect x="1247.0" y="238.0" width="14" height="14" fill="#7A4FD3" fill-opacity="0.51"/><rect x="1261.0" y="238.0" width="14" height="14" fill="#7A4FD3" fill-opacity="0.65"/><rect x="1275.0" y="238.0" width="14" height="14" fill="#7A4FD3" fill-opacity="0.74"/><rect x="1289.0" y="238.0" width="14" height="14" fill="#7A4FD3" fill-opacity="0.74"/><rect x="1303.0" y="238.0" width="14" height="14" fill="#7A4FD3" fill-opacity="0.66"/><rect x="1317.0" y="238.0" width="14" height="14" fill="#7A4FD3" fill-opacity="0.60"/><rect x="1331.0" y="238.0" width="14" height="14" fill="#7A4FD3" fill-opacity="0.61"/><rect x="1233.0" y="252.0" width="14" height="14" fill="#7A4FD3" fill-opacity="0.55"/><rect x="1247.0" y="252.0" width="14" height="14" fill="#7A4FD3" fill-opacity="0.65"/><rect x="1261.0" y="252.0" width="14" height="14" fill="#7A4FD3" fill-opacity="0.66"/><rect x="1275.0" y="252.0" width="14" height="14" fill="#7A4FD3" fill-opacity="0.59"/><rect x="1289.0" y="252.0" width="14" height="14" fill="#7A4FD3" fill-opacity="0.51"/><rect x="1303.0" y="252.0" width="14" height="14" fill="#7A4FD3" fill-opacity="0.52"/><rect x="1317.0" y="252.0" width="14" height="14" fill="#7A4FD3" fill-opacity="0.62"/><rect x="1331.0" y="252.0" width="14" height="14" fill="#7A4FD3" fill-opacity="0.76"/><rect x="1233.0" y="266.0" width="14" height="14" fill="#7A4FD3" fill-opacity="0.57"/><rect x="1247.0" y="266.0" width="14" height="14" fill="#7A4FD3" fill-opacity="0.51"/><rect x="1261.0" y="266.0" width="14" height="14" fill="#7A4FD3" fill-opacity="0.43"/><rect x="1275.0" y="266.0" width="14" height="14" fill="#7A4FD3" fill-opacity="0.43"/><rect x="1289.0" y="266.0" width="14" height="14" fill="#7A4FD3" fill-opacity="0.52"/><rect x="1303.0" y="266.0" width="14" height="14" fill="#7A4FD3" fill-opacity="0.66"/><rect x="1317.0" y="266.0" width="14" height="14" fill="#7A4FD3" fill-opacity="0.77"/><rect x="1331.0" y="266.0" width="14" height="14" fill="#7A4FD3" fill-opacity="0.78"/><rect x="1233.0" y="280.0" width="14" height="14" fill="#7A4FD3" fill-opacity="0.35"/><rect x="1247.0" y="280.0" width="14" height="14" fill="#7A4FD3" fill-opacity="0.34"/><rect x="1261.0" y="280.0" width="14" height="14" fill="#7A4FD3" fill-opacity="0.42"/><rect x="1275.0" y="280.0" width="14" height="14" fill="#7A4FD3" fill-opacity="0.56"/><rect x="1289.0" y="280.0" width="14" height="14" fill="#7A4FD3" fill-opacity="0.67"/><rect x="1303.0" y="280.0" width="14" height="14" fill="#7A4FD3" fill-opacity="0.70"/><rect x="1317.0" y="280.0" width="14" height="14" fill="#7A4FD3" fill-opacity="0.64"/><rect x="1331.0" y="280.0" width="14" height="14" fill="#7A4FD3" fill-opacity="0.56"/><rect x="1233.0" y="294.0" width="14" height="14" fill="#7A4FD3" fill-opacity="0.32"/><rect x="1247.0" y="294.0" width="14" height="14" fill="#7A4FD3" fill-opacity="0.45"/><rect x="1261.0" y="294.0" width="14" height="14" fill="#7A4FD3" fill-opacity="0.58"/><rect x="1275.0" y="294.0" width="14" height="14" fill="#7A4FD3" fill-opacity="0.62"/><rect x="1289.0" y="294.0" width="14" height="14" fill="#7A4FD3" fill-opacity="0.56"/><rect x="1303.0" y="294.0" width="14" height="14" fill="#7A4FD3" fill-opacity="0.48"/><rect x="1317.0" y="294.0" width="14" height="14" fill="#7A4FD3" fill-opacity="0.46"/><rect x="1331.0" y="294.0" width="14" height="14" fill="#7A4FD3" fill-opacity="0.53"/><rect x="1233.0" y="308.0" width="14" height="14" fill="#7A4FD3" fill-opacity="0.48"/><rect x="1247.0" y="308.0" width="14" height="14" fill="#7A4FD3" fill-opacity="0.53"/><rect x="1261.0" y="308.0" width="14" height="14" fill="#7A4FD3" fill-opacity="0.48"/><rect x="1275.0" y="308.0" width="14" height="14" fill="#7A4FD3" fill-opacity="0.40"/><rect x="1289.0" y="308.0" width="14" height="14" fill="#7A4FD3" fill-opacity="0.37"/><rect x="1303.0" y="308.0" width="14" height="14" fill="#7A4FD3" fill-opacity="0.43"/><rect x="1317.0" y="308.0" width="14" height="14" fill="#7A4FD3" fill-opacity="0.56"/><rect x="1331.0" y="308.0" width="14" height="14" fill="#7A4FD3" fill-opacity="0.69"/><rect x="1233.0" y="322.0" width="14" height="14" fill="#7A4FD3" fill-opacity="0.41"/><rect x="1247.0" y="322.0" width="14" height="14" fill="#7A4FD3" fill-opacity="0.32"/><rect x="1261.0" y="322.0" width="14" height="14" fill="#7A4FD3" fill-opacity="0.28"/><rect x="1275.0" y="322.0" width="14" height="14" fill="#7A4FD3" fill-opacity="0.33"/><rect x="1289.0" y="322.0" width="14" height="14" fill="#7A4FD3" fill-opacity="0.46"/><rect x="1303.0" y="322.0" width="14" height="14" fill="#7A4FD3" fill-opacity="0.59"/><rect x="1317.0" y="322.0" width="14" height="14" fill="#7A4FD3" fill-opacity="0.65"/><rect x="1331.0" y="322.0" width="14" height="14" fill="#7A4FD3" fill-opacity="0.61"/><line x1="1247.0" y1="224.0" x2="1247.0" y2="336.0" stroke="#FFFFFF" stroke-width="0.8" stroke-opacity="0.45"/><line x1="1233.0" y1="238.0" x2="1345.0" y2="238.0" stroke="#FFFFFF" stroke-width="0.8" stroke-opacity="0.45"/><line x1="1261.0" y1="224.0" x2="1261.0" y2="336.0" stroke="#FFFFFF" stroke-width="0.8" stroke-opacity="0.45"/><line x1="1233.0" y1="252.0" x2="1345.0" y2="252.0" stroke="#FFFFFF" stroke-width="0.8" stroke-opacity="0.45"/><line x1="1275.0" y1="224.0" x2="1275.0" y2="336.0" stroke="#FFFFFF" stroke-width="0.8" stroke-opacity="0.45"/><line x1="1233.0" y1="266.0" x2="1345.0" y2="266.0" stroke="#FFFFFF" stroke-width="0.8" stroke-opacity="0.45"/><line x1="1289.0" y1="224.0" x2="1289.0" y2="336.0" stroke="#FFFFFF" stroke-width="0.8" stroke-opacity="0.45"/><line x1="1233.0" y1="280.0" x2="1345.0" y2="280.0" stroke="#FFFFFF" stroke-width="0.8" stroke-opacity="0.45"/><line x1="1303.0" y1="224.0" x2="1303.0" y2="336.0" stroke="#FFFFFF" stroke-width="0.8" stroke-opacity="0.45"/><line x1="1233.0" y1="294.0" x2="1345.0" y2="294.0" stroke="#FFFFFF" stroke-width="0.8" stroke-opacity="0.45"/><line x1="1317.0" y1="224.0" x2="1317.0" y2="336.0" stroke="#FFFFFF" stroke-width="0.8" stroke-opacity="0.45"/><line x1="1233.0" y1="308.0" x2="1345.0" y2="308.0" stroke="#FFFFFF" stroke-width="0.8" stroke-opacity="0.45"/><line x1="1331.0" y1="224.0" x2="1331.0" y2="336.0" stroke="#FFFFFF" stroke-width="0.8" stroke-opacity="0.45"/><line x1="1233.0" y1="322.0" x2="1345.0" y2="322.0" stroke="#FFFFFF" stroke-width="0.8" stroke-opacity="0.45"/><rect x="1251.0" y="242.0" width="76" height="76" rx="14" ry="14" fill="none" stroke="#7A4FD3" stroke-width="3" stroke-dasharray="6,5"/><circle cx="1289.0" cy="280.0" r="4" fill="#7A4FD3"/><circle cx="1289.0" cy="280.0" r="9" fill="none" stroke="#7A4FD3" stroke-width="1.4" stroke-opacity="0.5"/><text x="1289.0" y="396" font-family="Inter, -apple-system, system-ui, sans-serif" font-size="16" font-weight="800" fill="#0F1B2A" text-anchor="middle">CRS-safe clip</text><g transform="translate(1249.0, 410)"><rect x="0" y="0" rx="11" ry="11" width="80" height="22" fill="#ECE6FA"/><text x="40.0" y="15.0" text-anchor="middle" font-family="ui-monospace, SFMono-Regular, Menlo, Consolas, monospace" font-size="12" font-weight="700" fill="#7A4FD3">rst_clip</text></g><text x="1289.0" y="458" text-anchor="middle" font-family="Inter, sans-serif" font-size="12" fill="#3F4D5E">EWKB cutline (envelope of buffered</text><text x="1289.0" y="474" text-anchor="middle" font-family="Inter, sans-serif" font-size="12" fill="#3F4D5E">centroid) — rst_clip auto-reprojects</text>
<text x="36" y="650" font-family="Inter, -apple-system, system-ui, sans-serif" font-size="10" font-weight="700" fill="#7A8794" text-anchor="start" letter-spacing="1.6">KEY FUNCTIONS</text><rect x="166" y="640" rx="12" ry="12" width="115" height="24" fill="#ECE6FA"/><text x="223.5" y="656.0" text-anchor="middle" font-family="ui-monospace, SFMono-Regular, Menlo, Consolas, monospace" font-size="12" font-weight="700" fill="#7A4FD3">rst_frombands</text><rect x="289" y="640" rx="12" ry="12" width="101" height="24" fill="#ECE6FA"/><text x="339.5" y="656.0" text-anchor="middle" font-family="ui-monospace, SFMono-Regular, Menlo, Consolas, monospace" font-size="12" font-weight="700" fill="#7A4FD3">gdal writer</text><rect x="398" y="640" rx="12" ry="12" width="80" height="24" fill="#ECE6FA"/><text x="438.0" y="656.0" text-anchor="middle" font-family="ui-monospace, SFMono-Regular, Menlo, Consolas, monospace" font-size="12" font-weight="700" fill="#7A4FD3">rst_clip</text><rect x="486" y="640" rx="12" ry="12" width="101" height="24" fill="#ECE6FA"/><text x="536.5" y="656.0" text-anchor="middle" font-family="ui-monospace, SFMono-Regular, Menlo, Consolas, monospace" font-size="12" font-weight="700" fill="#7A4FD3">st_envelope</text><rect x="595" y="640" rx="12" ry="12" width="87" height="24" fill="#ECE6FA"/><text x="638.5" y="656.0" text-anchor="middle" font-family="ui-monospace, SFMono-Regular, Menlo, Consolas, monospace" font-size="12" font-weight="700" fill="#7A4FD3">st_buffer</text><rect x="690" y="640" rx="12" ry="12" width="87" height="24" fill="#ECE6FA"/><text x="733.5" y="656.0" text-anchor="middle" font-family="ui-monospace, SFMono-Regular, Menlo, Consolas, monospace" font-size="12" font-weight="700" fill="#7A4FD3">st_asewkb</text><text x="1444" y="650" font-family="Inter, -apple-system, system-ui, sans-serif" font-size="11" font-weight="400" fill="#7A8794" text-anchor="end">databrickslabs/geobrix  ·  Sentinel-2 L2A  ·  Planetary Computer</text>
</svg>