<svg xmlns="http://www.w3.org/2000/svg" viewBox="0 0 1480 720" width="1480" height="720" style="font-family: Inter, -apple-system, system-ui, sans-serif;">
<defs>
  <filter id="card-shadow" x="-5%" y="-5%" width="110%" height="115%">
    <feDropShadow dx="0" dy="2" stdDeviation="6"
                  flood-color="#0F1B2A" flood-opacity="0.08"/>
  </filter>
  <linearGradient id="bg" x1="0" y1="0" x2="0" y2="1">
    <stop offset="0" stop-color="#FAFBFC"/>
    <stop offset="1" stop-color="#F1F4F8"/>
  </linearGradient>
</defs>

<rect x="0" y="0" width="1480" height="720" fill="url(#bg)"/>
<rect x="36" y="40" rx="14" ry="14" width="60" height="60" fill="#1F6FB5"/><text x="66.0" y="82.0" text-anchor="middle" font-family="Inter, sans-serif" font-size="32" font-weight="900" fill="#FFFFFF">01</text><text x="114" y="68" font-family="Inter, -apple-system, system-ui, sans-serif" font-size="28" font-weight="800" fill="#0F1B2A" text-anchor="start">Vector Engine: building footprints to PMTiles</text><text x="114" y="94" font-family="Inter, -apple-system, system-ui, sans-serif" font-size="14" font-weight="400" fill="#3F4D5E" text-anchor="start">Overture buildings → MVT pyramid → vector PMTiles archive → inline map</text><rect x="1203" y="48" rx="13" ry="13" width="241" height="26" fill="#0F1B2A"/><text x="1323.5" y="66" text-anchor="middle" font-family="Inter, sans-serif" font-size="12" font-weight="700" fill="#FFFFFF">Helios Series  ·  Notebook 1 of 3</text>
<rect x="36" y="160" rx="14" ry="14" width="310" height="380" fill="#FFFFFF" stroke="#E5E7EB" stroke-width="1" filter="url(#card-shadow)"/><path d="M 36 174 A 14 14 0 0 1 50 160 H 332 A 14 14 0 0 1 346 174 V 165 H 36 Z" fill="#1F6FB5"/><rect x="129.0" y="236.0" rx="3" ry="3" width="48" height="52" fill="#E3EEF8" stroke="#1F6FB5" stroke-width="2"/><line x1="147.0" y1="262.0" x2="159.0" y2="262.0" stroke="#1F6FB5" stroke-width="1.4" stroke-opacity="0.5"/><line x1="153.0" y1="256.0" x2="153.0" y2="268.0" stroke="#1F6FB5" stroke-width="1.4" stroke-opacity="0.5"/><rect x="187.0" y="236.0" rx="3" ry="3" width="36" height="36" fill="#E3EEF8" stroke="#1F6FB5" stroke-width="2"/><line x1="199.0" y1="254.0" x2="211.0" y2="254.0" stroke="#1F6FB5" stroke-width="1.4" stroke-opacity="0.5"/><line x1="205.0" y1="248.0" x2="205.0" y2="260.0" stroke="#1F6FB5" stroke-width="1.4" stroke-opacity="0.5"/><rect x="235.0" y="236.0" rx="3" ry="3" width="32" height="52" fill="#E3EEF8" stroke="#1F6FB5" stroke-width="2"/><line x1="245.0" y1="262.0" x2="257.0" y2="262.0" stroke="#1F6FB5" stroke-width="1.4" stroke-opacity="0.5"/><line x1="251.0" y1="256.0" x2="251.0" y2="268.0" stroke="#1F6FB5" stroke-width="1.4" stroke-opacity="0.5"/><rect x="129.0" y="300.0" rx="3" ry="3" width="32" height="38" fill="#E3EEF8" stroke="#1F6FB5" stroke-width="2"/><line x1="139.0" y1="319.0" x2="151.0" y2="319.0" stroke="#1F6FB5" stroke-width="1.4" stroke-opacity="0.5"/><line x1="145.0" y1="313.0" x2="145.0" y2="325.0" stroke="#1F6FB5" stroke-width="1.4" stroke-opacity="0.5"/><rect x="173.0" y="282.0" rx="3" ry="3" width="54" height="42" fill="#E3EEF8" stroke="#1F6FB5" stroke-width="2"/><line x1="194.0" y1="303.0" x2="206.0" y2="303.0" stroke="#1F6FB5" stroke-width="1.4" stroke-opacity="0.5"/><line x1="200.0" y1="297.0" x2="200.0" y2="309.0" stroke="#1F6FB5" stroke-width="1.4" stroke-opacity="0.5"/><rect x="235.0" y="298.0" rx="3" ry="3" width="32" height="36" fill="#E3EEF8" stroke="#1F6FB5" stroke-width="2"/><line x1="245.0" y1="316.0" x2="257.0" y2="316.0" stroke="#1F6FB5" stroke-width="1.4" stroke-opacity="0.5"/><line x1="251.0" y1="310.0" x2="251.0" y2="322.0" stroke="#1F6FB5" stroke-width="1.4" stroke-opacity="0.5"/><text x="191.0" y="396" font-family="Inter, -apple-system, system-ui, sans-serif" font-size="16" font-weight="800" fill="#0F1B2A" text-anchor="middle">Overture buildings</text><g transform="translate(130.0, 410)"><rect x="0" y="0" rx="11" ry="11" width="122" height="22" fill="#E3EEF8"/><text x="61.0" y="15.0" text-anchor="middle" font-family="ui-monospace, SFMono-Regular, Menlo, Consolas, monospace" font-size="12" font-weight="700" fill="#1F6FB5">OvertureClient</text></g><text x="191.0" y="458" text-anchor="middle" font-family="Inter, sans-serif" font-size="12" fill="#3F4D5E">Download SF building footprints via</text><text x="191.0" y="474" text-anchor="middle" font-family="Inter, sans-serif" font-size="12" fill="#3F4D5E">OvertureClient — distributed,</text><text x="191.0" y="490" text-anchor="middle" font-family="Inter, sans-serif" font-size="12" fill="#3F4D5E">bbox-filtered</text>
<line x1="354" y1="320.0" x2="384" y2="320.0" stroke="#1F6FB5" stroke-width="2.5" stroke-linecap="round"/><polygon points="394,320.0 384,313.3333333333333 384,326.6666666666667" fill="#1F6FB5"/>
<rect x="402" y="160" rx="14" ry="14" width="310" height="380" fill="#FFFFFF" stroke="#E5E7EB" stroke-width="1" filter="url(#card-shadow)"/><path d="M 402 174 A 14 14 0 0 1 416 160 H 698 A 14 14 0 0 1 712 174 V 165 H 402 Z" fill="#1F6FB5"/><rect x="487.0" y="220.0" rx="8" ry="8" width="140" height="120" fill="#FFFFFF" stroke="#1F6FB5" stroke-width="2.4"/><line x1="557.0" y1="224.0" x2="557.0" y2="336.0" stroke="#1F6FB5" stroke-width="1" stroke-opacity="0.3"/><line x1="491.0" y1="280.0" x2="623.0" y2="280.0" stroke="#1F6FB5" stroke-width="1" stroke-opacity="0.3"/><polygon points="501.0,242.0 529.0,228.0 545.0,248.0 517.0,264.0" fill="#E3EEF8" stroke="#1F6FB5" stroke-width="1.6"/><rect x="567.0" y="230.0" rx="2" width="36" height="28" fill="#E3EEF8" stroke="#1F6FB5" stroke-width="1.6"/><rect x="495.0" y="288.0" rx="2" width="42" height="28" fill="#E3EEF8" stroke="#1F6FB5" stroke-width="1.6"/><polygon points="571.0,290.0 603.0,286.0 607.0,316.0 569.0,320.0" fill="#E3EEF8" stroke="#1F6FB5" stroke-width="1.6"/><rect x="599.0" y="204.0" rx="8" width="28" height="16" fill="#1F6FB5"/><text x="613.0" y="216.0" text-anchor="middle" font-family="ui-monospace, Menlo, monospace" font-size="10" font-weight="700" fill="#FFFFFF">z/x/y</text><text x="557.0" y="396" font-family="Inter, -apple-system, system-ui, sans-serif" font-size="16" font-weight="800" fill="#0F1B2A" text-anchor="middle">MVT tile pyramid</text><g transform="translate(475.0, 410)"><rect x="0" y="0" rx="11" ry="11" width="164" height="22" fill="#E3EEF8"/><text x="82.0" y="15.0" text-anchor="middle" font-family="ui-monospace, SFMono-Regular, Menlo, Consolas, monospace" font-size="12" font-weight="700" fill="#1F6FB5">gbx_st_asmvt_pyramid</text></g><text x="557.0" y="458" text-anchor="middle" font-family="Inter, sans-serif" font-size="12" fill="#3F4D5E">gbx_st_asmvt_pyramid encodes footprints</text><text x="557.0" y="474" text-anchor="middle" font-family="Inter, sans-serif" font-size="12" fill="#3F4D5E">into z/x/y Mapbox Vector Tiles</text>
<line x1="720" y1="320.0" x2="750" y2="320.0" stroke="#1F6FB5" stroke-width="2.5" stroke-linecap="round"/><polygon points="760,320.0 750,313.3333333333333 750,326.6666666666667" fill="#1F6FB5"/>
<rect x="768" y="160" rx="14" ry="14" width="310" height="380" fill="#FFFFFF" stroke="#E5E7EB" stroke-width="1" filter="url(#card-shadow)"/><path d="M 768 174 A 14 14 0 0 1 782 160 H 1064 A 14 14 0 0 1 1078 174 V 165 H 768 Z" fill="#1F6FB5"/><rect x="875.0" y="248.0" rx="8" ry="8" width="120" height="72" fill="#E3EEF8" fill-opacity="0.7" stroke="#1F6FB5" stroke-width="2"/><rect x="869.0" y="238.0" rx="8" ry="8" width="120" height="72" fill="#E3EEF8" fill-opacity="0.7" stroke="#1F6FB5" stroke-width="2"/><rect x="863.0" y="228.0" rx="8" ry="8" width="120" height="72" fill="#FFFFFF" fill-opacity="1.0" stroke="#1F6FB5" stroke-width="2"/><rect x="863.0" y="228.0" width="120" height="20" rx="8" ry="8" fill="#1F6FB5"/><rect x="863.0" y="238.0" width="120" height="10" fill="#1F6FB5"/><text x="923.0" y="242.0" text-anchor="middle" font-family="Inter, sans-serif" font-size="11" font-weight="800" fill="#FFFFFF">.pmtiles</text><line x1="873.0" y1="258.0" x2="973.0" y2="258.0" stroke="#1F6FB5" stroke-opacity="0.4" stroke-width="1.4"/><line x1="873.0" y1="271.0" x2="973.0" y2="271.0" stroke="#1F6FB5" stroke-opacity="0.4" stroke-width="1.4"/><line x1="873.0" y1="284.0" x2="973.0" y2="284.0" stroke="#1F6FB5" stroke-opacity="0.4" stroke-width="1.4"/><text x="923.0" y="396" font-family="Inter, -apple-system, system-ui, sans-serif" font-size="16" font-weight="800" fill="#0F1B2A" text-anchor="middle">PMTiles archive</text><g transform="translate(858.5, 410)"><rect x="0" y="0" rx="11" ry="11" width="129" height="22" fill="#E3EEF8"/><text x="64.5" y="15.0" text-anchor="middle" font-family="ui-monospace, SFMono-Regular, Menlo, Consolas, monospace" font-size="12" font-weight="700" fill="#1F6FB5">gbx_pmtiles_agg</text></g><text x="923.0" y="458" text-anchor="middle" font-family="Inter, sans-serif" font-size="12" fill="#3F4D5E">gbx_pmtiles_agg folds the full pyramid</text><text x="923.0" y="474" text-anchor="middle" font-family="Inter, sans-serif" font-size="12" fill="#3F4D5E">into one self-contained vector archive</text>
<line x1="1086" y1="320.0" x2="1116" y2="320.0" stroke="#1F6FB5" stroke-width="2.5" stroke-linecap="round"/><polygon points="1126,320.0 1116,313.3333333333333 1116,326.6666666666667" fill="#1F6FB5"/>
<rect x="1134" y="160" rx="14" ry="14" width="310" height="380" fill="#FFFFFF" stroke="#E5E7EB" stroke-width="1" filter="url(#card-shadow)"/><path d="M 1134 174 A 14 14 0 0 1 1148 160 H 1430 A 14 14 0 0 1 1444 174 V 165 H 1134 Z" fill="#1F6FB5"/><circle cx="1289.0" cy="256.0" r="36" fill="#E3EEF8" stroke="#1F6FB5" stroke-width="2.5"/><polygon points="1275.0,277.6 1303.0,277.6 1289.0,300.0" fill="#E3EEF8" stroke="#1F6FB5" stroke-width="2.5" stroke-linejoin="round"/><circle cx="1289.0" cy="256.0" r="13.7" fill="#1F6FB5"/><ellipse cx="1289.0" cy="308.0" rx="20" ry="6" fill="#1F6FB5" fill-opacity="0.18"/><text x="1289.0" y="396" font-family="Inter, -apple-system, system-ui, sans-serif" font-size="16" font-weight="800" fill="#0F1B2A" text-anchor="middle">Inline map view</text><g transform="translate(1235.0, 410)"><rect x="0" y="0" rx="11" ry="11" width="108" height="22" fill="#E3EEF8"/><text x="54.0" y="15.0" text-anchor="middle" font-family="ui-monospace, SFMono-Regular, Menlo, Consolas, monospace" font-size="12" font-weight="700" fill="#1F6FB5">plot_pmtiles</text></g><text x="1289.0" y="458" text-anchor="middle" font-family="Inter, sans-serif" font-size="12" fill="#3F4D5E">plot_pmtiles renders the vector archive</text><text x="1289.0" y="474" text-anchor="middle" font-family="Inter, sans-serif" font-size="12" fill="#3F4D5E">inline — static or interactive MapLibre</text>
<text x="36" y="650" font-family="Inter, -apple-system, system-ui, sans-serif" font-size="10" font-weight="700" fill="#7A8794" text-anchor="start" letter-spacing="1.6">KEY FUNCTIONS</text><rect x="166" y="640" rx="12" ry="12" width="185" height="24" fill="#E3EEF8"/><text x="258.5" y="656.0" text-anchor="middle" font-family="ui-monospace, SFMono-Regular, Menlo, Consolas, monospace" font-size="12" font-weight="700" fill="#1F6FB5">OvertureClient.discover</text><rect x="359" y="640" rx="12" ry="12" width="185" height="24" fill="#E3EEF8"/><text x="451.5" y="656.0" text-anchor="middle" font-family="ui-monospace, SFMono-Regular, Menlo, Consolas, monospace" font-size="12" font-weight="700" fill="#1F6FB5">OvertureClient.download</text><rect x="552" y="640" rx="12" ry="12" width="108" height="24" fill="#E3EEF8"/><text x="606.0" y="656.0" text-anchor="middle" font-family="ui-monospace, SFMono-Regular, Menlo, Consolas, monospace" font-size="12" font-weight="700" fill="#1F6FB5">gbx_st_asmvt</text><rect x="668" y="640" rx="12" ry="12" width="164" height="24" fill="#E3EEF8"/><text x="750.0" y="656.0" text-anchor="middle" font-family="ui-monospace, SFMono-Regular, Menlo, Consolas, monospace" font-size="12" font-weight="700" fill="#1F6FB5">gbx_st_asmvt_pyramid</text><rect x="840" y="640" rx="12" ry="12" width="129" height="24" fill="#E3EEF8"/><text x="904.5" y="656.0" text-anchor="middle" font-family="ui-monospace, SFMono-Regular, Menlo, Consolas, monospace" font-size="12" font-weight="700" fill="#1F6FB5">gbx_pmtiles_agg</text><rect x="977" y="640" rx="12" ry="12" width="108" height="24" fill="#E3EEF8"/><text x="1031.0" y="656.0" text-anchor="middle" font-family="ui-monospace, SFMono-Regular, Menlo, Consolas, monospace" font-size="12" font-weight="700" fill="#1F6FB5">plot_pmtiles</text><text x="1444" y="650" font-family="Inter, -apple-system, system-ui, sans-serif" font-size="11" font-weight="400" fill="#7A8794" text-anchor="end">databrickslabs/geobrix  ·  Overture Maps  ·  NAIP  ·  USGS 3DEP</text>
</svg>