<svg xmlns="http://www.w3.org/2000/svg" viewBox="0 0 1480 720" width="1480" height="720" style="font-family: Inter, -apple-system, system-ui, sans-serif;">
<defs>
  <filter id="card-shadow" x="-5%" y="-5%" width="110%" height="115%">
    <feDropShadow dx="0" dy="2" stdDeviation="6"
                  flood-color="#0F1B2A" flood-opacity="0.08"/>
  </filter>
  <linearGradient id="bg" x1="0" y1="0" x2="0" y2="1">
    <stop offset="0" stop-color="#FAFBFC"/>
    <stop offset="1" stop-color="#F1F4F8"/>
  </linearGradient>
</defs>

<rect x="0" y="0" width="1480" height="720" fill="url(#bg)"/>
<rect x="36" y="40" rx="14" ry="14" width="60" height="60" fill="#E04E2A"/><text x="66.0" y="82.0" text-anchor="middle" font-family="Inter, sans-serif" font-size="32" font-weight="900" fill="#FFFFFF">02</text><text x="114" y="68" font-family="Inter, -apple-system, system-ui, sans-serif" font-size="28" font-weight="800" fill="#0F1B2A" text-anchor="start">Visual Basemap: NAIP aerial imagery to PMTiles</text><text x="114" y="94" font-family="Inter, -apple-system, system-ui, sans-serif" font-size="14" font-weight="400" fill="#3F4D5E" text-anchor="start">NAIP GeoTIFF → web-mercator reproject → XYZ pyramid → raster PMTiles → inline map</text><rect x="1203" y="48" rx="13" ry="13" width="241" height="26" fill="#0F1B2A"/><text x="1323.5" y="66" text-anchor="middle" font-family="Inter, sans-serif" font-size="12" font-weight="700" fill="#FFFFFF">Helios Series  ·  Notebook 2 of 4</text>
<rect x="36" y="160" rx="14" ry="14" width="310" height="380" fill="#FFFFFF" stroke="#E5E7EB" stroke-width="1" filter="url(#card-shadow)"/><path d="M 36 174 A 14 14 0 0 1 50 160 H 332 A 14 14 0 0 1 346 174 V 165 H 36 Z" fill="#E04E2A"/><rect x="132.5" y="221.5" width="117" height="117" fill="#FCE9E2" stroke="#E04E2A" stroke-width="2"/><rect x="132.5" y="221.5" width="13" height="13" fill="#A8B8C8" fill-opacity="0.85"/><rect x="145.5" y="221.5" width="13" height="13" fill="#8DC48D" fill-opacity="0.85"/><rect x="158.5" y="221.5" width="13" height="13" fill="#9AABB8" fill-opacity="0.85"/><rect x="171.5" y="221.5" width="13" height="13" fill="#7DB87D" fill-opacity="0.85"/><rect x="184.5" y="221.5" width="13" height="13" fill="#A89068" fill-opacity="0.85"/><rect x="197.5" y="221.5" width="13" height="13" fill="#8AB4E0" fill-opacity="0.85"/><rect x="210.5" y="221.5" width="13" height="13" fill="#B09070" fill-opacity="0.85"/><rect x="223.5" y="221.5" width="13" height="13" fill="#7BA8D4" fill-opacity="0.85"/><rect x="236.5" y="221.5" width="13" height="13" fill="#5A9A5A" fill-opacity="0.85"/><rect x="132.5" y="234.5" width="13" height="13" fill="#8AB4E0" fill-opacity="0.85"/><rect x="145.5" y="234.5" width="13" height="13" fill="#B09070" fill-opacity="0.85"/><rect x="158.5" y="234.5" width="13" height="13" fill="#7BA8D4" fill-opacity="0.85"/><rect x="171.5" y="234.5" width="13" height="13" fill="#5A9A5A" fill-opacity="0.85"/><rect x="184.5" y="234.5" width="13" height="13" fill="#C0CAD4" fill-opacity="0.85"/><rect x="197.5" y="234.5" width="13" height="13" fill="#6AAA6A" fill-opacity="0.85"/><rect x="210.5" y="234.5" width="13" height="13" fill="#B0B8C4" fill-opacity="0.85"/><rect x="223.5" y="234.5" width="13" height="13" fill="#5888B8" fill-opacity="0.85"/><rect x="236.5" y="234.5" width="13" height="13" fill="#C8B898" fill-opacity="0.85"/><rect x="132.5" y="247.5" width="13" height="13" fill="#6AAA6A" fill-opacity="0.85"/><rect x="145.5" y="247.5" width="13" height="13" fill="#B0B8C4" fill-opacity="0.85"/><rect x="158.5" y="247.5" width="13" height="13" fill="#5888B8" fill-opacity="0.85"/><rect x="171.5" y="247.5" width="13" height="13" fill="#C8B898" fill-opacity="0.85"/><rect x="184.5" y="247.5" width="13" height="13" fill="#6898C4" fill-opacity="0.85"/><rect x="197.5" y="247.5" width="13" height="13" fill="#BFAA8E" fill-opacity="0.85"/><rect x="210.5" y="247.5" width="13" height="13" fill="#A8B8C8" fill-opacity="0.85"/><rect x="223.5" y="247.5" width="13" height="13" fill="#8DC48D" fill-opacity="0.85"/><rect x="236.5" y="247.5" width="13" height="13" fill="#9AABB8" fill-opacity="0.85"/><rect x="132.5" y="260.5" width="13" height="13" fill="#BFAA8E" fill-opacity="0.85"/><rect x="145.5" y="260.5" width="13" height="13" fill="#A8B8C8" fill-opacity="0.85"/><rect x="158.5" y="260.5" width="13" height="13" fill="#8DC48D" fill-opacity="0.85"/><rect x="171.5" y="260.5" width="13" height="13" fill="#9AABB8" fill-opacity="0.85"/><rect x="184.5" y="260.5" width="13" height="13" fill="#7DB87D" fill-opacity="0.85"/><rect x="197.5" y="260.5" width="13" height="13" fill="#A89068" fill-opacity="0.85"/><rect x="210.5" y="260.5" width="13" height="13" fill="#8AB4E0" fill-opacity="0.85"/><rect x="223.5" y="260.5" width="13" height="13" fill="#B09070" fill-opacity="0.85"/><rect x="236.5" y="260.5" width="13" height="13" fill="#7BA8D4" fill-opacity="0.85"/><rect x="132.5" y="273.5" width="13" height="13" fill="#A89068" fill-opacity="0.85"/><rect x="145.5" y="273.5" width="13" height="13" fill="#8AB4E0" fill-opacity="0.85"/><rect x="158.5" y="273.5" width="13" height="13" fill="#B09070" fill-opacity="0.85"/><rect x="171.5" y="273.5" width="13" height="13" fill="#7BA8D4" fill-opacity="0.85"/><rect x="184.5" y="273.5" width="13" height="13" fill="#5A9A5A" fill-opacity="0.85"/><rect x="197.5" y="273.5" width="13" height="13" fill="#C0CAD4" fill-opacity="0.85"/><rect x="210.5" y="273.5" width="13" height="13" fill="#6AAA6A" fill-opacity="0.85"/><rect x="223.5" y="273.5" width="13" height="13" fill="#B0B8C4" fill-opacity="0.85"/><rect x="236.5" y="273.5" width="13" height="13" fill="#5888B8" fill-opacity="0.85"/><rect x="132.5" y="286.5" width="13" height="13" fill="#C0CAD4" fill-opacity="0.85"/><rect x="145.5" y="286.5" width="13" height="13" fill="#6AAA6A" fill-opacity="0.85"/><rect x="158.5" y="286.5" width="13" height="13" fill="#B0B8C4" fill-opacity="0.85"/><rect x="171.5" y="286.5" width="13" height="13" fill="#5888B8" fill-opacity="0.85"/><rect x="184.5" y="286.5" width="13" height="13" fill="#C8B898" fill-opacity="0.85"/><rect x="197.5" y="286.5" width="13" height="13" fill="#6898C4" fill-opacity="0.85"/><rect x="210.5" y="286.5" width="13" height="13" fill="#BFAA8E" fill-opacity="0.85"/><rect x="223.5" y="286.5" width="13" height="13" fill="#A8B8C8" fill-opacity="0.85"/><rect x="236.5" y="286.5" width="13" height="13" fill="#8DC48D" fill-opacity="0.85"/><rect x="132.5" y="299.5" width="13" height="13" fill="#6898C4" fill-opacity="0.85"/><rect x="145.5" y="299.5" width="13" height="13" fill="#BFAA8E" fill-opacity="0.85"/><rect x="158.5" y="299.5" width="13" height="13" fill="#A8B8C8" fill-opacity="0.85"/><rect x="171.5" y="299.5" width="13" height="13" fill="#8DC48D" fill-opacity="0.85"/><rect x="184.5" y="299.5" width="13" height="13" fill="#9AABB8" fill-opacity="0.85"/><rect x="197.5" y="299.5" width="13" height="13" fill="#7DB87D" fill-opacity="0.85"/><rect x="210.5" y="299.5" width="13" height="13" fill="#A89068" fill-opacity="0.85"/><rect x="223.5" y="299.5" width="13" height="13" fill="#8AB4E0" fill-opacity="0.85"/><rect x="236.5" y="299.5" width="13" height="13" fill="#B09070" fill-opacity="0.85"/><rect x="132.5" y="312.5" width="13" height="13" fill="#7DB87D" fill-opacity="0.85"/><rect x="145.5" y="312.5" width="13" height="13" fill="#A89068" fill-opacity="0.85"/><rect x="158.5" y="312.5" width="13" height="13" fill="#8AB4E0" fill-opacity="0.85"/><rect x="171.5" y="312.5" width="13" height="13" fill="#B09070" fill-opacity="0.85"/><rect x="184.5" y="312.5" width="13" height="13" fill="#7BA8D4" fill-opacity="0.85"/><rect x="197.5" y="312.5" width="13" height="13" fill="#5A9A5A" fill-opacity="0.85"/><rect x="210.5" y="312.5" width="13" height="13" fill="#C0CAD4" fill-opacity="0.85"/><rect x="223.5" y="312.5" width="13" height="13" fill="#6AAA6A" fill-opacity="0.85"/><rect x="236.5" y="312.5" width="13" height="13" fill="#B0B8C4" fill-opacity="0.85"/><rect x="132.5" y="325.5" width="13" height="13" fill="#5A9A5A" fill-opacity="0.85"/><rect x="145.5" y="325.5" width="13" height="13" fill="#C0CAD4" fill-opacity="0.85"/><rect x="158.5" y="325.5" width="13" height="13" fill="#6AAA6A" fill-opacity="0.85"/><rect x="171.5" y="325.5" width="13" height="13" fill="#B0B8C4" fill-opacity="0.85"/><rect x="184.5" y="325.5" width="13" height="13" fill="#5888B8" fill-opacity="0.85"/><rect x="197.5" y="325.5" width="13" height="13" fill="#C8B898" fill-opacity="0.85"/><rect x="210.5" y="325.5" width="13" height="13" fill="#6898C4" fill-opacity="0.85"/><rect x="223.5" y="325.5" width="13" height="13" fill="#BFAA8E" fill-opacity="0.85"/><rect x="236.5" y="325.5" width="13" height="13" fill="#A8B8C8" fill-opacity="0.85"/><line x1="145.5" y1="221.5" x2="145.5" y2="338.5" stroke="#FFFFFF" stroke-width="0.6" stroke-opacity="0.5"/><line x1="132.5" y1="234.5" x2="249.5" y2="234.5" stroke="#FFFFFF" stroke-width="0.6" stroke-opacity="0.5"/><line x1="158.5" y1="221.5" x2="158.5" y2="338.5" stroke="#FFFFFF" stroke-width="0.6" stroke-opacity="0.5"/><line x1="132.5" y1="247.5" x2="249.5" y2="247.5" stroke="#FFFFFF" stroke-width="0.6" stroke-opacity="0.5"/><line x1="171.5" y1="221.5" x2="171.5" y2="338.5" stroke="#FFFFFF" stroke-width="0.6" stroke-opacity="0.5"/><line x1="132.5" y1="260.5" x2="249.5" y2="260.5" stroke="#FFFFFF" stroke-width="0.6" stroke-opacity="0.5"/><line x1="184.5" y1="221.5" x2="184.5" y2="338.5" stroke="#FFFFFF" stroke-width="0.6" stroke-opacity="0.5"/><line x1="132.5" y1="273.5" x2="249.5" y2="273.5" stroke="#FFFFFF" stroke-width="0.6" stroke-opacity="0.5"/><line x1="197.5" y1="221.5" x2="197.5" y2="338.5" stroke="#FFFFFF" stroke-width="0.6" stroke-opacity="0.5"/><line x1="132.5" y1="286.5" x2="249.5" y2="286.5" stroke="#FFFFFF" stroke-width="0.6" stroke-opacity="0.5"/><line x1="210.5" y1="221.5" x2="210.5" y2="338.5" stroke="#FFFFFF" stroke-width="0.6" stroke-opacity="0.5"/><line x1="132.5" y1="299.5" x2="249.5" y2="299.5" stroke="#FFFFFF" stroke-width="0.6" stroke-opacity="0.5"/><line x1="223.5" y1="221.5" x2="223.5" y2="338.5" stroke="#FFFFFF" stroke-width="0.6" stroke-opacity="0.5"/><line x1="132.5" y1="312.5" x2="249.5" y2="312.5" stroke="#FFFFFF" stroke-width="0.6" stroke-opacity="0.5"/><line x1="236.5" y1="221.5" x2="236.5" y2="338.5" stroke="#FFFFFF" stroke-width="0.6" stroke-opacity="0.5"/><line x1="132.5" y1="325.5" x2="249.5" y2="325.5" stroke="#FFFFFF" stroke-width="0.6" stroke-opacity="0.5"/><text x="191.0" y="396" font-family="Inter, -apple-system, system-ui, sans-serif" font-size="16" font-weight="800" fill="#0F1B2A" text-anchor="middle">NAIP aerial imagery</text><g transform="translate(102.0, 410)"><rect x="0" y="0" rx="11" ry="11" width="178" height="22" fill="#FCE9E2"/><text x="89.0" y="15.0" text-anchor="middle" font-family="ui-monospace, SFMono-Regular, Menlo, Consolas, monospace" font-size="12" font-weight="700" fill="#E04E2A">binaryFile / gtiff_gbx</text></g><text x="191.0" y="458" text-anchor="middle" font-family="Inter, sans-serif" font-size="12" fill="#3F4D5E">Stage a cloud-optimized NAIP GeoTIFF for</text><text x="191.0" y="474" text-anchor="middle" font-family="Inter, sans-serif" font-size="12" fill="#3F4D5E">SF via Planetary Computer STAC</text>
<line x1="354" y1="320.0" x2="384" y2="320.0" stroke="#E04E2A" stroke-width="2.5" stroke-linecap="round"/><polygon points="394,320.0 384,313.3333333333333 384,326.6666666666667" fill="#E04E2A"/>
<rect x="402" y="160" rx="14" ry="14" width="310" height="380" fill="#FFFFFF" stroke="#E5E7EB" stroke-width="1" filter="url(#card-shadow)"/><path d="M 402 174 A 14 14 0 0 1 416 160 H 698 A 14 14 0 0 1 712 174 V 165 H 402 Z" fill="#E04E2A"/><circle cx="557.0" cy="280.0" r="62" fill="#FCE9E2" stroke="#E04E2A" stroke-width="2.5"/><line x1="495.0" y1="280.0" x2="619.0" y2="280.0" stroke="#E04E2A" stroke-width="1.6" stroke-opacity="0.5"/><line x1="557.0" y1="218.0" x2="557.0" y2="342.0" stroke="#E04E2A" stroke-width="1.6" stroke-opacity="0.5"/><ellipse cx="557.0" cy="249" rx="53" ry="15" fill="none" stroke="#E04E2A" stroke-width="1.2" stroke-opacity="0.35"/><ellipse cx="557.0" cy="311" rx="53" ry="15" fill="none" stroke="#E04E2A" stroke-width="1.2" stroke-opacity="0.35"/><ellipse cx="557.0" cy="226" rx="31" ry="15" fill="none" stroke="#E04E2A" stroke-width="1.2" stroke-opacity="0.35"/><ellipse cx="557.0" cy="333" rx="31" ry="15" fill="none" stroke="#E04E2A" stroke-width="1.2" stroke-opacity="0.35"/><ellipse cx="526" cy="280.0" rx="13" ry="53" fill="none" stroke="#E04E2A" stroke-width="1.2" stroke-opacity="0.35"/><ellipse cx="588" cy="280.0" rx="13" ry="53" fill="none" stroke="#E04E2A" stroke-width="1.2" stroke-opacity="0.35"/><ellipse cx="503" cy="280.0" rx="13" ry="31" fill="none" stroke="#E04E2A" stroke-width="1.2" stroke-opacity="0.35"/><ellipse cx="610" cy="280.0" rx="13" ry="31" fill="none" stroke="#E04E2A" stroke-width="1.2" stroke-opacity="0.35"/><circle cx="525.0" cy="243.0" r="5" fill="#E04E2A"/><circle cx="525.0" cy="243.0" r="10" fill="none" stroke="#E04E2A" stroke-width="1.5" stroke-opacity="0.5"/><text x="557.0" y="396" font-family="Inter, -apple-system, system-ui, sans-serif" font-size="16" font-weight="800" fill="#0F1B2A" text-anchor="middle">Web-mercator reproject</text><g transform="translate(468.0, 410)"><rect x="0" y="0" rx="11" ry="11" width="178" height="22" fill="#FCE9E2"/><text x="89.0" y="15.0" text-anchor="middle" font-family="ui-monospace, SFMono-Regular, Menlo, Consolas, monospace" font-size="12" font-weight="700" fill="#E04E2A">gbx_rst_to_webmercator</text></g><text x="557.0" y="458" text-anchor="middle" font-family="Inter, sans-serif" font-size="12" fill="#3F4D5E">gbx_rst_to_webmercator aligns the raster</text><text x="557.0" y="474" text-anchor="middle" font-family="Inter, sans-serif" font-size="12" fill="#3F4D5E">to the slippy-map tile grid (EPSG:3857)</text>
<line x1="720" y1="320.0" x2="750" y2="320.0" stroke="#E04E2A" stroke-width="2.5" stroke-linecap="round"/><polygon points="760,320.0 750,313.3333333333333 750,326.6666666666667" fill="#E04E2A"/>
<rect x="768" y="160" rx="14" ry="14" width="310" height="380" fill="#FFFFFF" stroke="#E5E7EB" stroke-width="1" filter="url(#card-shadow)"/><path d="M 768 174 A 14 14 0 0 1 782 160 H 1064 A 14 14 0 0 1 1078 174 V 165 H 768 Z" fill="#E04E2A"/><rect x="907.0" y="214.0" rx="4" ry="4" width="32" height="22" fill="#FCE9E2" fill-opacity="0.95" stroke="#E04E2A" stroke-width="1.8"/><text x="923.0" y="229.0" text-anchor="middle" font-family="ui-monospace, Menlo, monospace" font-size="10" font-weight="700" fill="#E04E2A">z16</text><rect x="891.0" y="244.0" rx="4" ry="4" width="64" height="22" fill="#FCE9E2" fill-opacity="0.80" stroke="#E04E2A" stroke-width="1.8"/><text x="923.0" y="259.0" text-anchor="middle" font-family="ui-monospace, Menlo, monospace" font-size="10" font-weight="700" fill="#E04E2A">z14</text><rect x="873.0" y="276.0" rx="4" ry="4" width="100" height="22" fill="#FCE9E2" fill-opacity="0.65" stroke="#E04E2A" stroke-width="1.8"/><text x="923.0" y="291.0" text-anchor="middle" font-family="ui-monospace, Menlo, monospace" font-size="10" font-weight="700" fill="#E04E2A">z12</text><rect x="855.0" y="308.0" rx="4" ry="4" width="136" height="22" fill="#FCE9E2" fill-opacity="0.50" stroke="#E04E2A" stroke-width="1.8"/><text x="923.0" y="323.0" text-anchor="middle" font-family="ui-monospace, Menlo, monospace" font-size="10" font-weight="700" fill="#E04E2A">z0 </text><text x="923.0" y="396" font-family="Inter, -apple-system, system-ui, sans-serif" font-size="16" font-weight="800" fill="#0F1B2A" text-anchor="middle">XYZ tile pyramid</text><g transform="translate(848.0, 410)"><rect x="0" y="0" rx="11" ry="11" width="150" height="22" fill="#FCE9E2"/><text x="75.0" y="15.0" text-anchor="middle" font-family="ui-monospace, SFMono-Regular, Menlo, Consolas, monospace" font-size="12" font-weight="700" fill="#E04E2A">gbx_rst_xyzpyramid</text></g><text x="923.0" y="458" text-anchor="middle" font-family="Inter, sans-serif" font-size="12" fill="#3F4D5E">gbx_rst_xyzpyramid slices the reprojected</text><text x="923.0" y="474" text-anchor="middle" font-family="Inter, sans-serif" font-size="12" fill="#3F4D5E">raster into z/x/y PNG tile rows</text>
<line x1="1086" y1="320.0" x2="1116" y2="320.0" stroke="#E04E2A" stroke-width="2.5" stroke-linecap="round"/><polygon points="1126,320.0 1116,313.3333333333333 1116,326.6666666666667" fill="#E04E2A"/>
<rect x="1134" y="160" rx="14" ry="14" width="310" height="380" fill="#FFFFFF" stroke="#E5E7EB" stroke-width="1" filter="url(#card-shadow)"/><path d="M 1134 174 A 14 14 0 0 1 1148 160 H 1430 A 14 14 0 0 1 1444 174 V 165 H 1134 Z" fill="#E04E2A"/><circle cx="1289.0" cy="256.0" r="36" fill="#FCE9E2" stroke="#E04E2A" stroke-width="2.5"/><polygon points="1275.0,277.6 1303.0,277.6 1289.0,300.0" fill="#FCE9E2" stroke="#E04E2A" stroke-width="2.5" stroke-linejoin="round"/><circle cx="1289.0" cy="256.0" r="13.7" fill="#E04E2A"/><ellipse cx="1289.0" cy="308.0" rx="20" ry="6" fill="#E04E2A" fill-opacity="0.18"/><text x="1289.0" y="396" font-family="Inter, -apple-system, system-ui, sans-serif" font-size="16" font-weight="800" fill="#0F1B2A" text-anchor="middle">Raster PMTiles</text><g transform="translate(1235.0, 410)"><rect x="0" y="0" rx="11" ry="11" width="108" height="22" fill="#FCE9E2"/><text x="54.0" y="15.0" text-anchor="middle" font-family="ui-monospace, SFMono-Regular, Menlo, Consolas, monospace" font-size="12" font-weight="700" fill="#E04E2A">plot_pmtiles</text></g><text x="1289.0" y="458" text-anchor="middle" font-family="Inter, sans-serif" font-size="12" fill="#3F4D5E">gbx_pmtiles_agg bundles the XYZ pyramid;</text><text x="1289.0" y="474" text-anchor="middle" font-family="Inter, sans-serif" font-size="12" fill="#3F4D5E">plot_pmtiles renders the basemap inline</text>
<text x="36" y="650" font-family="Inter, -apple-system, system-ui, sans-serif" font-size="10" font-weight="700" fill="#7A8794" text-anchor="start" letter-spacing="1.6">KEY FUNCTIONS</text><rect x="166" y="640" rx="12" ry="12" width="178" height="24" fill="#FCE9E2"/><text x="255.0" y="656.0" text-anchor="middle" font-family="ui-monospace, SFMono-Regular, Menlo, Consolas, monospace" font-size="12" font-weight="700" fill="#E04E2A">gbx_rst_to_webmercator</text><rect x="352" y="640" rx="12" ry="12" width="150" height="24" fill="#FCE9E2"/><text x="427.0" y="656.0" text-anchor="middle" font-family="ui-monospace, SFMono-Regular, Menlo, Consolas, monospace" font-size="12" font-weight="700" fill="#E04E2A">gbx_rst_xyzpyramid</text><rect x="510" y="640" rx="12" ry="12" width="129" height="24" fill="#FCE9E2"/><text x="574.5" y="656.0" text-anchor="middle" font-family="ui-monospace, SFMono-Regular, Menlo, Consolas, monospace" font-size="12" font-weight="700" fill="#E04E2A">gbx_pmtiles_agg</text><rect x="647" y="640" rx="12" ry="12" width="108" height="24" fill="#FCE9E2"/><text x="701.0" y="656.0" text-anchor="middle" font-family="ui-monospace, SFMono-Regular, Menlo, Consolas, monospace" font-size="12" font-weight="700" fill="#E04E2A">pmtiles_info</text><rect x="763" y="640" rx="12" ry="12" width="108" height="24" fill="#FCE9E2"/><text x="817.0" y="656.0" text-anchor="middle" font-family="ui-monospace, SFMono-Regular, Menlo, Consolas, monospace" font-size="12" font-weight="700" fill="#E04E2A">plot_pmtiles</text><text x="1444" y="650" font-family="Inter, -apple-system, system-ui, sans-serif" font-size="11" font-weight="400" fill="#7A8794" text-anchor="end">databrickslabs/geobrix  ·  Overture Maps  ·  NAIP  ·  USGS 3DEP</text>
</svg>