<svg xmlns="http://www.w3.org/2000/svg" viewBox="0 0 1480 720" width="1480" height="720" style="font-family: Inter, -apple-system, system-ui, sans-serif;">
<defs>
  <filter id="card-shadow" x="-5%" y="-5%" width="110%" height="115%">
    <feDropShadow dx="0" dy="2" stdDeviation="6"
                  flood-color="#0F1B2A" flood-opacity="0.08"/>
  </filter>
  <linearGradient id="bg" x1="0" y1="0" x2="0" y2="1">
    <stop offset="0" stop-color="#FAFBFC"/>
    <stop offset="1" stop-color="#F1F4F8"/>
  </linearGradient>
</defs>

<rect x="0" y="0" width="1480" height="720" fill="url(#bg)"/>
<rect x="36" y="40" rx="14" ry="14" width="60" height="60" fill="#0F8E8B"/><text x="66.0" y="82.0" text-anchor="middle" font-family="Inter, sans-serif" font-size="32" font-weight="900" fill="#FFFFFF">03</text><text x="114" y="68" font-family="Inter, -apple-system, system-ui, sans-serif" font-size="28" font-weight="800" fill="#0F1B2A" text-anchor="start">Analytical Core: terrain to COG + PMTiles</text><text x="114" y="94" font-family="Inter, -apple-system, system-ui, sans-serif" font-size="14" font-weight="400" fill="#3F4D5E" text-anchor="start">USGS 3DEP DEM → COG catalog → slope/hillshade → PMTiles → inline map</text><rect x="1203" y="48" rx="13" ry="13" width="241" height="26" fill="#0F1B2A"/><text x="1323.5" y="66" text-anchor="middle" font-family="Inter, sans-serif" font-size="12" font-weight="700" fill="#FFFFFF">Helios Series  ·  Notebook 3 of 3</text>
<rect x="36" y="160" rx="14" ry="14" width="310" height="380" fill="#FFFFFF" stroke="#E5E7EB" stroke-width="1" filter="url(#card-shadow)"/><path d="M 36 174 A 14 14 0 0 1 50 160 H 332 A 14 14 0 0 1 346 174 V 165 H 36 Z" fill="#0F8E8B"/><rect x="121.0" y="220.0" rx="8" ry="8" width="140" height="120" fill="#D5ECEC" stroke="#0F8E8B" stroke-width="2"/><ellipse cx="181.0" cy="272.0" rx="12" ry="8" fill="none" stroke="#0F8E8B" stroke-width="1.8" stroke-opacity="1.00"/><ellipse cx="181.0" cy="272.0" rx="26" ry="18" fill="none" stroke="#0F8E8B" stroke-width="1.8" stroke-opacity="0.85"/><ellipse cx="181.0" cy="272.0" rx="42" ry="28" fill="none" stroke="#0F8E8B" stroke-width="1.8" stroke-opacity="0.70"/><ellipse cx="181.0" cy="272.0" rx="58" ry="38" fill="none" stroke="#0F8E8B" stroke-width="1.8" stroke-opacity="0.55"/><ellipse cx="181.0" cy="272.0" rx="72" ry="46" fill="none" stroke="#0F8E8B" stroke-width="1.8" stroke-opacity="0.40"/><circle cx="181.0" cy="272.0" r="4" fill="#0F8E8B"/><text x="197.0" y="276.0" font-family="ui-monospace, Menlo, monospace" font-size="9" fill="#0F8E8B" fill-opacity="0.7">10m</text><text x="211.0" y="283.0" font-family="ui-monospace, Menlo, monospace" font-size="9" fill="#0F8E8B" fill-opacity="0.7">20m</text><text x="225.0" y="290.0" font-family="ui-monospace, Menlo, monospace" font-size="9" fill="#0F8E8B" fill-opacity="0.7">30m</text><text x="191.0" y="396" font-family="Inter, -apple-system, system-ui, sans-serif" font-size="16" font-weight="800" fill="#0F1B2A" text-anchor="middle">USGS 3DEP DEM</text><g transform="translate(112.5, 410)"><rect x="0" y="0" rx="11" ry="11" width="157" height="22" fill="#D5ECEC"/><text x="78.5" y="15.0" text-anchor="middle" font-family="ui-monospace, SFMono-Regular, Menlo, Consolas, monospace" font-size="12" font-weight="700" fill="#0F8E8B">gbx_rst_cog_convert</text></g><text x="191.0" y="458" text-anchor="middle" font-family="Inter, sans-serif" font-size="12" fill="#3F4D5E">StacClient fetches the SF elevation tile;</text><text x="191.0" y="474" text-anchor="middle" font-family="Inter, sans-serif" font-size="12" fill="#3F4D5E">gbx_rst_cog_convert writes COGs to a STAC</text><text x="191.0" y="490" text-anchor="middle" font-family="Inter, sans-serif" font-size="12" fill="#3F4D5E">Delta catalog</text>
<line x1="354" y1="320.0" x2="384" y2="320.0" stroke="#0F8E8B" stroke-width="2.5" stroke-linecap="round"/><polygon points="394,320.0 384,313.3333333333333 384,326.6666666666667" fill="#0F8E8B"/>
<rect x="402" y="160" rx="14" ry="14" width="310" height="380" fill="#FFFFFF" stroke="#E5E7EB" stroke-width="1" filter="url(#card-shadow)"/><path d="M 402 174 A 14 14 0 0 1 416 160 H 698 A 14 14 0 0 1 712 174 V 165 H 402 Z" fill="#0F8E8B"/><path d="M 492.0 239.0 H 544.0 L 554.0 225.0 H 622.0 V 329.0 Q 622.0 337.0 614.0 337.0 H 500.0 Q 492.0 337.0 492.0 329.0 Z" fill="#D5ECEC" stroke="#0F8E8B" stroke-width="2" stroke-linejoin="round"/><path d="M 521.0 249.0 H 538.0 L 545.0 256.0 V 279.0 H 521.0 Z" fill="#FFFFFF" stroke="#0F8E8B" stroke-width="1.4"/><path d="M 538.0 249.0 V 256.0 H 545.0" fill="none" stroke="#0F8E8B" stroke-width="1.2"/><text x="533.0" y="271.0" text-anchor="middle" font-family="ui-monospace, Menlo, monospace" font-size="8" font-weight="700" fill="#0F8E8B">.cog</text><path d="M 551.0 249.0 H 568.0 L 575.0 256.0 V 279.0 H 551.0 Z" fill="#FFFFFF" stroke="#0F8E8B" stroke-width="1.4"/><path d="M 568.0 249.0 V 256.0 H 575.0" fill="none" stroke="#0F8E8B" stroke-width="1.2"/><text x="563.0" y="271.0" text-anchor="middle" font-family="ui-monospace, Menlo, monospace" font-size="8" font-weight="700" fill="#0F8E8B">.cog</text><path d="M 581.0 249.0 H 598.0 L 605.0 256.0 V 279.0 H 581.0 Z" fill="#FFFFFF" stroke="#0F8E8B" stroke-width="1.4"/><path d="M 598.0 249.0 V 256.0 H 605.0" fill="none" stroke="#0F8E8B" stroke-width="1.2"/><text x="593.0" y="271.0" text-anchor="middle" font-family="ui-monospace, Menlo, monospace" font-size="8" font-weight="700" fill="#0F8E8B">.cog</text><text x="504.0" y="251.0" font-family="Inter, sans-serif" font-size="9" font-weight="700" fill="#0F8E8B">STAC Delta</text><text x="557.0" y="396" font-family="Inter, -apple-system, system-ui, sans-serif" font-size="16" font-weight="800" fill="#0F1B2A" text-anchor="middle">COG + STAC catalog</text><g transform="translate(510.0, 410)"><rect x="0" y="0" rx="11" ry="11" width="94" height="22" fill="#D5ECEC"/><text x="47.0" y="15.0" text-anchor="middle" font-family="ui-monospace, SFMono-Regular, Menlo, Consolas, monospace" font-size="12" font-weight="700" fill="#0F8E8B">StacClient</text></g><text x="557.0" y="458" text-anchor="middle" font-family="Inter, sans-serif" font-size="12" fill="#3F4D5E">COGs indexed in a queryable Delta table</text><text x="557.0" y="474" text-anchor="middle" font-family="Inter, sans-serif" font-size="12" fill="#3F4D5E">via StacClient — repeatable and auditable</text>
<line x1="720" y1="320.0" x2="750" y2="320.0" stroke="#0F8E8B" stroke-width="2.5" stroke-linecap="round"/><polygon points="760,320.0 750,313.3333333333333 750,326.6666666666667" fill="#0F8E8B"/>
<rect x="768" y="160" rx="14" ry="14" width="310" height="380" fill="#FFFFFF" stroke="#E5E7EB" stroke-width="1" filter="url(#card-shadow)"/><path d="M 768 174 A 14 14 0 0 1 782 160 H 1064 A 14 14 0 0 1 1078 174 V 165 H 768 Z" fill="#0F8E8B"/><rect x="867.0" y="224.0" width="112" height="112" fill="#D5ECEC" stroke="#0F8E8B" stroke-width="2"/><rect x="867.0" y="224.0" width="14" height="14" fill="#0F8E8B" fill-opacity="0.42"/><rect x="881.0" y="224.0" width="14" height="14" fill="#0F8E8B" fill-opacity="0.51"/><rect x="895.0" y="224.0" width="14" height="14" fill="#0F8E8B" fill-opacity="0.56"/><rect x="909.0" y="224.0" width="14" height="14" fill="#0F8E8B" fill-opacity="0.56"/><rect x="923.0" y="224.0" width="14" height="14" fill="#0F8E8B" fill-opacity="0.52"/><rect x="937.0" y="224.0" width="14" height="14" fill="#0F8E8B" fill-opacity="0.45"/><rect x="951.0" y="224.0" width="14" height="14" fill="#0F8E8B" fill-opacity="0.38"/><rect x="965.0" y="224.0" width="14" height="14" fill="#0F8E8B" fill-opacity="0.30"/><rect x="867.0" y="238.0" width="14" height="14" fill="#0F8E8B" fill-opacity="0.51"/><rect x="881.0" y="238.0" width="14" height="14" fill="#0F8E8B" fill-opacity="0.60"/><rect x="895.0" y="238.0" width="14" height="14" fill="#0F8E8B" fill-opacity="0.66"/><rect x="909.0" y="238.0" width="14" height="14" fill="#0F8E8B" fill-opacity="0.66"/><rect x="923.0" y="238.0" width="14" height="14" fill="#0F8E8B" fill-opacity="0.60"/><rect x="937.0" y="238.0" width="14" height="14" fill="#0F8E8B" fill-opacity="0.52"/><rect x="951.0" y="238.0" width="14" height="14" fill="#0F8E8B" fill-opacity="0.43"/><rect x="965.0" y="238.0" width="14" height="14" fill="#0F8E8B" fill-opacity="0.34"/><rect x="867.0" y="252.0" width="14" height="14" fill="#0F8E8B" fill-opacity="0.56"/><rect x="881.0" y="252.0" width="14" height="14" fill="#0F8E8B" fill-opacity="0.66"/><rect x="895.0" y="252.0" width="14" height="14" fill="#0F8E8B" fill-opacity="0.73"/><rect x="909.0" y="252.0" width="14" height="14" fill="#0F8E8B" fill-opacity="0.74"/><rect x="923.0" y="252.0" width="14" height="14" fill="#0F8E8B" fill-opacity="0.66"/><rect x="937.0" y="252.0" width="14" height="14" fill="#0F8E8B" fill-opacity="0.55"/><rect x="951.0" y="252.0" width="14" height="14" fill="#0F8E8B" fill-opacity="0.45"/><rect x="965.0" y="252.0" width="14" height="14" fill="#0F8E8B" fill-opacity="0.36"/><rect x="867.0" y="266.0" width="14" height="14" fill="#0F8E8B" fill-opacity="0.56"/><rect x="881.0" y="266.0" width="14" height="14" fill="#0F8E8B" fill-opacity="0.66"/><rect x="895.0" y="266.0" width="14" height="14" fill="#0F8E8B" fill-opacity="0.74"/><rect x="909.0" y="266.0" width="14" height="14" fill="#0F8E8B" fill-opacity="0.80"/><rect x="923.0" y="266.0" width="14" height="14" fill="#0F8E8B" fill-opacity="0.66"/><rect x="937.0" y="266.0" width="14" height="14" fill="#0F8E8B" fill-opacity="0.54"/><rect x="951.0" y="266.0" width="14" height="14" fill="#0F8E8B" fill-opacity="0.44"/><rect x="965.0" y="266.0" width="14" height="14" fill="#0F8E8B" fill-opacity="0.36"/><rect x="867.0" y="280.0" width="14" height="14" fill="#0F8E8B" fill-opacity="0.52"/><rect x="881.0" y="280.0" width="14" height="14" fill="#0F8E8B" fill-opacity="0.60"/><rect x="895.0" y="280.0" width="14" height="14" fill="#0F8E8B" fill-opacity="0.66"/><rect x="909.0" y="280.0" width="14" height="14" fill="#0F8E8B" fill-opacity="0.66"/><rect x="923.0" y="280.0" width="14" height="14" fill="#0F8E8B" fill-opacity="0.59"/><rect x="937.0" y="280.0" width="14" height="14" fill="#0F8E8B" fill-opacity="0.49"/><rect x="951.0" y="280.0" width="14" height="14" fill="#0F8E8B" fill-opacity="0.41"/><rect x="965.0" y="280.0" width="14" height="14" fill="#0F8E8B" fill-opacity="0.34"/><rect x="867.0" y="294.0" width="14" height="14" fill="#0F8E8B" fill-opacity="0.45"/><rect x="881.0" y="294.0" width="14" height="14" fill="#0F8E8B" fill-opacity="0.52"/><rect x="895.0" y="294.0" width="14" height="14" fill="#0F8E8B" fill-opacity="0.55"/><rect x="909.0" y="294.0" width="14" height="14" fill="#0F8E8B" fill-opacity="0.54"/><rect x="923.0" y="294.0" width="14" height="14" fill="#0F8E8B" fill-opacity="0.49"/><rect x="937.0" y="294.0" width="14" height="14" fill="#0F8E8B" fill-opacity="0.43"/><rect x="951.0" y="294.0" width="14" height="14" fill="#0F8E8B" fill-opacity="0.37"/><rect x="965.0" y="294.0" width="14" height="14" fill="#0F8E8B" fill-opacity="0.32"/><rect x="867.0" y="308.0" width="14" height="14" fill="#0F8E8B" fill-opacity="0.38"/><rect x="881.0" y="308.0" width="14" height="14" fill="#0F8E8B" fill-opacity="0.43"/><rect x="895.0" y="308.0" width="14" height="14" fill="#0F8E8B" fill-opacity="0.45"/><rect x="909.0" y="308.0" width="14" height="14" fill="#0F8E8B" fill-opacity="0.44"/><rect x="923.0" y="308.0" width="14" height="14" fill="#0F8E8B" fill-opacity="0.41"/><rect x="937.0" y="308.0" width="14" height="14" fill="#0F8E8B" fill-opacity="0.37"/><rect x="951.0" y="308.0" width="14" height="14" fill="#0F8E8B" fill-opacity="0.33"/><rect x="965.0" y="308.0" width="14" height="14" fill="#0F8E8B" fill-opacity="0.30"/><rect x="867.0" y="322.0" width="14" height="14" fill="#0F8E8B" fill-opacity="0.30"/><rect x="881.0" y="322.0" width="14" height="14" fill="#0F8E8B" fill-opacity="0.34"/><rect x="895.0" y="322.0" width="14" height="14" fill="#0F8E8B" fill-opacity="0.36"/><rect x="909.0" y="322.0" width="14" height="14" fill="#0F8E8B" fill-opacity="0.36"/><rect x="923.0" y="322.0" width="14" height="14" fill="#0F8E8B" fill-opacity="0.34"/><rect x="937.0" y="322.0" width="14" height="14" fill="#0F8E8B" fill-opacity="0.32"/><rect x="951.0" y="322.0" width="14" height="14" fill="#0F8E8B" fill-opacity="0.30"/><rect x="965.0" y="322.0" width="14" height="14" fill="#0F8E8B" fill-opacity="0.30"/><line x1="881.0" y1="224.0" x2="881.0" y2="336.0" stroke="#FFFFFF" stroke-width="0.8" stroke-opacity="0.4"/><line x1="867.0" y1="238.0" x2="979.0" y2="238.0" stroke="#FFFFFF" stroke-width="0.8" stroke-opacity="0.4"/><line x1="895.0" y1="224.0" x2="895.0" y2="336.0" stroke="#FFFFFF" stroke-width="0.8" stroke-opacity="0.4"/><line x1="867.0" y1="252.0" x2="979.0" y2="252.0" stroke="#FFFFFF" stroke-width="0.8" stroke-opacity="0.4"/><line x1="909.0" y1="224.0" x2="909.0" y2="336.0" stroke="#FFFFFF" stroke-width="0.8" stroke-opacity="0.4"/><line x1="867.0" y1="266.0" x2="979.0" y2="266.0" stroke="#FFFFFF" stroke-width="0.8" stroke-opacity="0.4"/><line x1="923.0" y1="224.0" x2="923.0" y2="336.0" stroke="#FFFFFF" stroke-width="0.8" stroke-opacity="0.4"/><line x1="867.0" y1="280.0" x2="979.0" y2="280.0" stroke="#FFFFFF" stroke-width="0.8" stroke-opacity="0.4"/><line x1="937.0" y1="224.0" x2="937.0" y2="336.0" stroke="#FFFFFF" stroke-width="0.8" stroke-opacity="0.4"/><line x1="867.0" y1="294.0" x2="979.0" y2="294.0" stroke="#FFFFFF" stroke-width="0.8" stroke-opacity="0.4"/><line x1="951.0" y1="224.0" x2="951.0" y2="336.0" stroke="#FFFFFF" stroke-width="0.8" stroke-opacity="0.4"/><line x1="867.0" y1="308.0" x2="979.0" y2="308.0" stroke="#FFFFFF" stroke-width="0.8" stroke-opacity="0.4"/><line x1="965.0" y1="224.0" x2="965.0" y2="336.0" stroke="#FFFFFF" stroke-width="0.8" stroke-opacity="0.4"/><line x1="867.0" y1="322.0" x2="979.0" y2="322.0" stroke="#FFFFFF" stroke-width="0.8" stroke-opacity="0.4"/><circle cx="851.0" cy="208.0" r="8" fill="#F5C242" stroke="#D4A01A" stroke-width="1.5"/><line x1="861.0" y1="208.0" x2="867.0" y2="208.0" stroke="#D4A01A" stroke-width="1.5" stroke-linecap="round"/><line x1="858.1" y1="215.1" x2="862.3" y2="219.3" stroke="#D4A01A" stroke-width="1.5" stroke-linecap="round"/><line x1="851.0" y1="218.0" x2="851.0" y2="224.0" stroke="#D4A01A" stroke-width="1.5" stroke-linecap="round"/><line x1="843.9" y1="215.1" x2="839.7" y2="219.3" stroke="#D4A01A" stroke-width="1.5" stroke-linecap="round"/><line x1="841.0" y1="208.0" x2="835.0" y2="208.0" stroke="#D4A01A" stroke-width="1.5" stroke-linecap="round"/><line x1="843.9" y1="200.9" x2="839.7" y2="196.7" stroke="#D4A01A" stroke-width="1.5" stroke-linecap="round"/><line x1="851.0" y1="198.0" x2="851.0" y2="192.0" stroke="#D4A01A" stroke-width="1.5" stroke-linecap="round"/><line x1="858.1" y1="200.9" x2="862.3" y2="196.7" stroke="#D4A01A" stroke-width="1.5" stroke-linecap="round"/><text x="923.0" y="396" font-family="Inter, -apple-system, system-ui, sans-serif" font-size="16" font-weight="800" fill="#0F1B2A" text-anchor="middle">Slope / hillshade</text><g transform="translate(855.0, 410)"><rect x="0" y="0" rx="11" ry="11" width="136" height="22" fill="#D5ECEC"/><text x="68.0" y="15.0" text-anchor="middle" font-family="ui-monospace, SFMono-Regular, Menlo, Consolas, monospace" font-size="12" font-weight="700" fill="#0F8E8B">rst_terrainslope</text></g><text x="923.0" y="458" text-anchor="middle" font-family="Inter, sans-serif" font-size="12" fill="#3F4D5E">rst_terrainslope + rst_hillshade derive</text><text x="923.0" y="474" text-anchor="middle" font-family="Inter, sans-serif" font-size="12" fill="#3F4D5E">solar-relevant terrain metrics per tile</text>
<line x1="1086" y1="320.0" x2="1116" y2="320.0" stroke="#0F8E8B" stroke-width="2.5" stroke-linecap="round"/><polygon points="1126,320.0 1116,313.3333333333333 1116,326.6666666666667" fill="#0F8E8B"/>
<rect x="1134" y="160" rx="14" ry="14" width="310" height="380" fill="#FFFFFF" stroke="#E5E7EB" stroke-width="1" filter="url(#card-shadow)"/><path d="M 1134 174 A 14 14 0 0 1 1148 160 H 1430 A 14 14 0 0 1 1444 174 V 165 H 1134 Z" fill="#0F8E8B"/><circle cx="1289.0" cy="256.0" r="36" fill="#D5ECEC" stroke="#0F8E8B" stroke-width="2.5"/><polygon points="1275.0,277.6 1303.0,277.6 1289.0,300.0" fill="#D5ECEC" stroke="#0F8E8B" stroke-width="2.5" stroke-linejoin="round"/><circle cx="1289.0" cy="256.0" r="13.7" fill="#0F8E8B"/><ellipse cx="1289.0" cy="308.0" rx="20" ry="6" fill="#0F8E8B" fill-opacity="0.18"/><text x="1289.0" y="396" font-family="Inter, -apple-system, system-ui, sans-serif" font-size="16" font-weight="800" fill="#0F1B2A" text-anchor="middle">PMTiles + COG view</text><g transform="translate(1196.5, 410)"><rect x="0" y="0" rx="11" ry="11" width="185" height="22" fill="#D5ECEC"/><text x="92.5" y="15.0" text-anchor="middle" font-family="ui-monospace, SFMono-Regular, Menlo, Consolas, monospace" font-size="12" font-weight="700" fill="#0F8E8B">plot_cog / plot_pmtiles</text></g><text x="1289.0" y="458" text-anchor="middle" font-family="Inter, sans-serif" font-size="12" fill="#3F4D5E">gbx_rst_xyzpyramid + gbx_pmtiles_agg</text><text x="1289.0" y="474" text-anchor="middle" font-family="Inter, sans-serif" font-size="12" fill="#3F4D5E">package results; plot_cog and plot_pmtiles</text><text x="1289.0" y="490" text-anchor="middle" font-family="Inter, sans-serif" font-size="12" fill="#3F4D5E">render inline</text>
<text x="36" y="650" font-family="Inter, -apple-system, system-ui, sans-serif" font-size="10" font-weight="700" fill="#7A8794" text-anchor="start" letter-spacing="1.6">KEY FUNCTIONS</text><rect x="166" y="640" rx="12" ry="12" width="157" height="24" fill="#D5ECEC"/><text x="244.5" y="656.0" text-anchor="middle" font-family="ui-monospace, SFMono-Regular, Menlo, Consolas, monospace" font-size="12" font-weight="700" fill="#0F8E8B">gbx_rst_cog_convert</text><rect x="331" y="640" rx="12" ry="12" width="94" height="24" fill="#D5ECEC"/><text x="378.0" y="656.0" text-anchor="middle" font-family="ui-monospace, SFMono-Regular, Menlo, Consolas, monospace" font-size="12" font-weight="700" fill="#0F8E8B">StacClient</text><rect x="433" y="640" rx="12" ry="12" width="136" height="24" fill="#D5ECEC"/><text x="501.0" y="656.0" text-anchor="middle" font-family="ui-monospace, SFMono-Regular, Menlo, Consolas, monospace" font-size="12" font-weight="700" fill="#0F8E8B">rst_terrainslope</text><rect x="577" y="640" rx="12" ry="12" width="115" height="24" fill="#D5ECEC"/><text x="634.5" y="656.0" text-anchor="middle" font-family="ui-monospace, SFMono-Regular, Menlo, Consolas, monospace" font-size="12" font-weight="700" fill="#0F8E8B">rst_hillshade</text><rect x="700" y="640" rx="12" ry="12" width="150" height="24" fill="#D5ECEC"/><text x="775.0" y="656.0" text-anchor="middle" font-family="ui-monospace, SFMono-Regular, Menlo, Consolas, monospace" font-size="12" font-weight="700" fill="#0F8E8B">gbx_rst_xyzpyramid</text><rect x="858" y="640" rx="12" ry="12" width="80" height="24" fill="#D5ECEC"/><text x="898.0" y="656.0" text-anchor="middle" font-family="ui-monospace, SFMono-Regular, Menlo, Consolas, monospace" font-size="12" font-weight="700" fill="#0F8E8B">plot_cog</text><rect x="946" y="640" rx="12" ry="12" width="108" height="24" fill="#D5ECEC"/><text x="1000.0" y="656.0" text-anchor="middle" font-family="ui-monospace, SFMono-Regular, Menlo, Consolas, monospace" font-size="12" font-weight="700" fill="#0F8E8B">plot_pmtiles</text><text x="1444" y="650" font-family="Inter, -apple-system, system-ui, sans-serif" font-size="11" font-weight="400" fill="#7A8794" text-anchor="end">databrickslabs/geobrix  ·  Overture Maps  ·  NAIP  ·  USGS 3DEP</text>
</svg>