<svg xmlns="http://www.w3.org/2000/svg" viewBox="0 0 1416 1064" width="1416" height="1064" style="font-family: Inter, -apple-system, system-ui, sans-serif;">
<defs>
  <filter id="card-shadow" x="-5%" y="-5%" width="110%" height="115%">
    <feDropShadow dx="0" dy="2" stdDeviation="6" flood-color="#0F1B2A" flood-opacity="0.08"/>
  </filter>
  <linearGradient id="bg" x1="0" y1="0" x2="0" y2="1">
    <stop offset="0" stop-color="#FAFBFC"/>
    <stop offset="1" stop-color="#F1F4F8"/>
  </linearGradient>
</defs>

<rect x="0" y="0" width="1416" height="1064" fill="url(#bg)"/>
<text x="36" y="64" font-size="30" font-weight="800" fill="#0F1B2A">GeoBrix · RasterX</text>
<text x="36" y="92" font-size="15" fill="#3F4D5E">65 SQL functions for raster data on Spark — registered as <tspan font-family="ui-monospace, SFMono-Regular, Menlo, monospace" font-weight="700" fill="#0F1B2A">gbx_rst_*</tspan> · also available in Python &amp; Scala as <tspan font-family="ui-monospace, SFMono-Regular, Menlo, monospace" font-weight="700" fill="#0F1B2A">rst_*</tspan></text>
<rect x="1254" y="44" rx="13" ry="13" width="126" height="26" fill="#0F1B2A"/><text x="1317.0" y="62" text-anchor="middle" font-size="12" font-weight="700" fill="#FFFFFF">v0.3.0  ·  Beta</text>
<rect x="36" y="146" rx="14" ry="14" width="660" height="136" fill="#FFFFFF" stroke="#E5E7EB" stroke-width="1" filter="url(#card-shadow)"/>
<path d="M 36 160 A 14 14 0 0 1 50 146 H 682 A 14 14 0 0 1 696 160 V 151 H 36 Z" fill="#E04E2A"/>
<rect x="617" y="172" rx="11" ry="11" width="57" height="22" fill="#E04E2A"/><text x="645.5" y="187.5" text-anchor="middle" font-family="Inter, -apple-system, system-ui, sans-serif" font-size="12" font-weight="700" fill="#FFFFFF">3 fns</text>
<text x="58" y="186" font-family="Inter, -apple-system, system-ui, sans-serif" font-size="20" font-weight="800" fill="#1B3139">Constructors</text>
<text x="58" y="206" font-family="Inter, -apple-system, system-ui, sans-serif" font-size="12" fill="#5A6878">Load rasters from path, bytes, or bands</text>
<rect x="58.0" y="228.0" rx="13" ry="13" width="120" height="28" fill="#FCE9E2" stroke="#E04E2A" stroke-opacity="0.35" stroke-width="1"/><text x="118.0" y="246.0" text-anchor="middle" font-family="ui-monospace, SFMono-Regular, Menlo, Consolas, monospace" font-size="13" fill="#E04E2A" font-weight="600">rst_fromfile</text>
<rect x="186.0" y="228.0" rx="13" ry="13" width="144" height="28" fill="#FCE9E2" stroke="#E04E2A" stroke-opacity="0.35" stroke-width="1"/><text x="258.0" y="246.0" text-anchor="middle" font-family="ui-monospace, SFMono-Regular, Menlo, Consolas, monospace" font-size="13" fill="#E04E2A" font-weight="600">rst_fromcontent</text>
<rect x="338.0" y="228.0" rx="13" ry="13" width="128" height="28" fill="#FCE9E2" stroke="#E04E2A" stroke-opacity="0.35" stroke-width="1"/><text x="402.0" y="246.0" text-anchor="middle" font-family="ui-monospace, SFMono-Regular, Menlo, Consolas, monospace" font-size="13" fill="#E04E2A" font-weight="600">rst_frombands</text>
<rect x="36" y="304" rx="14" ry="14" width="660" height="494" fill="#FFFFFF" stroke="#E5E7EB" stroke-width="1" filter="url(#card-shadow)"/>
<path d="M 36 318 A 14 14 0 0 1 50 304 H 682 A 14 14 0 0 1 696 318 V 309 H 36 Z" fill="#1F6FB5"/>
<rect x="610" y="330" rx="11" ry="11" width="64" height="22" fill="#1F6FB5"/><text x="642.0" y="345.5" text-anchor="middle" font-family="Inter, -apple-system, system-ui, sans-serif" font-size="12" font-weight="700" fill="#FFFFFF">29 fns</text>
<text x="58" y="344" font-family="Inter, -apple-system, system-ui, sans-serif" font-size="20" font-weight="800" fill="#1B3139">Accessors</text>
<text x="58" y="364" font-family="Inter, -apple-system, system-ui, sans-serif" font-size="12" fill="#5A6878">Read raster metadata, geometry, dimensions, statistics</text>
<text x="58" y="400" font-family="Inter, -apple-system, system-ui, sans-serif" font-size="11" font-weight="700" fill="#7A8794" letter-spacing="1.2">GEO &amp; EXTENT</text>
<rect x="58.0" y="408.0" rx="13" ry="13" width="144" height="28" fill="#E3EEF8" stroke="#1F6FB5" stroke-opacity="0.35" stroke-width="1"/><text x="130.0" y="426.0" text-anchor="middle" font-family="ui-monospace, SFMono-Regular, Menlo, Consolas, monospace" font-size="13" fill="#1F6FB5" font-weight="600">rst_boundingbox</text>
<rect x="210.0" y="408.0" rx="13" ry="13" width="88" height="28" fill="#E3EEF8" stroke="#1F6FB5" stroke-opacity="0.35" stroke-width="1"/><text x="254.0" y="426.0" text-anchor="middle" font-family="ui-monospace, SFMono-Regular, Menlo, Consolas, monospace" font-size="13" fill="#1F6FB5" font-weight="600">rst_srid</text>
<rect x="306.0" y="408.0" rx="13" ry="13" width="152" height="28" fill="#E3EEF8" stroke="#1F6FB5" stroke-opacity="0.35" stroke-width="1"/><text x="382.0" y="426.0" text-anchor="middle" font-family="ui-monospace, SFMono-Regular, Menlo, Consolas, monospace" font-size="13" fill="#1F6FB5" font-weight="600">rst_georeference</text>
<rect x="466.0" y="408.0" rx="13" ry="13" width="136" height="28" fill="#E3EEF8" stroke="#1F6FB5" stroke-opacity="0.35" stroke-width="1"/><text x="534.0" y="426.0" text-anchor="middle" font-family="ui-monospace, SFMono-Regular, Menlo, Consolas, monospace" font-size="13" fill="#1F6FB5" font-weight="600">rst_upperleftx</text>
<rect x="58.0" y="444.0" rx="13" ry="13" width="136" height="28" fill="#E3EEF8" stroke="#1F6FB5" stroke-opacity="0.35" stroke-width="1"/><text x="126.0" y="462.0" text-anchor="middle" font-family="ui-monospace, SFMono-Regular, Menlo, Consolas, monospace" font-size="13" fill="#1F6FB5" font-weight="600">rst_upperlefty</text>
<rect x="202.0" y="444.0" rx="13" ry="13" width="104" height="28" fill="#E3EEF8" stroke="#1F6FB5" stroke-opacity="0.35" stroke-width="1"/><text x="254.0" y="462.0" text-anchor="middle" font-family="ui-monospace, SFMono-Regular, Menlo, Consolas, monospace" font-size="13" fill="#1F6FB5" font-weight="600">rst_scalex</text>
<rect x="314.0" y="444.0" rx="13" ry="13" width="104" height="28" fill="#E3EEF8" stroke="#1F6FB5" stroke-opacity="0.35" stroke-width="1"/><text x="366.0" y="462.0" text-anchor="middle" font-family="ui-monospace, SFMono-Regular, Menlo, Consolas, monospace" font-size="13" fill="#1F6FB5" font-weight="600">rst_scaley</text>
<rect x="426.0" y="444.0" rx="13" ry="13" width="96" height="28" fill="#E3EEF8" stroke="#1F6FB5" stroke-opacity="0.35" stroke-width="1"/><text x="474.0" y="462.0" text-anchor="middle" font-family="ui-monospace, SFMono-Regular, Menlo, Consolas, monospace" font-size="13" fill="#1F6FB5" font-weight="600">rst_skewx</text>
<rect x="530.0" y="444.0" rx="13" ry="13" width="96" height="28" fill="#E3EEF8" stroke="#1F6FB5" stroke-opacity="0.35" stroke-width="1"/><text x="578.0" y="462.0" text-anchor="middle" font-family="ui-monospace, SFMono-Regular, Menlo, Consolas, monospace" font-size="13" fill="#1F6FB5" font-weight="600">rst_skewy</text>
<rect x="58.0" y="480.0" rx="13" ry="13" width="120" height="28" fill="#E3EEF8" stroke="#1F6FB5" stroke-opacity="0.35" stroke-width="1"/><text x="118.0" y="498.0" text-anchor="middle" font-family="ui-monospace, SFMono-Regular, Menlo, Consolas, monospace" font-size="13" fill="#1F6FB5" font-weight="600">rst_rotation</text>
<text x="58" y="536" font-family="Inter, -apple-system, system-ui, sans-serif" font-size="11" font-weight="700" fill="#7A8794" letter-spacing="1.2">DIMENSIONS</text>
<rect x="58.0" y="544.0" rx="13" ry="13" width="96" height="28" fill="#E3EEF8" stroke="#1F6FB5" stroke-opacity="0.35" stroke-width="1"/><text x="106.0" y="562.0" text-anchor="middle" font-family="ui-monospace, SFMono-Regular, Menlo, Consolas, monospace" font-size="13" fill="#1F6FB5" font-weight="600">rst_width</text>
<rect x="162.0" y="544.0" rx="13" ry="13" width="104" height="28" fill="#E3EEF8" stroke="#1F6FB5" stroke-opacity="0.35" stroke-width="1"/><text x="214.0" y="562.0" text-anchor="middle" font-family="ui-monospace, SFMono-Regular, Menlo, Consolas, monospace" font-size="13" fill="#1F6FB5" font-weight="600">rst_height</text>
<rect x="274.0" y="544.0" rx="13" ry="13" width="136" height="28" fill="#E3EEF8" stroke="#1F6FB5" stroke-opacity="0.35" stroke-width="1"/><text x="342.0" y="562.0" text-anchor="middle" font-family="ui-monospace, SFMono-Regular, Menlo, Consolas, monospace" font-size="13" fill="#1F6FB5" font-weight="600">rst_pixelwidth</text>
<rect x="418.0" y="544.0" rx="13" ry="13" width="144" height="28" fill="#E3EEF8" stroke="#1F6FB5" stroke-opacity="0.35" stroke-width="1"/><text x="490.0" y="562.0" text-anchor="middle" font-family="ui-monospace, SFMono-Regular, Menlo, Consolas, monospace" font-size="13" fill="#1F6FB5" font-weight="600">rst_pixelheight</text>
<rect x="58.0" y="580.0" rx="13" ry="13" width="136" height="28" fill="#E3EEF8" stroke="#1F6FB5" stroke-opacity="0.35" stroke-width="1"/><text x="126.0" y="598.0" text-anchor="middle" font-family="ui-monospace, SFMono-Regular, Menlo, Consolas, monospace" font-size="13" fill="#1F6FB5" font-weight="600">rst_pixelcount</text>
<rect x="202.0" y="580.0" rx="13" ry="13" width="112" height="28" fill="#E3EEF8" stroke="#1F6FB5" stroke-opacity="0.35" stroke-width="1"/><text x="258.0" y="598.0" text-anchor="middle" font-family="ui-monospace, SFMono-Regular, Menlo, Consolas, monospace" font-size="13" fill="#1F6FB5" font-weight="600">rst_memsize</text>
<text x="58" y="636" font-family="Inter, -apple-system, system-ui, sans-serif" font-size="11" font-weight="700" fill="#7A8794" letter-spacing="1.2">BANDS &amp; TYPES</text>
<rect x="58.0" y="644.0" rx="13" ry="13" width="120" height="28" fill="#E3EEF8" stroke="#1F6FB5" stroke-opacity="0.35" stroke-width="1"/><text x="118.0" y="662.0" text-anchor="middle" font-family="ui-monospace, SFMono-Regular, Menlo, Consolas, monospace" font-size="13" fill="#1F6FB5" font-weight="600">rst_numbands</text>
<rect x="186.0" y="644.0" rx="13" ry="13" width="152" height="28" fill="#E3EEF8" stroke="#1F6FB5" stroke-opacity="0.35" stroke-width="1"/><text x="262.0" y="662.0" text-anchor="middle" font-family="ui-monospace, SFMono-Regular, Menlo, Consolas, monospace" font-size="13" fill="#1F6FB5" font-weight="600">rst_bandmetadata</text>
<rect x="346.0" y="644.0" rx="13" ry="13" width="88" height="28" fill="#E3EEF8" stroke="#1F6FB5" stroke-opacity="0.35" stroke-width="1"/><text x="390.0" y="662.0" text-anchor="middle" font-family="ui-monospace, SFMono-Regular, Menlo, Consolas, monospace" font-size="13" fill="#1F6FB5" font-weight="600">rst_type</text>
<rect x="442.0" y="644.0" rx="13" ry="13" width="128" height="28" fill="#E3EEF8" stroke="#1F6FB5" stroke-opacity="0.35" stroke-width="1"/><text x="506.0" y="662.0" text-anchor="middle" font-family="ui-monospace, SFMono-Regular, Menlo, Consolas, monospace" font-size="13" fill="#1F6FB5" font-weight="600">rst_getnodata</text>
<rect x="58.0" y="680.0" rx="13" ry="13" width="144" height="28" fill="#E3EEF8" stroke="#1F6FB5" stroke-opacity="0.35" stroke-width="1"/><text x="130.0" y="698.0" text-anchor="middle" font-family="ui-monospace, SFMono-Regular, Menlo, Consolas, monospace" font-size="13" fill="#1F6FB5" font-weight="600">rst_subdatasets</text>
<rect x="210.0" y="680.0" rx="13" ry="13" width="160" height="28" fill="#E3EEF8" stroke="#1F6FB5" stroke-opacity="0.35" stroke-width="1"/><text x="290.0" y="698.0" text-anchor="middle" font-family="ui-monospace, SFMono-Regular, Menlo, Consolas, monospace" font-size="13" fill="#1F6FB5" font-weight="600">rst_getsubdataset</text>
<rect x="378.0" y="680.0" rx="13" ry="13" width="104" height="28" fill="#E3EEF8" stroke="#1F6FB5" stroke-opacity="0.35" stroke-width="1"/><text x="430.0" y="698.0" text-anchor="middle" font-family="ui-monospace, SFMono-Regular, Menlo, Consolas, monospace" font-size="13" fill="#1F6FB5" font-weight="600">rst_format</text>
<rect x="490.0" y="680.0" rx="13" ry="13" width="120" height="28" fill="#E3EEF8" stroke="#1F6FB5" stroke-opacity="0.35" stroke-width="1"/><text x="550.0" y="698.0" text-anchor="middle" font-family="ui-monospace, SFMono-Regular, Menlo, Consolas, monospace" font-size="13" fill="#1F6FB5" font-weight="600">rst_metadata</text>
<text x="58" y="736" font-family="Inter, -apple-system, system-ui, sans-serif" font-size="11" font-weight="700" fill="#7A8794" letter-spacing="1.2">STATISTICS</text>
<rect x="58.0" y="744.0" rx="13" ry="13" width="80" height="28" fill="#E3EEF8" stroke="#1F6FB5" stroke-opacity="0.35" stroke-width="1"/><text x="98.0" y="762.0" text-anchor="middle" font-family="ui-monospace, SFMono-Regular, Menlo, Consolas, monospace" font-size="13" fill="#1F6FB5" font-weight="600">rst_min</text>
<rect x="146.0" y="744.0" rx="13" ry="13" width="80" height="28" fill="#E3EEF8" stroke="#1F6FB5" stroke-opacity="0.35" stroke-width="1"/><text x="186.0" y="762.0" text-anchor="middle" font-family="ui-monospace, SFMono-Regular, Menlo, Consolas, monospace" font-size="13" fill="#1F6FB5" font-weight="600">rst_max</text>
<rect x="234.0" y="744.0" rx="13" ry="13" width="80" height="28" fill="#E3EEF8" stroke="#1F6FB5" stroke-opacity="0.35" stroke-width="1"/><text x="274.0" y="762.0" text-anchor="middle" font-family="ui-monospace, SFMono-Regular, Menlo, Consolas, monospace" font-size="13" fill="#1F6FB5" font-weight="600">rst_avg</text>
<rect x="322.0" y="744.0" rx="13" ry="13" width="104" height="28" fill="#E3EEF8" stroke="#1F6FB5" stroke-opacity="0.35" stroke-width="1"/><text x="374.0" y="762.0" text-anchor="middle" font-family="ui-monospace, SFMono-Regular, Menlo, Consolas, monospace" font-size="13" fill="#1F6FB5" font-weight="600">rst_median</text>
<rect x="434.0" y="744.0" rx="13" ry="13" width="112" height="28" fill="#E3EEF8" stroke="#1F6FB5" stroke-opacity="0.35" stroke-width="1"/><text x="490.0" y="762.0" text-anchor="middle" font-family="ui-monospace, SFMono-Regular, Menlo, Consolas, monospace" font-size="13" fill="#1F6FB5" font-weight="600">rst_summary</text>
<rect x="36" y="820" rx="14" ry="14" width="660" height="136" fill="#FFFFFF" stroke="#E5E7EB" stroke-width="1" filter="url(#card-shadow)"/>
<path d="M 36 834 A 14 14 0 0 1 50 820 H 682 A 14 14 0 0 1 696 834 V 825 H 36 Z" fill="#7A4FD3"/>
<rect x="617" y="846" rx="11" ry="11" width="57" height="22" fill="#7A4FD3"/><text x="645.5" y="861.5" text-anchor="middle" font-family="Inter, -apple-system, system-ui, sans-serif" font-size="12" font-weight="700" fill="#FFFFFF">3 fns</text>
<text x="58" y="860" font-family="Inter, -apple-system, system-ui, sans-serif" font-size="20" font-weight="800" fill="#1B3139">Aggregators</text>
<text x="58" y="880" font-family="Inter, -apple-system, system-ui, sans-serif" font-size="12" fill="#5A6878">Combine tiles in GROUP BY</text>
<rect x="58.0" y="902.0" rx="13" ry="13" width="168" height="28" fill="#ECE6FA" stroke="#7A4FD3" stroke-opacity="0.35" stroke-width="1"/><text x="142.0" y="920.0" text-anchor="middle" font-family="ui-monospace, SFMono-Regular, Menlo, Consolas, monospace" font-size="13" fill="#7A4FD3" font-weight="600">rst_combineavg_agg</text>
<rect x="234.0" y="902.0" rx="13" ry="13" width="176" height="28" fill="#ECE6FA" stroke="#7A4FD3" stroke-opacity="0.35" stroke-width="1"/><text x="322.0" y="920.0" text-anchor="middle" font-family="ui-monospace, SFMono-Regular, Menlo, Consolas, monospace" font-size="13" fill="#7A4FD3" font-weight="600">rst_derivedband_agg</text>
<rect x="418.0" y="902.0" rx="13" ry="13" width="128" height="28" fill="#ECE6FA" stroke="#7A4FD3" stroke-opacity="0.35" stroke-width="1"/><text x="482.0" y="920.0" text-anchor="middle" font-family="ui-monospace, SFMono-Regular, Menlo, Consolas, monospace" font-size="13" fill="#7A4FD3" font-weight="600">rst_merge_agg</text>
<rect x="720" y="146" rx="14" ry="14" width="660" height="172" fill="#FFFFFF" stroke="#E5E7EB" stroke-width="1" filter="url(#card-shadow)"/>
<path d="M 720 160 A 14 14 0 0 1 734 146 H 1366 A 14 14 0 0 1 1380 160 V 151 H 720 Z" fill="#D49213"/>
<rect x="1301" y="172" rx="11" ry="11" width="57" height="22" fill="#D49213"/><text x="1329.5" y="187.5" text-anchor="middle" font-family="Inter, -apple-system, system-ui, sans-serif" font-size="12" font-weight="700" fill="#FFFFFF">5 fns</text>
<text x="742" y="186" font-family="Inter, -apple-system, system-ui, sans-serif" font-size="20" font-weight="800" fill="#1B3139">Generators</text>
<text x="742" y="206" font-family="Inter, -apple-system, system-ui, sans-serif" font-size="12" fill="#5A6878">Explode a tile into many tiles or bands</text>
<rect x="742.0" y="228.0" rx="13" ry="13" width="128" height="28" fill="#FBEED1" stroke="#D49213" stroke-opacity="0.35" stroke-width="1"/><text x="806.0" y="246.0" text-anchor="middle" font-family="ui-monospace, SFMono-Regular, Menlo, Consolas, monospace" font-size="13" fill="#D49213" font-weight="600">rst_maketiles</text>
<rect x="878.0" y="228.0" rx="13" ry="13" width="104" height="28" fill="#FBEED1" stroke="#D49213" stroke-opacity="0.35" stroke-width="1"/><text x="930.0" y="246.0" text-anchor="middle" font-family="ui-monospace, SFMono-Regular, Menlo, Consolas, monospace" font-size="13" fill="#D49213" font-weight="600">rst_retile</text>
<rect x="990.0" y="228.0" rx="13" ry="13" width="200" height="28" fill="#FBEED1" stroke="#D49213" stroke-opacity="0.35" stroke-width="1"/><text x="1090.0" y="246.0" text-anchor="middle" font-family="ui-monospace, SFMono-Regular, Menlo, Consolas, monospace" font-size="13" fill="#D49213" font-weight="600">rst_tooverlappingtiles</text>
<rect x="1198.0" y="228.0" rx="13" ry="13" width="160" height="28" fill="#FBEED1" stroke="#D49213" stroke-opacity="0.35" stroke-width="1"/><text x="1278.0" y="246.0" text-anchor="middle" font-family="ui-monospace, SFMono-Regular, Menlo, Consolas, monospace" font-size="13" fill="#D49213" font-weight="600">rst_separatebands</text>
<rect x="742.0" y="264.0" rx="13" ry="13" width="160" height="28" fill="#FBEED1" stroke="#D49213" stroke-opacity="0.35" stroke-width="1"/><text x="822.0" y="282.0" text-anchor="middle" font-family="ui-monospace, SFMono-Regular, Menlo, Consolas, monospace" font-size="13" fill="#D49213" font-weight="600">rst_h3_tessellate</text>
<rect x="720" y="340" rx="14" ry="14" width="660" height="458" fill="#FFFFFF" stroke="#E5E7EB" stroke-width="1" filter="url(#card-shadow)"/>
<path d="M 720 354 A 14 14 0 0 1 734 340 H 1366 A 14 14 0 0 1 1380 354 V 345 H 720 Z" fill="#1F8F5A"/>
<rect x="1294" y="366" rx="11" ry="11" width="64" height="22" fill="#1F8F5A"/><text x="1326.0" y="381.5" text-anchor="middle" font-family="Inter, -apple-system, system-ui, sans-serif" font-size="12" font-weight="700" fill="#FFFFFF">20 fns</text>
<text x="742" y="380" font-family="Inter, -apple-system, system-ui, sans-serif" font-size="20" font-weight="800" fill="#1B3139">Operations</text>
<text x="742" y="400" font-family="Inter, -apple-system, system-ui, sans-serif" font-size="12" fill="#5A6878">Transform pixels, geometry, format, and coordinates</text>
<text x="742" y="436" font-family="Inter, -apple-system, system-ui, sans-serif" font-size="11" font-weight="700" fill="#7A8794" letter-spacing="1.2">TRANSFORM</text>
<rect x="742.0" y="444.0" rx="13" ry="13" width="88" height="28" fill="#DDF1E6" stroke="#1F8F5A" stroke-opacity="0.35" stroke-width="1"/><text x="786.0" y="462.0" text-anchor="middle" font-family="ui-monospace, SFMono-Regular, Menlo, Consolas, monospace" font-size="13" fill="#1F8F5A" font-weight="600">rst_clip</text>
<rect x="838.0" y="444.0" rx="13" ry="13" width="128" height="28" fill="#DDF1E6" stroke="#1F8F5A" stroke-opacity="0.35" stroke-width="1"/><text x="902.0" y="462.0" text-anchor="middle" font-family="ui-monospace, SFMono-Regular, Menlo, Consolas, monospace" font-size="13" fill="#1F8F5A" font-weight="600">rst_transform</text>
<rect x="974.0" y="444.0" rx="13" ry="13" width="96" height="28" fill="#DDF1E6" stroke="#1F8F5A" stroke-opacity="0.35" stroke-width="1"/><text x="1022.0" y="462.0" text-anchor="middle" font-family="ui-monospace, SFMono-Regular, Menlo, Consolas, monospace" font-size="13" fill="#1F8F5A" font-weight="600">rst_merge</text>
<rect x="1078.0" y="444.0" rx="13" ry="13" width="120" height="28" fill="#DDF1E6" stroke="#1F8F5A" stroke-opacity="0.35" stroke-width="1"/><text x="1138.0" y="462.0" text-anchor="middle" font-family="ui-monospace, SFMono-Regular, Menlo, Consolas, monospace" font-size="13" fill="#1F8F5A" font-weight="600">rst_asformat</text>
<rect x="1206.0" y="444.0" rx="13" ry="13" width="136" height="28" fill="#DDF1E6" stroke="#1F8F5A" stroke-opacity="0.35" stroke-width="1"/><text x="1274.0" y="462.0" text-anchor="middle" font-family="ui-monospace, SFMono-Regular, Menlo, Consolas, monospace" font-size="13" fill="#1F8F5A" font-weight="600">rst_updatetype</text>
<text x="742" y="500" font-family="Inter, -apple-system, system-ui, sans-serif" font-size="11" font-weight="700" fill="#7A8794" letter-spacing="1.2">COMPUTE</text>
<rect x="742.0" y="508.0" rx="13" ry="13" width="88" height="28" fill="#DDF1E6" stroke="#1F8F5A" stroke-opacity="0.35" stroke-width="1"/><text x="786.0" y="526.0" text-anchor="middle" font-family="ui-monospace, SFMono-Regular, Menlo, Consolas, monospace" font-size="13" fill="#1F8F5A" font-weight="600">rst_ndvi</text>
<rect x="838.0" y="508.0" rx="13" ry="13" width="104" height="28" fill="#DDF1E6" stroke="#1F8F5A" stroke-opacity="0.35" stroke-width="1"/><text x="890.0" y="526.0" text-anchor="middle" font-family="ui-monospace, SFMono-Regular, Menlo, Consolas, monospace" font-size="13" fill="#1F8F5A" font-weight="600">rst_filter</text>
<rect x="950.0" y="508.0" rx="13" ry="13" width="120" height="28" fill="#DDF1E6" stroke="#1F8F5A" stroke-opacity="0.35" stroke-width="1"/><text x="1010.0" y="526.0" text-anchor="middle" font-family="ui-monospace, SFMono-Regular, Menlo, Consolas, monospace" font-size="13" fill="#1F8F5A" font-weight="600">rst_convolve</text>
<rect x="1078.0" y="508.0" rx="13" ry="13" width="136" height="28" fill="#DDF1E6" stroke="#1F8F5A" stroke-opacity="0.35" stroke-width="1"/><text x="1146.0" y="526.0" text-anchor="middle" font-family="ui-monospace, SFMono-Regular, Menlo, Consolas, monospace" font-size="13" fill="#1F8F5A" font-weight="600">rst_mapalgebra</text>
<rect x="1222.0" y="508.0" rx="13" ry="13" width="136" height="28" fill="#DDF1E6" stroke="#1F8F5A" stroke-opacity="0.35" stroke-width="1"/><text x="1290.0" y="526.0" text-anchor="middle" font-family="ui-monospace, SFMono-Regular, Menlo, Consolas, monospace" font-size="13" fill="#1F8F5A" font-weight="600">rst_combineavg</text>
<rect x="742.0" y="544.0" rx="13" ry="13" width="144" height="28" fill="#DDF1E6" stroke="#1F8F5A" stroke-opacity="0.35" stroke-width="1"/><text x="814.0" y="562.0" text-anchor="middle" font-family="ui-monospace, SFMono-Regular, Menlo, Consolas, monospace" font-size="13" fill="#1F8F5A" font-weight="600">rst_derivedband</text>
<rect x="894.0" y="544.0" rx="13" ry="13" width="136" height="28" fill="#DDF1E6" stroke="#1F8F5A" stroke-opacity="0.35" stroke-width="1"/><text x="962.0" y="562.0" text-anchor="middle" font-family="ui-monospace, SFMono-Regular, Menlo, Consolas, monospace" font-size="13" fill="#1F8F5A" font-weight="600">rst_initnodata</text>
<text x="742" y="600" font-family="Inter, -apple-system, system-ui, sans-serif" font-size="11" font-weight="700" fill="#7A8794" letter-spacing="1.2">COORDINATES</text>
<rect x="742.0" y="608.0" rx="13" ry="13" width="200" height="28" fill="#DDF1E6" stroke="#1F8F5A" stroke-opacity="0.35" stroke-width="1"/><text x="842.0" y="626.0" text-anchor="middle" font-family="ui-monospace, SFMono-Regular, Menlo, Consolas, monospace" font-size="13" fill="#1F8F5A" font-weight="600">rst_rastertoworldcoord</text>
<rect x="950.0" y="608.0" rx="13" ry="13" width="208" height="28" fill="#DDF1E6" stroke="#1F8F5A" stroke-opacity="0.35" stroke-width="1"/><text x="1054.0" y="626.0" text-anchor="middle" font-family="ui-monospace, SFMono-Regular, Menlo, Consolas, monospace" font-size="13" fill="#1F8F5A" font-weight="600">rst_rastertoworldcoordx</text>
<rect x="742.0" y="644.0" rx="13" ry="13" width="208" height="28" fill="#DDF1E6" stroke="#1F8F5A" stroke-opacity="0.35" stroke-width="1"/><text x="846.0" y="662.0" text-anchor="middle" font-family="ui-monospace, SFMono-Regular, Menlo, Consolas, monospace" font-size="13" fill="#1F8F5A" font-weight="600">rst_rastertoworldcoordy</text>
<rect x="958.0" y="644.0" rx="13" ry="13" width="200" height="28" fill="#DDF1E6" stroke="#1F8F5A" stroke-opacity="0.35" stroke-width="1"/><text x="1058.0" y="662.0" text-anchor="middle" font-family="ui-monospace, SFMono-Regular, Menlo, Consolas, monospace" font-size="13" fill="#1F8F5A" font-weight="600">rst_worldtorastercoord</text>
<rect x="742.0" y="680.0" rx="13" ry="13" width="208" height="28" fill="#DDF1E6" stroke="#1F8F5A" stroke-opacity="0.35" stroke-width="1"/><text x="846.0" y="698.0" text-anchor="middle" font-family="ui-monospace, SFMono-Regular, Menlo, Consolas, monospace" font-size="13" fill="#1F8F5A" font-weight="600">rst_worldtorastercoordx</text>
<rect x="958.0" y="680.0" rx="13" ry="13" width="208" height="28" fill="#DDF1E6" stroke="#1F8F5A" stroke-opacity="0.35" stroke-width="1"/><text x="1062.0" y="698.0" text-anchor="middle" font-family="ui-monospace, SFMono-Regular, Menlo, Consolas, monospace" font-size="13" fill="#1F8F5A" font-weight="600">rst_worldtorastercoordy</text>
<text x="742" y="736" font-family="Inter, -apple-system, system-ui, sans-serif" font-size="11" font-weight="700" fill="#7A8794" letter-spacing="1.2">VALIDITY</text>
<rect x="742.0" y="744.0" rx="13" ry="13" width="112" height="28" fill="#DDF1E6" stroke="#1F8F5A" stroke-opacity="0.35" stroke-width="1"/><text x="798.0" y="762.0" text-anchor="middle" font-family="ui-monospace, SFMono-Regular, Menlo, Consolas, monospace" font-size="13" fill="#1F8F5A" font-weight="600">rst_isempty</text>
<rect x="862.0" y="744.0" rx="13" ry="13" width="112" height="28" fill="#DDF1E6" stroke="#1F8F5A" stroke-opacity="0.35" stroke-width="1"/><text x="918.0" y="762.0" text-anchor="middle" font-family="ui-monospace, SFMono-Regular, Menlo, Consolas, monospace" font-size="13" fill="#1F8F5A" font-weight="600">rst_tryopen</text>
<rect x="720" y="820" rx="14" ry="14" width="660" height="208" fill="#FFFFFF" stroke="#E5E7EB" stroke-width="1" filter="url(#card-shadow)"/>
<path d="M 720 834 A 14 14 0 0 1 734 820 H 1366 A 14 14 0 0 1 1380 834 V 825 H 720 Z" fill="#0F8E8B"/>
<rect x="1301" y="846" rx="11" ry="11" width="57" height="22" fill="#0F8E8B"/><text x="1329.5" y="861.5" text-anchor="middle" font-family="Inter, -apple-system, system-ui, sans-serif" font-size="12" font-weight="700" fill="#FFFFFF">5 fns</text>
<text x="742" y="860" font-family="Inter, -apple-system, system-ui, sans-serif" font-size="20" font-weight="800" fill="#1B3139">H3 Grid</text>
<text x="742" y="880" font-family="Inter, -apple-system, system-ui, sans-serif" font-size="12" fill="#5A6878">Aggregate raster values onto H3 cells</text>
<rect x="742.0" y="902.0" rx="13" ry="13" width="200" height="28" fill="#D5ECEC" stroke="#0F8E8B" stroke-opacity="0.35" stroke-width="1"/><text x="842.0" y="920.0" text-anchor="middle" font-family="ui-monospace, SFMono-Regular, Menlo, Consolas, monospace" font-size="13" fill="#0F8E8B" font-weight="600">rst_h3_rastertogridavg</text>
<rect x="950.0" y="902.0" rx="13" ry="13" width="216" height="28" fill="#D5ECEC" stroke="#0F8E8B" stroke-opacity="0.35" stroke-width="1"/><text x="1058.0" y="920.0" text-anchor="middle" font-family="ui-monospace, SFMono-Regular, Menlo, Consolas, monospace" font-size="13" fill="#0F8E8B" font-weight="600">rst_h3_rastertogridcount</text>
<rect x="742.0" y="938.0" rx="13" ry="13" width="200" height="28" fill="#D5ECEC" stroke="#0F8E8B" stroke-opacity="0.35" stroke-width="1"/><text x="842.0" y="956.0" text-anchor="middle" font-family="ui-monospace, SFMono-Regular, Menlo, Consolas, monospace" font-size="13" fill="#0F8E8B" font-weight="600">rst_h3_rastertogridmax</text>
<rect x="950.0" y="938.0" rx="13" ry="13" width="200" height="28" fill="#D5ECEC" stroke="#0F8E8B" stroke-opacity="0.35" stroke-width="1"/><text x="1050.0" y="956.0" text-anchor="middle" font-family="ui-monospace, SFMono-Regular, Menlo, Consolas, monospace" font-size="13" fill="#0F8E8B" font-weight="600">rst_h3_rastertogridmin</text>
<rect x="742.0" y="974.0" rx="13" ry="13" width="224" height="28" fill="#D5ECEC" stroke="#0F8E8B" stroke-opacity="0.35" stroke-width="1"/><text x="854.0" y="992.0" text-anchor="middle" font-family="ui-monospace, SFMono-Regular, Menlo, Consolas, monospace" font-size="13" fill="#0F8E8B" font-weight="600">rst_h3_rastertogridmedian</text>
<text x="36" y="1050" font-size="11" fill="#7A8794">databrickslabs/geobrix · DBR 17.3 LTS · Scala 2.13 / Spark 4.0 / Python 3.12</text>
<text x="1380" y="1050" text-anchor="end" font-size="11" fill="#7A8794">docs/api/rasterx-functions</text>
</svg>