<svg xmlns="http://www.w3.org/2000/svg" viewBox="0 0 800 400" width="800" height="400">
<rect x="0" y="0" width="800" height="400" fill="#FFFFFF"/>
<polygon points="268.00,102.00 400.00,168.00 400.00,300.00 268.00,234.00" fill="#6FC795" stroke="#1E7A45" stroke-width="11.0" stroke-linejoin="round"/>
<polygon points="400.00,168.00 532.00,102.00 532.00,234.00 400.00,300.00" fill="#6FC795" stroke="#1E7A45" stroke-width="11.0" stroke-linejoin="round"/>
<polygon points="400.00,36.00 532.00,102.00 400.00,168.00 268.00,102.00" fill="#BFE6CE" stroke="#1E7A45" stroke-width="11.0" stroke-linejoin="round"/>
<polygon points="286.48,222.12 304.30,231.03 304.30,193.01 286.48,184.10" fill="#FFFFFF" stroke="#1E7A45" stroke-width="2.4" stroke-linejoin="round"/><polygon points="312.22,234.99 330.04,243.90 330.04,179.27 312.22,170.36" fill="#FFFFFF" stroke="#1E7A45" stroke-width="2.4" stroke-linejoin="round"/><polygon points="337.96,247.86 355.78,256.77 355.78,209.25 337.96,200.34" fill="#FFFFFF" stroke="#1E7A45" stroke-width="2.4" stroke-linejoin="round"/><polygon points="363.70,260.73 381.52,269.64 381.52,191.71 363.70,182.80" fill="#FFFFFF" stroke="#1E7A45" stroke-width="2.4" stroke-linejoin="round"/>
<polygon points="529.36,169.32 475.33,187.00 466.00,137.64 456.67,196.33 402.64,232.68 456.67,215.00 466.00,264.36 475.33,205.67" fill="#2E9E5B" stroke="#1E7A45" stroke-width="2.6" stroke-linejoin="round"/><circle cx="466.00" cy="201.00" r="5.2" fill="#FFFFFF" stroke="#1E7A45" stroke-width="2.2"/>
<polygon points="299.68,102.00 319.81,91.94 420.13,142.09 400.00,152.16" fill="#2E9E5B" stroke="#1E7A45" stroke-width="2.4" stroke-linejoin="round"/><polygon points="326.41,88.64 346.54,78.57 446.86,128.73 426.73,138.80" fill="#54B97B" stroke="#1E7A45" stroke-width="2.4" stroke-linejoin="round"/><polygon points="353.14,75.27 373.27,65.20 473.59,115.37 453.46,125.43" fill="#8FD3A0" stroke="#1E7A45" stroke-width="2.4" stroke-linejoin="round"/><polygon points="379.87,61.91 400.00,51.84 500.32,102.00 480.19,112.06" fill="#CFEAD2" stroke="#1E7A45" stroke-width="2.4" stroke-linejoin="round"/>
<polygon points="400.00,36.00 532.00,102.00 532.00,234.00 400.00,300.00 268.00,234.00 268.00,102.00" fill="none" stroke="#1E7A45" stroke-width="11.0" stroke-linejoin="round" stroke-linecap="round"/>
<line x1="268.00" y1="102.00" x2="400.00" y2="168.00" stroke="#1E7A45" stroke-width="11.0" stroke-linecap="round"/>
<line x1="532.00" y1="102.00" x2="400.00" y2="168.00" stroke="#1E7A45" stroke-width="11.0" stroke-linecap="round"/>
<line x1="400.00" y1="300.00" x2="400.00" y2="168.00" stroke="#1E7A45" stroke-width="11.0" stroke-linecap="round"/>
<text x="400.0" y="396.0" text-anchor="middle" font-family="Inter, -apple-system, Helvetica, Arial, sans-serif" font-size="92" font-weight="800" fill="#1E7A45" letter-spacing="-1">VizX</text>
</svg>