<svg xmlns="http://www.w3.org/2000/svg" viewBox="0 0 1480 720" width="1480" height="720" style="font-family: Inter, -apple-system, system-ui, sans-serif;">
<defs>
  <filter id="card-shadow" x="-5%" y="-5%" width="110%" height="115%">
    <feDropShadow dx="0" dy="2" stdDeviation="6"
                  flood-color="#0F1B2A" flood-opacity="0.08"/>
  </filter>
  <linearGradient id="bg" x1="0" y1="0" x2="0" y2="1">
    <stop offset="0" stop-color="#FAFBFC"/>
    <stop offset="1" stop-color="#F1F4F8"/>
  </linearGradient>
</defs>

<rect x="0" y="0" width="1480" height="720" fill="url(#bg)"/>
<rect x="36" y="40" rx="14" ry="14" width="60" height="60" fill="#6B4FA0"/><text x="66.0" y="82.0" text-anchor="middle" font-family="Inter, sans-serif" font-size="32" font-weight="900" fill="#FFFFFF">04</text><text x="114" y="68" font-family="Inter, -apple-system, system-ui, sans-serif" font-size="28" font-weight="800" fill="#0F1B2A" text-anchor="start">Distributed Sharding &amp; Mosaic</text><text x="114" y="94" font-family="Inter, -apple-system, system-ui, sans-serif" font-size="14" font-weight="400" fill="#3F4D5E" text-anchor="start">MVT pyramid → shard by parent tile → per-shard PMTiles archives → mosaic catalog + inline map</text><rect x="1203" y="48" rx="13" ry="13" width="241" height="26" fill="#0F1B2A"/><text x="1323.5" y="66" text-anchor="middle" font-family="Inter, sans-serif" font-size="12" font-weight="700" fill="#FFFFFF">Helios Series  ·  Notebook 4 of 4</text>
<rect x="36" y="160" rx="14" ry="14" width="310" height="380" fill="#FFFFFF" stroke="#E5E7EB" stroke-width="1" filter="url(#card-shadow)"/><path d="M 36 174 A 14 14 0 0 1 50 160 H 332 A 14 14 0 0 1 346 174 V 165 H 36 Z" fill="#6B4FA0"/><rect x="121.0" y="220.0" rx="8" ry="8" width="140" height="120" fill="#FFFFFF" stroke="#6B4FA0" stroke-width="2.4"/><line x1="191.0" y1="224.0" x2="191.0" y2="336.0" stroke="#6B4FA0" stroke-width="1" stroke-opacity="0.3"/><line x1="125.0" y1="280.0" x2="257.0" y2="280.0" stroke="#6B4FA0" stroke-width="1" stroke-opacity="0.3"/><polygon points="135.0,242.0 163.0,228.0 179.0,248.0 151.0,264.0" fill="#EDE8F5" stroke="#6B4FA0" stroke-width="1.6"/><rect x="201.0" y="230.0" rx="2" width="36" height="28" fill="#EDE8F5" stroke="#6B4FA0" stroke-width="1.6"/><rect x="129.0" y="288.0" rx="2" width="42" height="28" fill="#EDE8F5" stroke="#6B4FA0" stroke-width="1.6"/><polygon points="205.0,290.0 237.0,286.0 241.0,316.0 203.0,320.0" fill="#EDE8F5" stroke="#6B4FA0" stroke-width="1.6"/><rect x="233.0" y="204.0" rx="8" width="28" height="16" fill="#6B4FA0"/><text x="247.0" y="216.0" text-anchor="middle" font-family="ui-monospace, Menlo, monospace" font-size="10" font-weight="700" fill="#FFFFFF">z/x/y</text><text x="191.0" y="396" font-family="Inter, -apple-system, system-ui, sans-serif" font-size="16" font-weight="800" fill="#0F1B2A" text-anchor="middle">MVT tile pyramid</text><g transform="translate(109.0, 410)"><rect x="0" y="0" rx="11" ry="11" width="164" height="22" fill="#EDE8F5"/><text x="82.0" y="15.0" text-anchor="middle" font-family="ui-monospace, SFMono-Regular, Menlo, Consolas, monospace" font-size="12" font-weight="700" fill="#6B4FA0">gbx_st_asmvt_pyramid</text></g><text x="191.0" y="458" text-anchor="middle" font-family="Inter, sans-serif" font-size="12" fill="#3F4D5E">gbx_st_asmvt_pyramid encodes SF building</text><text x="191.0" y="474" text-anchor="middle" font-family="Inter, sans-serif" font-size="12" fill="#3F4D5E">footprints into z11–z16 Mapbox Vector Tile</text><text x="191.0" y="490" text-anchor="middle" font-family="Inter, sans-serif" font-size="12" fill="#3F4D5E">rows</text>
<line x1="354" y1="320.0" x2="384" y2="320.0" stroke="#6B4FA0" stroke-width="2.5" stroke-linecap="round"/><polygon points="394,320.0 384,313.3333333333333 384,326.6666666666667" fill="#6B4FA0"/>
<rect x="402" y="160" rx="14" ry="14" width="310" height="380" fill="#FFFFFF" stroke="#E5E7EB" stroke-width="1" filter="url(#card-shadow)"/><path d="M 402 174 A 14 14 0 0 1 416 160 H 698 A 14 14 0 0 1 712 174 V 165 H 402 Z" fill="#6B4FA0"/><rect x="487.0" y="220.0" rx="8" ry="8" width="140" height="120" fill="#FFFFFF" stroke="#6B4FA0" stroke-width="2.4"/><rect x="487.0" y="220.0" width="70.0" height="60.0" fill="#EDE8F5" fill-opacity="0.95"/><rect x="557.0" y="220.0" width="70.0" height="60.0" fill="#EDE8F5" fill-opacity="0.65"/><rect x="487.0" y="280.0" width="70.0" height="60.0" fill="#EDE8F5" fill-opacity="0.75"/><rect x="557.0" y="280.0" width="70.0" height="60.0" fill="#EDE8F5" fill-opacity="0.50"/><line x1="510.3" y1="222.0" x2="510.3" y2="338.0" stroke="#6B4FA0" stroke-width="0.6" stroke-opacity="0.25"/><line x1="580.3" y1="222.0" x2="580.3" y2="338.0" stroke="#6B4FA0" stroke-width="0.6" stroke-opacity="0.25"/><line x1="489.0" y1="240.0" x2="625.0" y2="240.0" stroke="#6B4FA0" stroke-width="0.6" stroke-opacity="0.25"/><line x1="489.0" y1="300.0" x2="625.0" y2="300.0" stroke="#6B4FA0" stroke-width="0.6" stroke-opacity="0.25"/><line x1="533.7" y1="222.0" x2="533.7" y2="338.0" stroke="#6B4FA0" stroke-width="0.6" stroke-opacity="0.25"/><line x1="603.7" y1="222.0" x2="603.7" y2="338.0" stroke="#6B4FA0" stroke-width="0.6" stroke-opacity="0.25"/><line x1="489.0" y1="260.0" x2="625.0" y2="260.0" stroke="#6B4FA0" stroke-width="0.6" stroke-opacity="0.25"/><line x1="489.0" y1="320.0" x2="625.0" y2="320.0" stroke="#6B4FA0" stroke-width="0.6" stroke-opacity="0.25"/><line x1="557.0" y1="224.0" x2="557.0" y2="336.0" stroke="#6B4FA0" stroke-width="2" stroke-opacity="0.7"/><line x1="491.0" y1="280.0" x2="623.0" y2="280.0" stroke="#6B4FA0" stroke-width="2" stroke-opacity="0.7"/><text x="522.0" y="254.0" text-anchor="middle" font-family="ui-monospace, Menlo, monospace" font-size="9" font-weight="700" fill="#6B4FA0" fill-opacity="0.85">326/791</text><text x="592.0" y="254.0" text-anchor="middle" font-family="ui-monospace, Menlo, monospace" font-size="9" font-weight="700" fill="#6B4FA0" fill-opacity="0.85">327/791</text><text x="522.0" y="314.0" text-anchor="middle" font-family="ui-monospace, Menlo, monospace" font-size="9" font-weight="700" fill="#6B4FA0" fill-opacity="0.85">326/792</text><text x="592.0" y="314.0" text-anchor="middle" font-family="ui-monospace, Menlo, monospace" font-size="9" font-weight="700" fill="#6B4FA0" fill-opacity="0.85">327/792</text><rect x="599.0" y="204.0" rx="8" width="28" height="16" fill="#6B4FA0"/><text x="613.0" y="216.0" text-anchor="middle" font-family="ui-monospace, Menlo, monospace" font-size="10" font-weight="700" fill="#FFFFFF">z11</text><text x="557.0" y="396" font-family="Inter, -apple-system, system-ui, sans-serif" font-size="16" font-weight="800" fill="#0F1B2A" text-anchor="middle">Shard assignment</text><g transform="translate(461.0, 410)"><rect x="0" y="0" rx="11" ry="11" width="192" height="22" fill="#EDE8F5"/><text x="96.0" y="15.0" text-anchor="middle" font-family="ui-monospace, SFMono-Regular, Menlo, Consolas, monospace" font-size="12" font-weight="700" fill="#6B4FA0">shiftright(x, z−shard_z)</text></g><text x="557.0" y="458" text-anchor="middle" font-family="Inter, sans-serif" font-size="12" fill="#3F4D5E">shiftright(x, z−11) maps every tile to a</text><text x="557.0" y="474" text-anchor="middle" font-family="Inter, sans-serif" font-size="12" fill="#3F4D5E">coarse z11 parent — four non-overlapping</text><text x="557.0" y="490" text-anchor="middle" font-family="Inter, sans-serif" font-size="12" fill="#3F4D5E">SF shards</text>
<line x1="720" y1="320.0" x2="750" y2="320.0" stroke="#6B4FA0" stroke-width="2.5" stroke-linecap="round"/><polygon points="760,320.0 750,313.3333333333333 750,326.6666666666667" fill="#6B4FA0"/>
<rect x="768" y="160" rx="14" ry="14" width="310" height="380" fill="#FFFFFF" stroke="#E5E7EB" stroke-width="1" filter="url(#card-shadow)"/><path d="M 768 174 A 14 14 0 0 1 782 160 H 1064 A 14 14 0 0 1 1078 174 V 165 H 768 Z" fill="#6B4FA0"/><rect x="875.0" y="246.0" rx="5" ry="5" width="56" height="38" fill="#EDE8F5" fill-opacity="0.6" stroke="#6B4FA0" stroke-width="1"/><rect x="871.0" y="242.0" rx="5" ry="5" width="56" height="38" fill="#FFFFFF" stroke="#6B4FA0" stroke-width="1.8"/><rect x="871.0" y="242.0" rx="5" ry="5" width="56" height="12" fill="#6B4FA0"/><rect x="871.0" y="249.0" width="56" height="5" fill="#6B4FA0"/><text x="899.0" y="251.0" text-anchor="middle" font-family="ui-monospace, Menlo, monospace" font-size="7" font-weight="800" fill="#FFFFFF">.pmtiles</text><line x1="876.0" y1="261.0" x2="922.0" y2="261.0" stroke="#6B4FA0" stroke-opacity="0.35" stroke-width="1.2"/><line x1="876.0" y1="270.0" x2="922.0" y2="270.0" stroke="#6B4FA0" stroke-opacity="0.35" stroke-width="1.2"/><rect x="935.0" y="246.0" rx="5" ry="5" width="56" height="38" fill="#EDE8F5" fill-opacity="0.6" stroke="#6B4FA0" stroke-width="1"/><rect x="931.0" y="242.0" rx="5" ry="5" width="56" height="38" fill="#FFFFFF" stroke="#6B4FA0" stroke-width="1.8"/><rect x="931.0" y="242.0" rx="5" ry="5" width="56" height="12" fill="#6B4FA0"/><rect x="931.0" y="249.0" width="56" height="5" fill="#6B4FA0"/><text x="959.0" y="251.0" text-anchor="middle" font-family="ui-monospace, Menlo, monospace" font-size="7" font-weight="800" fill="#FFFFFF">.pmtiles</text><line x1="936.0" y1="261.0" x2="982.0" y2="261.0" stroke="#6B4FA0" stroke-opacity="0.35" stroke-width="1.2"/><line x1="936.0" y1="270.0" x2="982.0" y2="270.0" stroke="#6B4FA0" stroke-opacity="0.35" stroke-width="1.2"/><rect x="875.0" y="302.0" rx="5" ry="5" width="56" height="38" fill="#EDE8F5" fill-opacity="0.6" stroke="#6B4FA0" stroke-width="1"/><rect x="871.0" y="298.0" rx="5" ry="5" width="56" height="38" fill="#FFFFFF" stroke="#6B4FA0" stroke-width="1.8"/><rect x="871.0" y="298.0" rx="5" ry="5" width="56" height="12" fill="#6B4FA0"/><rect x="871.0" y="305.0" width="56" height="5" fill="#6B4FA0"/><text x="899.0" y="307.0" text-anchor="middle" font-family="ui-monospace, Menlo, monospace" font-size="7" font-weight="800" fill="#FFFFFF">.pmtiles</text><line x1="876.0" y1="317.0" x2="922.0" y2="317.0" stroke="#6B4FA0" stroke-opacity="0.35" stroke-width="1.2"/><line x1="876.0" y1="326.0" x2="922.0" y2="326.0" stroke="#6B4FA0" stroke-opacity="0.35" stroke-width="1.2"/><rect x="935.0" y="302.0" rx="5" ry="5" width="56" height="38" fill="#EDE8F5" fill-opacity="0.6" stroke="#6B4FA0" stroke-width="1"/><rect x="931.0" y="298.0" rx="5" ry="5" width="56" height="38" fill="#FFFFFF" stroke="#6B4FA0" stroke-width="1.8"/><rect x="931.0" y="298.0" rx="5" ry="5" width="56" height="12" fill="#6B4FA0"/><rect x="931.0" y="305.0" width="56" height="5" fill="#6B4FA0"/><text x="959.0" y="307.0" text-anchor="middle" font-family="ui-monospace, Menlo, monospace" font-size="7" font-weight="800" fill="#FFFFFF">.pmtiles</text><line x1="936.0" y1="317.0" x2="982.0" y2="317.0" stroke="#6B4FA0" stroke-opacity="0.35" stroke-width="1.2"/><line x1="936.0" y1="326.0" x2="982.0" y2="326.0" stroke="#6B4FA0" stroke-opacity="0.35" stroke-width="1.2"/><text x="923.0" y="346.0" text-anchor="middle" font-family="ui-monospace, Menlo, monospace" font-size="10" font-weight="700" fill="#6B4FA0">4 shards</text><text x="923.0" y="396" font-family="Inter, -apple-system, system-ui, sans-serif" font-size="16" font-weight="800" fill="#0F1B2A" text-anchor="middle">Per-shard archives</text><g transform="translate(858.5, 410)"><rect x="0" y="0" rx="11" ry="11" width="129" height="22" fill="#EDE8F5"/><text x="64.5" y="15.0" text-anchor="middle" font-family="ui-monospace, SFMono-Regular, Menlo, Consolas, monospace" font-size="12" font-weight="700" fill="#6B4FA0">gbx_pmtiles_agg</text></g><text x="923.0" y="458" text-anchor="middle" font-family="Inter, sans-serif" font-size="12" fill="#3F4D5E">groupBy(shard).agg(gbx_pmtiles_agg)</text><text x="923.0" y="474" text-anchor="middle" font-family="Inter, sans-serif" font-size="12" fill="#3F4D5E">produces one bounded .pmtiles archive per</text><text x="923.0" y="490" text-anchor="middle" font-family="Inter, sans-serif" font-size="12" fill="#3F4D5E">shard key</text>
<line x1="1086" y1="320.0" x2="1116" y2="320.0" stroke="#6B4FA0" stroke-width="2.5" stroke-linecap="round"/><polygon points="1126,320.0 1116,313.3333333333333 1116,326.6666666666667" fill="#6B4FA0"/>
<rect x="1134" y="160" rx="14" ry="14" width="310" height="380" fill="#FFFFFF" stroke="#E5E7EB" stroke-width="1" filter="url(#card-shadow)"/><path d="M 1134 174 A 14 14 0 0 1 1148 160 H 1430 A 14 14 0 0 1 1444 174 V 165 H 1134 Z" fill="#6B4FA0"/><rect x="1239.0" y="222.0" rx="5" ry="5" width="48" height="48" fill="#EDE8F5" fill-opacity="0.90" stroke="#6B4FA0" stroke-width="1.8"/><line x1="1255.0" y1="224.0" x2="1255.0" y2="268.0" stroke="#6B4FA0" stroke-opacity="0.2" stroke-width="0.8"/><line x1="1241.0" y1="238.0" x2="1285.0" y2="238.0" stroke="#6B4FA0" stroke-opacity="0.2" stroke-width="0.8"/><line x1="1271.0" y1="224.0" x2="1271.0" y2="268.0" stroke="#6B4FA0" stroke-opacity="0.2" stroke-width="0.8"/><line x1="1241.0" y1="254.0" x2="1285.0" y2="254.0" stroke="#6B4FA0" stroke-opacity="0.2" stroke-width="0.8"/><text x="1263.0" y="240.5" text-anchor="middle" font-family="ui-monospace, Menlo, monospace" font-size="9" font-weight="700" fill="#6B4FA0" fill-opacity="0.9">326</text><text x="1263.0" y="251.5" text-anchor="middle" font-family="ui-monospace, Menlo, monospace" font-size="9" font-weight="700" fill="#6B4FA0" fill-opacity="0.9">791</text><rect x="1291.0" y="222.0" rx="5" ry="5" width="48" height="48" fill="#EDE8F5" fill-opacity="0.65" stroke="#6B4FA0" stroke-width="1.8"/><line x1="1307.0" y1="224.0" x2="1307.0" y2="268.0" stroke="#6B4FA0" stroke-opacity="0.2" stroke-width="0.8"/><line x1="1293.0" y1="238.0" x2="1337.0" y2="238.0" stroke="#6B4FA0" stroke-opacity="0.2" stroke-width="0.8"/><line x1="1323.0" y1="224.0" x2="1323.0" y2="268.0" stroke="#6B4FA0" stroke-opacity="0.2" stroke-width="0.8"/><line x1="1293.0" y1="254.0" x2="1337.0" y2="254.0" stroke="#6B4FA0" stroke-opacity="0.2" stroke-width="0.8"/><text x="1315.0" y="240.5" text-anchor="middle" font-family="ui-monospace, Menlo, monospace" font-size="9" font-weight="700" fill="#6B4FA0" fill-opacity="0.9">327</text><text x="1315.0" y="251.5" text-anchor="middle" font-family="ui-monospace, Menlo, monospace" font-size="9" font-weight="700" fill="#6B4FA0" fill-opacity="0.9">791</text><rect x="1239.0" y="274.0" rx="5" ry="5" width="48" height="48" fill="#EDE8F5" fill-opacity="0.75" stroke="#6B4FA0" stroke-width="1.8"/><line x1="1255.0" y1="276.0" x2="1255.0" y2="320.0" stroke="#6B4FA0" stroke-opacity="0.2" stroke-width="0.8"/><line x1="1241.0" y1="290.0" x2="1285.0" y2="290.0" stroke="#6B4FA0" stroke-opacity="0.2" stroke-width="0.8"/><line x1="1271.0" y1="276.0" x2="1271.0" y2="320.0" stroke="#6B4FA0" stroke-opacity="0.2" stroke-width="0.8"/><line x1="1241.0" y1="306.0" x2="1285.0" y2="306.0" stroke="#6B4FA0" stroke-opacity="0.2" stroke-width="0.8"/><text x="1263.0" y="292.5" text-anchor="middle" font-family="ui-monospace, Menlo, monospace" font-size="9" font-weight="700" fill="#6B4FA0" fill-opacity="0.9">326</text><text x="1263.0" y="303.5" text-anchor="middle" font-family="ui-monospace, Menlo, monospace" font-size="9" font-weight="700" fill="#6B4FA0" fill-opacity="0.9">792</text><rect x="1291.0" y="274.0" rx="5" ry="5" width="48" height="48" fill="#EDE8F5" fill-opacity="0.50" stroke="#6B4FA0" stroke-width="1.8"/><line x1="1307.0" y1="276.0" x2="1307.0" y2="320.0" stroke="#6B4FA0" stroke-opacity="0.2" stroke-width="0.8"/><line x1="1293.0" y1="290.0" x2="1337.0" y2="290.0" stroke="#6B4FA0" stroke-opacity="0.2" stroke-width="0.8"/><line x1="1323.0" y1="276.0" x2="1323.0" y2="320.0" stroke="#6B4FA0" stroke-opacity="0.2" stroke-width="0.8"/><line x1="1293.0" y1="306.0" x2="1337.0" y2="306.0" stroke="#6B4FA0" stroke-opacity="0.2" stroke-width="0.8"/><text x="1315.0" y="292.5" text-anchor="middle" font-family="ui-monospace, Menlo, monospace" font-size="9" font-weight="700" fill="#6B4FA0" fill-opacity="0.9">327</text><text x="1315.0" y="303.5" text-anchor="middle" font-family="ui-monospace, Menlo, monospace" font-size="9" font-weight="700" fill="#6B4FA0" fill-opacity="0.9">792</text><line x1="1289.0" y1="220.0" x2="1289.0" y2="368.0" stroke="#6B4FA0" stroke-width="2" stroke-opacity="0.5"/><line x1="1237.0" y1="272.0" x2="1385.0" y2="272.0" stroke="#6B4FA0" stroke-width="2" stroke-opacity="0.5"/><rect x="1241.0" y="330.0" rx="5" ry="5" width="96" height="18" fill="#6B4FA0"/><text x="1289.0" y="343.0" text-anchor="middle" font-family="ui-monospace, Menlo, monospace" font-size="10" font-weight="800" fill="#FFFFFF">mosaic.json</text><text x="1289.0" y="396" font-family="Inter, -apple-system, system-ui, sans-serif" font-size="16" font-weight="800" fill="#0F1B2A" text-anchor="middle">Mosaic catalog + map</text><g transform="translate(1235.0, 410)"><rect x="0" y="0" rx="11" ry="11" width="108" height="22" fill="#EDE8F5"/><text x="54.0" y="15.0" text-anchor="middle" font-family="ui-monospace, SFMono-Regular, Menlo, Consolas, monospace" font-size="12" font-weight="700" fill="#6B4FA0">plot_pmtiles</text></g><text x="1289.0" y="458" text-anchor="middle" font-family="Inter, sans-serif" font-size="12" fill="#3F4D5E">pmtiles_info populates sf_building_shards</text><text x="1289.0" y="474" text-anchor="middle" font-family="Inter, sans-serif" font-size="12" fill="#3F4D5E">(Delta) + mosaic.json; plot_pmtiles</text><text x="1289.0" y="490" text-anchor="middle" font-family="Inter, sans-serif" font-size="12" fill="#3F4D5E">renders each shard inline</text>
<text x="36" y="650" font-family="Inter, -apple-system, system-ui, sans-serif" font-size="10" font-weight="700" fill="#7A8794" text-anchor="start" letter-spacing="1.6">KEY FUNCTIONS</text><rect x="166" y="640" rx="12" ry="12" width="164" height="24" fill="#EDE8F5"/><text x="248.0" y="656.0" text-anchor="middle" font-family="ui-monospace, SFMono-Regular, Menlo, Consolas, monospace" font-size="12" font-weight="700" fill="#6B4FA0">gbx_st_asmvt_pyramid</text><rect x="338" y="640" rx="12" ry="12" width="129" height="24" fill="#EDE8F5"/><text x="402.5" y="656.0" text-anchor="middle" font-family="ui-monospace, SFMono-Regular, Menlo, Consolas, monospace" font-size="12" font-weight="700" fill="#6B4FA0">gbx_pmtiles_agg</text><rect x="475" y="640" rx="12" ry="12" width="108" height="24" fill="#EDE8F5"/><text x="529.0" y="656.0" text-anchor="middle" font-family="ui-monospace, SFMono-Regular, Menlo, Consolas, monospace" font-size="12" font-weight="700" fill="#6B4FA0">pmtiles_info</text><rect x="591" y="640" rx="12" ry="12" width="108" height="24" fill="#EDE8F5"/><text x="645.0" y="656.0" text-anchor="middle" font-family="ui-monospace, SFMono-Regular, Menlo, Consolas, monospace" font-size="12" font-weight="700" fill="#6B4FA0">plot_pmtiles</text><text x="1444" y="650" font-family="Inter, -apple-system, system-ui, sans-serif" font-size="11" font-weight="400" fill="#7A8794" text-anchor="end">databrickslabs/geobrix  ·  Overture Maps  ·  NAIP  ·  USGS 3DEP</text>
</svg>