<svg xmlns="http://www.w3.org/2000/svg" viewBox="0 0 1480 720" width="1480" height="720" style="font-family: Inter, -apple-system, system-ui, sans-serif;">
<defs>
  <filter id="card-shadow" x="-5%" y="-5%" width="110%" height="115%">
    <feDropShadow dx="0" dy="2" stdDeviation="6"
                  flood-color="#0F1B2A" flood-opacity="0.08"/>
  </filter>
  <linearGradient id="bg" x1="0" y1="0" x2="0" y2="1">
    <stop offset="0" stop-color="#FAFBFC"/>
    <stop offset="1" stop-color="#F1F4F8"/>
  </linearGradient>
</defs>

<rect x="0" y="0" width="1480" height="720" fill="url(#bg)"/>
<rect x="36" y="40" rx="14" ry="14" width="60" height="60" fill="#1F6FB5"/><text x="66.0" y="79.0" text-anchor="middle" font-family="Inter, -apple-system, system-ui, sans-serif" font-size="24" font-weight="900" fill="#FFFFFF">xV</text><text x="114" y="68" font-family="Inter, -apple-system, system-ui, sans-serif" font-size="28" font-weight="800" fill="#0F1B2A" text-anchor="start">Clip aerial rasters to labeled objects</text><text x="114" y="94" font-family="Inter, -apple-system, system-ui, sans-serif" font-size="14" font-weight="400" fill="#3F4D5E" text-anchor="start">xView GeoTIFFs → per-feature clipped tiles, CRS-safe</text><rect x="1242" y="48" rx="13" ry="13" width="202" height="26" fill="#0F1B2A"/><text x="1343.0" y="66" text-anchor="middle" font-family="Inter, -apple-system, system-ui, sans-serif" font-size="12" font-weight="700" fill="#FFFFFF">xView · Per-object clipping</text>
<rect x="36" y="160" rx="14" ry="14" width="310" height="380" fill="#FFFFFF" stroke="#E5E7EB" stroke-width="1" filter="url(#card-shadow)"/><path d="M 36 174 A 14 14 0 0 1 50 160 H 332 A 14 14 0 0 1 346 174 V 165 H 36 Z" fill="#1F6FB5"/><rect x="135.0" y="224.0" width="112" height="112" fill="#E3EEF8" stroke="#1F6FB5" stroke-width="2"/><rect x="135.0" y="224.0" width="14" height="14" fill="#1F6FB5" fill-opacity="0.53"/><rect x="149.0" y="224.0" width="14" height="14" fill="#1F6FB5" fill-opacity="0.47"/><rect x="163.0" y="224.0" width="14" height="14" fill="#1F6FB5" fill-opacity="0.50"/><rect x="177.0" y="224.0" width="14" height="14" fill="#1F6FB5" fill-opacity="0.61"/><rect x="191.0" y="224.0" width="14" height="14" fill="#1F6FB5" fill-opacity="0.75"/><rect x="205.0" y="224.0" width="14" height="14" fill="#1F6FB5" fill-opacity="0.84"/><rect x="219.0" y="224.0" width="14" height="14" fill="#1F6FB5" fill-opacity="0.82"/><rect x="233.0" y="224.0" width="14" height="14" fill="#1F6FB5" fill-opacity="0.74"/><rect x="135.0" y="238.0" width="14" height="14" fill="#1F6FB5" fill-opacity="0.40"/><rect x="149.0" y="238.0" width="14" height="14" fill="#1F6FB5" fill-opacity="0.51"/><rect x="163.0" y="238.0" width="14" height="14" fill="#1F6FB5" fill-opacity="0.65"/><rect x="177.0" y="238.0" width="14" height="14" fill="#1F6FB5" fill-opacity="0.74"/><rect x="191.0" y="238.0" width="14" height="14" fill="#1F6FB5" fill-opacity="0.74"/><rect x="205.0" y="238.0" width="14" height="14" fill="#1F6FB5" fill-opacity="0.66"/><rect x="219.0" y="238.0" width="14" height="14" fill="#1F6FB5" fill-opacity="0.60"/><rect x="233.0" y="238.0" width="14" height="14" fill="#1F6FB5" fill-opacity="0.61"/><rect x="135.0" y="252.0" width="14" height="14" fill="#1F6FB5" fill-opacity="0.55"/><rect x="149.0" y="252.0" width="14" height="14" fill="#1F6FB5" fill-opacity="0.65"/><rect x="163.0" y="252.0" width="14" height="14" fill="#1F6FB5" fill-opacity="0.66"/><rect x="177.0" y="252.0" width="14" height="14" fill="#1F6FB5" fill-opacity="0.59"/><rect x="191.0" y="252.0" width="14" height="14" fill="#1F6FB5" fill-opacity="0.51"/><rect x="205.0" y="252.0" width="14" height="14" fill="#1F6FB5" fill-opacity="0.52"/><rect x="219.0" y="252.0" width="14" height="14" fill="#1F6FB5" fill-opacity="0.62"/><rect x="233.0" y="252.0" width="14" height="14" fill="#1F6FB5" fill-opacity="0.76"/><rect x="135.0" y="266.0" width="14" height="14" fill="#1F6FB5" fill-opacity="0.57"/><rect x="149.0" y="266.0" width="14" height="14" fill="#1F6FB5" fill-opacity="0.51"/><rect x="163.0" y="266.0" width="14" height="14" fill="#1F6FB5" fill-opacity="0.43"/><rect x="177.0" y="266.0" width="14" height="14" fill="#1F6FB5" fill-opacity="0.43"/><rect x="191.0" y="266.0" width="14" height="14" fill="#1F6FB5" fill-opacity="0.52"/><rect x="205.0" y="266.0" width="14" height="14" fill="#1F6FB5" fill-opacity="0.66"/><rect x="219.0" y="266.0" width="14" height="14" fill="#1F6FB5" fill-opacity="0.77"/><rect x="233.0" y="266.0" width="14" height="14" fill="#1F6FB5" fill-opacity="0.78"/><rect x="135.0" y="280.0" width="14" height="14" fill="#1F6FB5" fill-opacity="0.35"/><rect x="149.0" y="280.0" width="14" height="14" fill="#1F6FB5" fill-opacity="0.34"/><rect x="163.0" y="280.0" width="14" height="14" fill="#1F6FB5" fill-opacity="0.42"/><rect x="177.0" y="280.0" width="14" height="14" fill="#1F6FB5" fill-opacity="0.56"/><rect x="191.0" y="280.0" width="14" height="14" fill="#1F6FB5" fill-opacity="0.67"/><rect x="205.0" y="280.0" width="14" height="14" fill="#1F6FB5" fill-opacity="0.70"/><rect x="219.0" y="280.0" width="14" height="14" fill="#1F6FB5" fill-opacity="0.64"/><rect x="233.0" y="280.0" width="14" height="14" fill="#1F6FB5" fill-opacity="0.56"/><rect x="135.0" y="294.0" width="14" height="14" fill="#1F6FB5" fill-opacity="0.32"/><rect x="149.0" y="294.0" width="14" height="14" fill="#1F6FB5" fill-opacity="0.45"/><rect x="163.0" y="294.0" width="14" height="14" fill="#1F6FB5" fill-opacity="0.58"/><rect x="177.0" y="294.0" width="14" height="14" fill="#1F6FB5" fill-opacity="0.62"/><rect x="191.0" y="294.0" width="14" height="14" fill="#1F6FB5" fill-opacity="0.56"/><rect x="205.0" y="294.0" width="14" height="14" fill="#1F6FB5" fill-opacity="0.48"/><rect x="219.0" y="294.0" width="14" height="14" fill="#1F6FB5" fill-opacity="0.46"/><rect x="233.0" y="294.0" width="14" height="14" fill="#1F6FB5" fill-opacity="0.53"/><rect x="135.0" y="308.0" width="14" height="14" fill="#1F6FB5" fill-opacity="0.48"/><rect x="149.0" y="308.0" width="14" height="14" fill="#1F6FB5" fill-opacity="0.53"/><rect x="163.0" y="308.0" width="14" height="14" fill="#1F6FB5" fill-opacity="0.48"/><rect x="177.0" y="308.0" width="14" height="14" fill="#1F6FB5" fill-opacity="0.40"/><rect x="191.0" y="308.0" width="14" height="14" fill="#1F6FB5" fill-opacity="0.37"/><rect x="205.0" y="308.0" width="14" height="14" fill="#1F6FB5" fill-opacity="0.43"/><rect x="219.0" y="308.0" width="14" height="14" fill="#1F6FB5" fill-opacity="0.56"/><rect x="233.0" y="308.0" width="14" height="14" fill="#1F6FB5" fill-opacity="0.69"/><rect x="135.0" y="322.0" width="14" height="14" fill="#1F6FB5" fill-opacity="0.41"/><rect x="149.0" y="322.0" width="14" height="14" fill="#1F6FB5" fill-opacity="0.32"/><rect x="163.0" y="322.0" width="14" height="14" fill="#1F6FB5" fill-opacity="0.28"/><rect x="177.0" y="322.0" width="14" height="14" fill="#1F6FB5" fill-opacity="0.33"/><rect x="191.0" y="322.0" width="14" height="14" fill="#1F6FB5" fill-opacity="0.46"/><rect x="205.0" y="322.0" width="14" height="14" fill="#1F6FB5" fill-opacity="0.59"/><rect x="219.0" y="322.0" width="14" height="14" fill="#1F6FB5" fill-opacity="0.65"/><rect x="233.0" y="322.0" width="14" height="14" fill="#1F6FB5" fill-opacity="0.61"/><line x1="149.0" y1="224.0" x2="149.0" y2="336.0" stroke="#FFFFFF" stroke-width="0.8" stroke-opacity="0.45"/><line x1="135.0" y1="238.0" x2="247.0" y2="238.0" stroke="#FFFFFF" stroke-width="0.8" stroke-opacity="0.45"/><line x1="163.0" y1="224.0" x2="163.0" y2="336.0" stroke="#FFFFFF" stroke-width="0.8" stroke-opacity="0.45"/><line x1="135.0" y1="252.0" x2="247.0" y2="252.0" stroke="#FFFFFF" stroke-width="0.8" stroke-opacity="0.45"/><line x1="177.0" y1="224.0" x2="177.0" y2="336.0" stroke="#FFFFFF" stroke-width="0.8" stroke-opacity="0.45"/><line x1="135.0" y1="266.0" x2="247.0" y2="266.0" stroke="#FFFFFF" stroke-width="0.8" stroke-opacity="0.45"/><line x1="191.0" y1="224.0" x2="191.0" y2="336.0" stroke="#FFFFFF" stroke-width="0.8" stroke-opacity="0.45"/><line x1="135.0" y1="280.0" x2="247.0" y2="280.0" stroke="#FFFFFF" stroke-width="0.8" stroke-opacity="0.45"/><line x1="205.0" y1="224.0" x2="205.0" y2="336.0" stroke="#FFFFFF" stroke-width="0.8" stroke-opacity="0.45"/><line x1="135.0" y1="294.0" x2="247.0" y2="294.0" stroke="#FFFFFF" stroke-width="0.8" stroke-opacity="0.45"/><line x1="219.0" y1="224.0" x2="219.0" y2="336.0" stroke="#FFFFFF" stroke-width="0.8" stroke-opacity="0.45"/><line x1="135.0" y1="308.0" x2="247.0" y2="308.0" stroke="#FFFFFF" stroke-width="0.8" stroke-opacity="0.45"/><line x1="233.0" y1="224.0" x2="233.0" y2="336.0" stroke="#FFFFFF" stroke-width="0.8" stroke-opacity="0.45"/><line x1="135.0" y1="322.0" x2="247.0" y2="322.0" stroke="#FFFFFF" stroke-width="0.8" stroke-opacity="0.45"/><text x="191.0" y="396" font-family="Inter, -apple-system, system-ui, sans-serif" font-size="16" font-weight="800" fill="#0F1B2A" text-anchor="middle">xView GeoTIFFs</text><g transform="translate(147.5, 410)"><rect x="0" y="0" rx="11" ry="11" width="87" height="22" fill="#E3EEF8"/><text x="43.5" y="15.0" text-anchor="middle" font-family="ui-monospace, SFMono-Regular, Menlo, Consolas, monospace" font-size="12" font-weight="700" fill="#1F6FB5">gtiff_gbx</text></g><text x="191.0" y="458" text-anchor="middle" font-family="Inter, sans-serif" font-size="12" fill="#3F4D5E">High-res aerial tiles loaded with the</text><text x="191.0" y="474" text-anchor="middle" font-family="Inter, sans-serif" font-size="12" fill="#3F4D5E">gtiff reader — one whole-image tile per</text><text x="191.0" y="490" text-anchor="middle" font-family="Inter, sans-serif" font-size="12" fill="#3F4D5E">file</text>
<line x1="354" y1="320.0" x2="384" y2="320.0" stroke="#1F6FB5" stroke-width="2.5" stroke-linecap="round"/><polygon points="394,320.0 384,313.3333333333333 384,326.6666666666667" fill="#1F6FB5"/>
<rect x="402" y="160" rx="14" ry="14" width="310" height="380" fill="#FFFFFF" stroke="#E5E7EB" stroke-width="1" filter="url(#card-shadow)"/><path d="M 402 174 A 14 14 0 0 1 416 160 H 698 A 14 14 0 0 1 712 174 V 165 H 402 Z" fill="#1F6FB5"/><polygon points="497.0,258.0 525.0,232.0 561.0,238.0 595.0,248.0 619.0,272.0 601.0,296.0 609.0,318.0 581.0,330.0 545.0,324.0 511.0,310.0 499.0,286.0" fill="#E3EEF8" stroke="#1F6FB5" stroke-width="2" stroke-linejoin="round"/><circle cx="573.0" cy="288.0" r="5" fill="#1F6FB5"/><circle cx="573.0" cy="288.0" r="11" fill="none" stroke="#1F6FB5" stroke-opacity="0.45" stroke-width="1.5"/><text x="557.0" y="396" font-family="Inter, -apple-system, system-ui, sans-serif" font-size="16" font-weight="800" fill="#0F1B2A" text-anchor="middle">Object polygons</text><g transform="translate(513.5, 410)"><rect x="0" y="0" rx="11" ry="11" width="87" height="22" fill="#E3EEF8"/><text x="43.5" y="15.0" text-anchor="middle" font-family="ui-monospace, SFMono-Regular, Menlo, Consolas, monospace" font-size="12" font-weight="700" fill="#1F6FB5">st_asewkt</text></g><text x="557.0" y="458" text-anchor="middle" font-family="Inter, sans-serif" font-size="12" fill="#3F4D5E">GeoJSON labels → EWKT (SRID=4326) via</text><text x="557.0" y="474" text-anchor="middle" font-family="Inter, sans-serif" font-size="12" fill="#3F4D5E">st_geomfromgeojson + st_asewkt</text>
<line x1="720" y1="320.0" x2="750" y2="320.0" stroke="#1F6FB5" stroke-width="2.5" stroke-linecap="round"/><polygon points="760,320.0 750,313.3333333333333 750,326.6666666666667" fill="#1F6FB5"/>
<rect x="768" y="160" rx="14" ry="14" width="310" height="380" fill="#FFFFFF" stroke="#E5E7EB" stroke-width="1" filter="url(#card-shadow)"/><path d="M 768 174 A 14 14 0 0 1 782 160 H 1064 A 14 14 0 0 1 1078 174 V 165 H 768 Z" fill="#1F6FB5"/><rect x="867.0" y="224.0" width="112" height="112" fill="#E3EEF8" stroke="#1F6FB5" stroke-width="2"/><rect x="867.0" y="224.0" width="14" height="14" fill="#1F6FB5" fill-opacity="0.53"/><rect x="881.0" y="224.0" width="14" height="14" fill="#1F6FB5" fill-opacity="0.47"/><rect x="895.0" y="224.0" width="14" height="14" fill="#1F6FB5" fill-opacity="0.50"/><rect x="909.0" y="224.0" width="14" height="14" fill="#1F6FB5" fill-opacity="0.61"/><rect x="923.0" y="224.0" width="14" height="14" fill="#1F6FB5" fill-opacity="0.75"/><rect x="937.0" y="224.0" width="14" height="14" fill="#1F6FB5" fill-opacity="0.84"/><rect x="951.0" y="224.0" width="14" height="14" fill="#1F6FB5" fill-opacity="0.82"/><rect x="965.0" y="224.0" width="14" height="14" fill="#1F6FB5" fill-opacity="0.74"/><rect x="867.0" y="238.0" width="14" height="14" fill="#1F6FB5" fill-opacity="0.40"/><rect x="881.0" y="238.0" width="14" height="14" fill="#1F6FB5" fill-opacity="0.51"/><rect x="895.0" y="238.0" width="14" height="14" fill="#1F6FB5" fill-opacity="0.65"/><rect x="909.0" y="238.0" width="14" height="14" fill="#1F6FB5" fill-opacity="0.74"/><rect x="923.0" y="238.0" width="14" height="14" fill="#1F6FB5" fill-opacity="0.74"/><rect x="937.0" y="238.0" width="14" height="14" fill="#1F6FB5" fill-opacity="0.66"/><rect x="951.0" y="238.0" width="14" height="14" fill="#1F6FB5" fill-opacity="0.60"/><rect x="965.0" y="238.0" width="14" height="14" fill="#1F6FB5" fill-opacity="0.61"/><rect x="867.0" y="252.0" width="14" height="14" fill="#1F6FB5" fill-opacity="0.55"/><rect x="881.0" y="252.0" width="14" height="14" fill="#1F6FB5" fill-opacity="0.65"/><rect x="895.0" y="252.0" width="14" height="14" fill="#1F6FB5" fill-opacity="0.66"/><rect x="909.0" y="252.0" width="14" height="14" fill="#1F6FB5" fill-opacity="0.59"/><rect x="923.0" y="252.0" width="14" height="14" fill="#1F6FB5" fill-opacity="0.51"/><rect x="937.0" y="252.0" width="14" height="14" fill="#1F6FB5" fill-opacity="0.52"/><rect x="951.0" y="252.0" width="14" height="14" fill="#1F6FB5" fill-opacity="0.62"/><rect x="965.0" y="252.0" width="14" height="14" fill="#1F6FB5" fill-opacity="0.76"/><rect x="867.0" y="266.0" width="14" height="14" fill="#1F6FB5" fill-opacity="0.57"/><rect x="881.0" y="266.0" width="14" height="14" fill="#1F6FB5" fill-opacity="0.51"/><rect x="895.0" y="266.0" width="14" height="14" fill="#1F6FB5" fill-opacity="0.43"/><rect x="909.0" y="266.0" width="14" height="14" fill="#1F6FB5" fill-opacity="0.43"/><rect x="923.0" y="266.0" width="14" height="14" fill="#1F6FB5" fill-opacity="0.52"/><rect x="937.0" y="266.0" width="14" height="14" fill="#1F6FB5" fill-opacity="0.66"/><rect x="951.0" y="266.0" width="14" height="14" fill="#1F6FB5" fill-opacity="0.77"/><rect x="965.0" y="266.0" width="14" height="14" fill="#1F6FB5" fill-opacity="0.78"/><rect x="867.0" y="280.0" width="14" height="14" fill="#1F6FB5" fill-opacity="0.35"/><rect x="881.0" y="280.0" width="14" height="14" fill="#1F6FB5" fill-opacity="0.34"/><rect x="895.0" y="280.0" width="14" height="14" fill="#1F6FB5" fill-opacity="0.42"/><rect x="909.0" y="280.0" width="14" height="14" fill="#1F6FB5" fill-opacity="0.56"/><rect x="923.0" y="280.0" width="14" height="14" fill="#1F6FB5" fill-opacity="0.67"/><rect x="937.0" y="280.0" width="14" height="14" fill="#1F6FB5" fill-opacity="0.70"/><rect x="951.0" y="280.0" width="14" height="14" fill="#1F6FB5" fill-opacity="0.64"/><rect x="965.0" y="280.0" width="14" height="14" fill="#1F6FB5" fill-opacity="0.56"/><rect x="867.0" y="294.0" width="14" height="14" fill="#1F6FB5" fill-opacity="0.32"/><rect x="881.0" y="294.0" width="14" height="14" fill="#1F6FB5" fill-opacity="0.45"/><rect x="895.0" y="294.0" width="14" height="14" fill="#1F6FB5" fill-opacity="0.58"/><rect x="909.0" y="294.0" width="14" height="14" fill="#1F6FB5" fill-opacity="0.62"/><rect x="923.0" y="294.0" width="14" height="14" fill="#1F6FB5" fill-opacity="0.56"/><rect x="937.0" y="294.0" width="14" height="14" fill="#1F6FB5" fill-opacity="0.48"/><rect x="951.0" y="294.0" width="14" height="14" fill="#1F6FB5" fill-opacity="0.46"/><rect x="965.0" y="294.0" width="14" height="14" fill="#1F6FB5" fill-opacity="0.53"/><rect x="867.0" y="308.0" width="14" height="14" fill="#1F6FB5" fill-opacity="0.48"/><rect x="881.0" y="308.0" width="14" height="14" fill="#1F6FB5" fill-opacity="0.53"/><rect x="895.0" y="308.0" width="14" height="14" fill="#1F6FB5" fill-opacity="0.48"/><rect x="909.0" y="308.0" width="14" height="14" fill="#1F6FB5" fill-opacity="0.40"/><rect x="923.0" y="308.0" width="14" height="14" fill="#1F6FB5" fill-opacity="0.37"/><rect x="937.0" y="308.0" width="14" height="14" fill="#1F6FB5" fill-opacity="0.43"/><rect x="951.0" y="308.0" width="14" height="14" fill="#1F6FB5" fill-opacity="0.56"/><rect x="965.0" y="308.0" width="14" height="14" fill="#1F6FB5" fill-opacity="0.69"/><rect x="867.0" y="322.0" width="14" height="14" fill="#1F6FB5" fill-opacity="0.41"/><rect x="881.0" y="322.0" width="14" height="14" fill="#1F6FB5" fill-opacity="0.32"/><rect x="895.0" y="322.0" width="14" height="14" fill="#1F6FB5" fill-opacity="0.28"/><rect x="909.0" y="322.0" width="14" height="14" fill="#1F6FB5" fill-opacity="0.33"/><rect x="923.0" y="322.0" width="14" height="14" fill="#1F6FB5" fill-opacity="0.46"/><rect x="937.0" y="322.0" width="14" height="14" fill="#1F6FB5" fill-opacity="0.59"/><rect x="951.0" y="322.0" width="14" height="14" fill="#1F6FB5" fill-opacity="0.65"/><rect x="965.0" y="322.0" width="14" height="14" fill="#1F6FB5" fill-opacity="0.61"/><line x1="881.0" y1="224.0" x2="881.0" y2="336.0" stroke="#FFFFFF" stroke-width="0.8" stroke-opacity="0.45"/><line x1="867.0" y1="238.0" x2="979.0" y2="238.0" stroke="#FFFFFF" stroke-width="0.8" stroke-opacity="0.45"/><line x1="895.0" y1="224.0" x2="895.0" y2="336.0" stroke="#FFFFFF" stroke-width="0.8" stroke-opacity="0.45"/><line x1="867.0" y1="252.0" x2="979.0" y2="252.0" stroke="#FFFFFF" stroke-width="0.8" stroke-opacity="0.45"/><line x1="909.0" y1="224.0" x2="909.0" y2="336.0" stroke="#FFFFFF" stroke-width="0.8" stroke-opacity="0.45"/><line x1="867.0" y1="266.0" x2="979.0" y2="266.0" stroke="#FFFFFF" stroke-width="0.8" stroke-opacity="0.45"/><line x1="923.0" y1="224.0" x2="923.0" y2="336.0" stroke="#FFFFFF" stroke-width="0.8" stroke-opacity="0.45"/><line x1="867.0" y1="280.0" x2="979.0" y2="280.0" stroke="#FFFFFF" stroke-width="0.8" stroke-opacity="0.45"/><line x1="937.0" y1="224.0" x2="937.0" y2="336.0" stroke="#FFFFFF" stroke-width="0.8" stroke-opacity="0.45"/><line x1="867.0" y1="294.0" x2="979.0" y2="294.0" stroke="#FFFFFF" stroke-width="0.8" stroke-opacity="0.45"/><line x1="951.0" y1="224.0" x2="951.0" y2="336.0" stroke="#FFFFFF" stroke-width="0.8" stroke-opacity="0.45"/><line x1="867.0" y1="308.0" x2="979.0" y2="308.0" stroke="#FFFFFF" stroke-width="0.8" stroke-opacity="0.45"/><line x1="965.0" y1="224.0" x2="965.0" y2="336.0" stroke="#FFFFFF" stroke-width="0.8" stroke-opacity="0.45"/><line x1="867.0" y1="322.0" x2="979.0" y2="322.0" stroke="#FFFFFF" stroke-width="0.8" stroke-opacity="0.45"/><rect x="885.0" y="242.0" width="76" height="76" rx="14" ry="14" fill="none" stroke="#1F6FB5" stroke-width="3" stroke-dasharray="6,5"/><circle cx="923.0" cy="280.0" r="4" fill="#1F6FB5"/><circle cx="923.0" cy="280.0" r="9" fill="none" stroke="#1F6FB5" stroke-width="1.4" stroke-opacity="0.5"/><text x="923.0" y="396" font-family="Inter, -apple-system, system-ui, sans-serif" font-size="16" font-weight="800" fill="#0F1B2A" text-anchor="middle">Per-object clip</text><g transform="translate(883.0, 410)"><rect x="0" y="0" rx="11" ry="11" width="80" height="22" fill="#E3EEF8"/><text x="40.0" y="15.0" text-anchor="middle" font-family="ui-monospace, SFMono-Regular, Menlo, Consolas, monospace" font-size="12" font-weight="700" fill="#1F6FB5">rst_clip</text></g><text x="923.0" y="458" text-anchor="middle" font-family="Inter, sans-serif" font-size="12" fill="#3F4D5E">rst_clip reprojects the EWKT cutline to</text><text x="923.0" y="474" text-anchor="middle" font-family="Inter, sans-serif" font-size="12" fill="#3F4D5E">the raster CRS, then clips</text>
<line x1="1086" y1="320.0" x2="1116" y2="320.0" stroke="#1F6FB5" stroke-width="2.5" stroke-linecap="round"/><polygon points="1126,320.0 1116,313.3333333333333 1116,326.6666666666667" fill="#1F6FB5"/>
<rect x="1134" y="160" rx="14" ry="14" width="310" height="380" fill="#FFFFFF" stroke="#E5E7EB" stroke-width="1" filter="url(#card-shadow)"/><path d="M 1134 174 A 14 14 0 0 1 1148 160 H 1430 A 14 14 0 0 1 1444 174 V 165 H 1134 Z" fill="#1F6FB5"/><rect x="1234.0" y="240.0" rx="8" ry="8" width="110" height="80" fill="#E3EEF8" stroke="#1F6FB5" stroke-width="2"/><rect x="1234.0" y="240.0" width="110" height="22" rx="8" ry="8" fill="#1F6FB5"/><rect x="1234.0" y="252.0" width="110" height="10" fill="#1F6FB5"/><text x="1289.0" y="256.0" text-anchor="middle" font-family="Inter, sans-serif" font-size="11" font-weight="700" fill="#FFFFFF">clip/*.tif</text><line x1="1244.0" y1="270.0" x2="1334.0" y2="270.0" stroke="#1F6FB5" stroke-opacity="0.45" stroke-width="1.4"/><line x1="1244.0" y1="284.0" x2="1334.0" y2="284.0" stroke="#1F6FB5" stroke-opacity="0.45" stroke-width="1.4"/><line x1="1244.0" y1="298.0" x2="1334.0" y2="298.0" stroke="#1F6FB5" stroke-opacity="0.45" stroke-width="1.4"/><text x="1289.0" y="396" font-family="Inter, -apple-system, system-ui, sans-serif" font-size="16" font-weight="800" fill="#0F1B2A" text-anchor="middle">Clipped TIFs</text><g transform="translate(1245.5, 410)"><rect x="0" y="0" rx="11" ry="11" width="87" height="22" fill="#E3EEF8"/><text x="43.5" y="15.0" text-anchor="middle" font-family="ui-monospace, SFMono-Regular, Menlo, Consolas, monospace" font-size="12" font-weight="700" fill="#1F6FB5">gtiff_gbx</text></g><text x="1289.0" y="458" text-anchor="middle" font-family="Inter, sans-serif" font-size="12" fill="#3F4D5E">gtiff writer materializes one TIF per</text><text x="1289.0" y="474" text-anchor="middle" font-family="Inter, sans-serif" font-size="12" fill="#3F4D5E">object to the Volume</text>
<text x="36" y="650" font-family="Inter, -apple-system, system-ui, sans-serif" font-size="10" font-weight="700" fill="#7A8794" text-anchor="start" letter-spacing="1.6">KEY FUNCTIONS</text><rect x="166" y="640" rx="12" ry="12" width="87" height="24" fill="#E3EEF8"/><text x="209.5" y="656.0" text-anchor="middle" font-family="ui-monospace, SFMono-Regular, Menlo, Consolas, monospace" font-size="12" font-weight="700" fill="#1F6FB5">gtiff_gbx</text><rect x="261" y="640" rx="12" ry="12" width="150" height="24" fill="#E3EEF8"/><text x="336.0" y="656.0" text-anchor="middle" font-family="ui-monospace, SFMono-Regular, Menlo, Consolas, monospace" font-size="12" font-weight="700" fill="#1F6FB5">st_geomfromgeojson</text><rect x="419" y="640" rx="12" ry="12" width="87" height="24" fill="#E3EEF8"/><text x="462.5" y="656.0" text-anchor="middle" font-family="ui-monospace, SFMono-Regular, Menlo, Consolas, monospace" font-size="12" font-weight="700" fill="#1F6FB5">st_asewkt</text><rect x="514" y="640" rx="12" ry="12" width="80" height="24" fill="#E3EEF8"/><text x="554.0" y="656.0" text-anchor="middle" font-family="ui-monospace, SFMono-Regular, Menlo, Consolas, monospace" font-size="12" font-weight="700" fill="#1F6FB5">rst_clip</text><rect x="602" y="640" rx="12" ry="12" width="129" height="24" fill="#E3EEF8"/><text x="666.5" y="656.0" text-anchor="middle" font-family="ui-monospace, SFMono-Regular, Menlo, Consolas, monospace" font-size="12" font-weight="700" fill="#1F6FB5">rst_boundingbox</text><text x="1444" y="650" font-family="Inter, -apple-system, system-ui, sans-serif" font-size="11" font-weight="400" fill="#7A8794" text-anchor="end">databrickslabs/geobrix · xView Detection Challenge</text>
</svg>