<svg xmlns="http://www.w3.org/2000/svg" viewBox="0 0 1480 720" width="1480" height="720" style="font-family: Inter, -apple-system, system-ui, sans-serif;">
<defs>
  <filter id="card-shadow" x="-5%" y="-5%" width="110%" height="115%">
    <feDropShadow dx="0" dy="2" stdDeviation="6"
                  flood-color="#0F1B2A" flood-opacity="0.08"/>
  </filter>
  <linearGradient id="bg" x1="0" y1="0" x2="0" y2="1">
    <stop offset="0" stop-color="#FAFBFC"/>
    <stop offset="1" stop-color="#F1F4F8"/>
  </linearGradient>
</defs>

<rect x="0" y="0" width="1480" height="720" fill="url(#bg)"/>
<rect x="36" y="40" rx="14" ry="14" width="60" height="60" fill="#1F6FB5"/><text x="66.0" y="82.0" text-anchor="middle" font-family="Inter, sans-serif" font-size="32" font-weight="900" fill="#FFFFFF">01</text><text x="114" y="68" font-family="Inter, -apple-system, system-ui, sans-serif" font-size="28" font-weight="800" fill="#0F1B2A" text-anchor="start">Discover EO imagery via STAC</text><text x="114" y="94" font-family="Inter, -apple-system, system-ui, sans-serif" font-size="14" font-weight="400" fill="#3F4D5E" text-anchor="start">Spatially-indexed catalog search — AOI polygon to per-cell STAC item set</text><rect x="1229" y="48" rx="13" ry="13" width="215" height="26" fill="#0F1B2A"/><text x="1336.5" y="66" text-anchor="middle" font-family="Inter, sans-serif" font-size="12" font-weight="700" fill="#FFFFFF">EO Series  ·  Notebook 1 of 4</text>
<rect x="36" y="160" rx="14" ry="14" width="310" height="380" fill="#FFFFFF" stroke="#E5E7EB" stroke-width="1" filter="url(#card-shadow)"/><path d="M 36 174 A 14 14 0 0 1 50 160 H 332 A 14 14 0 0 1 346 174 V 165 H 36 Z" fill="#1F6FB5"/><polygon points="131.0,258.0 159.0,232.0 195.0,238.0 229.0,248.0 253.0,272.0 235.0,296.0 243.0,318.0 215.0,330.0 179.0,324.0 145.0,310.0 133.0,286.0" fill="#E3EEF8" stroke="#1F6FB5" stroke-width="2" stroke-linejoin="round"/><circle cx="207.0" cy="288.0" r="5" fill="#1F6FB5"/><circle cx="207.0" cy="288.0" r="11" fill="none" stroke="#1F6FB5" stroke-opacity="0.45" stroke-width="1.5"/><text x="191.0" y="396" font-family="Inter, -apple-system, system-ui, sans-serif" font-size="16" font-weight="800" fill="#0F1B2A" text-anchor="middle">AOI polygon</text><g transform="translate(133.5, 410)"><rect x="0" y="0" rx="11" ry="11" width="115" height="22" fill="#E3EEF8"/><text x="57.5" y="15.0" text-anchor="middle" font-family="ui-monospace, SFMono-Regular, Menlo, Consolas, monospace" font-size="12" font-weight="700" fill="#1F6FB5">shapefile_gbx</text></g><text x="191.0" y="458" text-anchor="middle" font-family="Inter, sans-serif" font-size="12" fill="#3F4D5E">Load TIGER counties from a zipped</text><text x="191.0" y="474" text-anchor="middle" font-family="Inter, sans-serif" font-size="12" fill="#3F4D5E">shapefile, filter to Ketchikan</text>
<line x1="354" y1="320.0" x2="384" y2="320.0" stroke="#1F6FB5" stroke-width="2.5" stroke-linecap="round"/><polygon points="394,320.0 384,313.3333333333333 384,326.6666666666667" fill="#1F6FB5"/>
<rect x="402" y="160" rx="14" ry="14" width="310" height="380" fill="#FFFFFF" stroke="#E5E7EB" stroke-width="1" filter="url(#card-shadow)"/><path d="M 402 174 A 14 14 0 0 1 416 160 H 698 A 14 14 0 0 1 712 174 V 165 H 402 Z" fill="#1F6FB5"/><polygon points="484.3,220.0 505.0,232.0 505.0,256.0 484.3,268.0 463.5,256.0 463.5,232.0" fill="#E3EEF8" fill-opacity="0.85" stroke="#1F6FB5" stroke-width="1.6"/><polygon points="525.8,220.0 546.6,232.0 546.6,256.0 525.8,268.0 505.0,256.0 505.0,232.0" fill="#E3EEF8" fill-opacity="0.85" stroke="#1F6FB5" stroke-width="1.6"/><polygon points="567.4,220.0 588.2,232.0 588.2,256.0 567.4,268.0 546.6,256.0 546.6,232.0" fill="#E3EEF8" fill-opacity="0.85" stroke="#1F6FB5" stroke-width="1.6"/><polygon points="609.0,220.0 629.7,232.0 629.7,256.0 609.0,268.0 588.2,256.0 588.2,232.0" fill="#E3EEF8" fill-opacity="0.85" stroke="#1F6FB5" stroke-width="1.6"/><polygon points="505.0,256.0 525.8,268.0 525.8,292.0 505.0,304.0 484.3,292.0 484.3,268.0" fill="#E3EEF8" fill-opacity="0.85" stroke="#1F6FB5" stroke-width="1.6"/><polygon points="546.6,256.0 567.4,268.0 567.4,292.0 546.6,304.0 525.8,292.0 525.8,268.0" fill="#E3EEF8" fill-opacity="0.85" stroke="#1F6FB5" stroke-width="1.6"/><polygon points="588.2,256.0 609.0,268.0 609.0,292.0 588.2,304.0 567.4,292.0 567.4,268.0" fill="#1F6FB5" fill-opacity="1.0" stroke="#1F6FB5" stroke-width="1.6"/><polygon points="629.7,256.0 650.5,268.0 650.5,292.0 629.7,304.0 609.0,292.0 609.0,268.0" fill="#E3EEF8" fill-opacity="0.85" stroke="#1F6FB5" stroke-width="1.6"/><polygon points="484.3,292.0 505.0,304.0 505.0,328.0 484.3,340.0 463.5,328.0 463.5,304.0" fill="#E3EEF8" fill-opacity="0.85" stroke="#1F6FB5" stroke-width="1.6"/><polygon points="525.8,292.0 546.6,304.0 546.6,328.0 525.8,340.0 505.0,328.0 505.0,304.0" fill="#E3EEF8" fill-opacity="0.85" stroke="#1F6FB5" stroke-width="1.6"/><polygon points="567.4,292.0 588.2,304.0 588.2,328.0 567.4,340.0 546.6,328.0 546.6,304.0" fill="#E3EEF8" fill-opacity="0.85" stroke="#1F6FB5" stroke-width="1.6"/><polygon points="609.0,292.0 629.7,304.0 629.7,328.0 609.0,340.0 588.2,328.0 588.2,304.0" fill="#E3EEF8" fill-opacity="0.85" stroke="#1F6FB5" stroke-width="1.6"/><text x="557.0" y="396" font-family="Inter, -apple-system, system-ui, sans-serif" font-size="16" font-weight="800" fill="#0F1B2A" text-anchor="middle">H3 cells (res-2)</text><g transform="translate(482.0, 410)"><rect x="0" y="0" rx="11" ry="11" width="150" height="22" fill="#E3EEF8"/><text x="75.0" y="15.0" text-anchor="middle" font-family="ui-monospace, SFMono-Regular, Menlo, Consolas, monospace" font-size="12" font-weight="700" fill="#1F6FB5">h3_tessellateaswkb</text></g><text x="557.0" y="458" text-anchor="middle" font-family="Inter, sans-serif" font-size="12" fill="#3F4D5E">Tessellate AOI to coarse H3 cells — one</text><text x="557.0" y="474" text-anchor="middle" font-family="Inter, sans-serif" font-size="12" fill="#3F4D5E">query per cell</text>
<line x1="720" y1="320.0" x2="750" y2="320.0" stroke="#1F6FB5" stroke-width="2.5" stroke-linecap="round"/><polygon points="760,320.0 750,313.3333333333333 750,326.6666666666667" fill="#1F6FB5"/>
<rect x="768" y="160" rx="14" ry="14" width="310" height="380" fill="#FFFFFF" stroke="#E5E7EB" stroke-width="1" filter="url(#card-shadow)"/><path d="M 768 174 A 14 14 0 0 1 782 160 H 1064 A 14 14 0 0 1 1078 174 V 165 H 768 Z" fill="#1F6FB5"/><path d="M 865.0 290.0 a 22 22 0 0 1 14 -36 a 28 28 0 0 1 50 -8 a 22 22 0 0 1 38 14 a 18 18 0 0 1 -8 36 L 865.0 298.0 Z" fill="#E3EEF8" stroke="#1F6FB5" stroke-width="2" stroke-linejoin="round"/><rect x="891.0" y="310.0" width="20" height="16" rx="3" ry="3" fill="#FFFFFF" stroke="#1F6FB5" stroke-width="1.6"/><line x1="895.0" y1="316.0" x2="907.0" y2="316.0" stroke="#1F6FB5" stroke-width="1.4"/><line x1="895.0" y1="321.0" x2="903.0" y2="321.0" stroke="#1F6FB5" stroke-opacity="0.5" stroke-width="1.4"/><rect x="915.0" y="310.0" width="20" height="16" rx="3" ry="3" fill="#FFFFFF" stroke="#1F6FB5" stroke-width="1.6"/><line x1="919.0" y1="316.0" x2="931.0" y2="316.0" stroke="#1F6FB5" stroke-width="1.4"/><line x1="919.0" y1="321.0" x2="927.0" y2="321.0" stroke="#1F6FB5" stroke-opacity="0.5" stroke-width="1.4"/><rect x="939.0" y="310.0" width="20" height="16" rx="3" ry="3" fill="#FFFFFF" stroke="#1F6FB5" stroke-width="1.6"/><line x1="943.0" y1="316.0" x2="955.0" y2="316.0" stroke="#1F6FB5" stroke-width="1.4"/><line x1="943.0" y1="321.0" x2="951.0" y2="321.0" stroke="#1F6FB5" stroke-opacity="0.5" stroke-width="1.4"/><text x="923.0" y="396" font-family="Inter, -apple-system, system-ui, sans-serif" font-size="16" font-weight="800" fill="#0F1B2A" text-anchor="middle">Planetary Computer</text><g transform="translate(876.0, 410)"><rect x="0" y="0" rx="11" ry="11" width="94" height="22" fill="#E3EEF8"/><text x="47.0" y="15.0" text-anchor="middle" font-family="ui-monospace, SFMono-Regular, Menlo, Consolas, monospace" font-size="12" font-weight="700" fill="#1F6FB5">StacClient</text></g><text x="923.0" y="458" text-anchor="middle" font-family="Inter, sans-serif" font-size="12" fill="#3F4D5E">StacClient.search queries sentinel-2-l2a</text><text x="923.0" y="474" text-anchor="middle" font-family="Inter, sans-serif" font-size="12" fill="#3F4D5E">items intersecting each H3 cell</text>
<line x1="1086" y1="320.0" x2="1116" y2="320.0" stroke="#1F6FB5" stroke-width="2.5" stroke-linecap="round"/><polygon points="1126,320.0 1116,313.3333333333333 1116,326.6666666666667" fill="#1F6FB5"/>
<rect x="1134" y="160" rx="14" ry="14" width="310" height="380" fill="#FFFFFF" stroke="#E5E7EB" stroke-width="1" filter="url(#card-shadow)"/><path d="M 1134 174 A 14 14 0 0 1 1148 160 H 1430 A 14 14 0 0 1 1444 174 V 165 H 1134 Z" fill="#1F6FB5"/><rect x="1234.0" y="240.0" rx="8" ry="8" width="110" height="80" fill="#E3EEF8" stroke="#1F6FB5" stroke-width="2"/><rect x="1234.0" y="240.0" width="110" height="22" rx="8" ry="8" fill="#1F6FB5"/><rect x="1234.0" y="252.0" width="110" height="10" fill="#1F6FB5"/><text x="1289.0" y="256.0" text-anchor="middle" font-family="Inter, sans-serif" font-size="11" font-weight="700" fill="#FFFFFF">cell_assets</text><line x1="1244.0" y1="270.0" x2="1334.0" y2="270.0" stroke="#1F6FB5" stroke-opacity="0.45" stroke-width="1.4"/><line x1="1244.0" y1="284.0" x2="1334.0" y2="284.0" stroke="#1F6FB5" stroke-opacity="0.45" stroke-width="1.4"/><line x1="1244.0" y1="298.0" x2="1334.0" y2="298.0" stroke="#1F6FB5" stroke-opacity="0.45" stroke-width="1.4"/><text x="1289.0" y="396" font-family="Inter, -apple-system, system-ui, sans-serif" font-size="16" font-weight="800" fill="#0F1B2A" text-anchor="middle">Asset catalog</text><g transform="translate(1259.5, 410)"><rect x="0" y="0" rx="11" ry="11" width="59" height="22" fill="#E3EEF8"/><text x="29.5" y="15.0" text-anchor="middle" font-family="ui-monospace, SFMono-Regular, Menlo, Consolas, monospace" font-size="12" font-weight="700" fill="#1F6FB5">Delta</text></g><text x="1289.0" y="458" text-anchor="middle" font-family="Inter, sans-serif" font-size="12" fill="#3F4D5E">Persisted as cell_assets_&lt;ts&gt;.delta —</text><text x="1289.0" y="474" text-anchor="middle" font-family="Inter, sans-serif" font-size="12" fill="#3F4D5E">auditable &amp; repeatable</text>
<text x="36" y="650" font-family="Inter, -apple-system, system-ui, sans-serif" font-size="10" font-weight="700" fill="#7A8794" text-anchor="start" letter-spacing="1.6">KEY FUNCTIONS</text><rect x="166" y="640" rx="12" ry="12" width="115" height="24" fill="#E3EEF8"/><text x="223.5" y="656.0" text-anchor="middle" font-family="ui-monospace, SFMono-Regular, Menlo, Consolas, monospace" font-size="12" font-weight="700" fill="#1F6FB5">shapefile_gbx</text><rect x="289" y="640" rx="12" ry="12" width="150" height="24" fill="#E3EEF8"/><text x="364.0" y="656.0" text-anchor="middle" font-family="ui-monospace, SFMono-Regular, Menlo, Consolas, monospace" font-size="12" font-weight="700" fill="#1F6FB5">h3_tessellateaswkb</text><rect x="447" y="640" rx="12" ry="12" width="164" height="24" fill="#E3EEF8"/><text x="529.0" y="656.0" text-anchor="middle" font-family="ui-monospace, SFMono-Regular, Menlo, Consolas, monospace" font-size="12" font-weight="700" fill="#1F6FB5">h3_boundaryasgeojson</text><rect x="619" y="640" rx="12" ry="12" width="94" height="24" fill="#E3EEF8"/><text x="666.0" y="656.0" text-anchor="middle" font-family="ui-monospace, SFMono-Regular, Menlo, Consolas, monospace" font-size="12" font-weight="700" fill="#1F6FB5">StacClient</text><rect x="721" y="640" rx="12" ry="12" width="143" height="24" fill="#E3EEF8"/><text x="792.5" y="656.0" text-anchor="middle" font-family="ui-monospace, SFMono-Regular, Menlo, Consolas, monospace" font-size="12" font-weight="700" fill="#1F6FB5">Delta time-travel</text><text x="1444" y="650" font-family="Inter, -apple-system, system-ui, sans-serif" font-size="11" font-weight="400" fill="#7A8794" text-anchor="end">databrickslabs/geobrix  ·  Sentinel-2 L2A  ·  Planetary Computer</text>
</svg>