<svg xmlns="http://www.w3.org/2000/svg" viewBox="0 0 1480 720" width="1480" height="720" style="font-family: Inter, -apple-system, system-ui, sans-serif;">
<defs>
  <filter id="card-shadow" x="-5%" y="-5%" width="110%" height="115%">
    <feDropShadow dx="0" dy="2" stdDeviation="6"
                  flood-color="#0F1B2A" flood-opacity="0.08"/>
  </filter>
  <linearGradient id="bg" x1="0" y1="0" x2="0" y2="1">
    <stop offset="0" stop-color="#FAFBFC"/>
    <stop offset="1" stop-color="#F1F4F8"/>
  </linearGradient>
</defs>

<rect x="0" y="0" width="1480" height="720" fill="url(#bg)"/>
<rect x="36" y="40" rx="14" ry="14" width="60" height="60" fill="#0F8E8B"/><text x="66.0" y="82.0" text-anchor="middle" font-family="Inter, sans-serif" font-size="32" font-weight="900" fill="#FFFFFF">03</text><text x="114" y="68" font-family="Inter, -apple-system, system-ui, sans-serif" font-size="28" font-weight="800" fill="#0F1B2A" text-anchor="start">Tessellate rasters to H3 cells</text><text x="114" y="94" font-family="Inter, -apple-system, system-ui, sans-serif" font-size="14" font-weight="400" fill="#3F4D5E" text-anchor="start">Shred Sentinel-2 scenes into spatially-indexed cell tables — joins across bands and dates</text><rect x="1229" y="48" rx="13" ry="13" width="215" height="26" fill="#0F1B2A"/><text x="1336.5" y="66" text-anchor="middle" font-family="Inter, sans-serif" font-size="12" font-weight="700" fill="#FFFFFF">EO Series  ·  Notebook 3 of 4</text>
<rect x="36" y="160" rx="14" ry="14" width="310" height="380" fill="#FFFFFF" stroke="#E5E7EB" stroke-width="1" filter="url(#card-shadow)"/><path d="M 36 174 A 14 14 0 0 1 50 160 H 332 A 14 14 0 0 1 346 174 V 165 H 36 Z" fill="#0F8E8B"/><rect x="135.0" y="224.0" width="112" height="112" fill="#D5ECEC" stroke="#0F8E8B" stroke-width="2"/><rect x="135.0" y="224.0" width="14" height="14" fill="#0F8E8B" fill-opacity="0.53"/><rect x="149.0" y="224.0" width="14" height="14" fill="#0F8E8B" fill-opacity="0.47"/><rect x="163.0" y="224.0" width="14" height="14" fill="#0F8E8B" fill-opacity="0.50"/><rect x="177.0" y="224.0" width="14" height="14" fill="#0F8E8B" fill-opacity="0.61"/><rect x="191.0" y="224.0" width="14" height="14" fill="#0F8E8B" fill-opacity="0.75"/><rect x="205.0" y="224.0" width="14" height="14" fill="#0F8E8B" fill-opacity="0.84"/><rect x="219.0" y="224.0" width="14" height="14" fill="#0F8E8B" fill-opacity="0.82"/><rect x="233.0" y="224.0" width="14" height="14" fill="#0F8E8B" fill-opacity="0.74"/><rect x="135.0" y="238.0" width="14" height="14" fill="#0F8E8B" fill-opacity="0.40"/><rect x="149.0" y="238.0" width="14" height="14" fill="#0F8E8B" fill-opacity="0.51"/><rect x="163.0" y="238.0" width="14" height="14" fill="#0F8E8B" fill-opacity="0.65"/><rect x="177.0" y="238.0" width="14" height="14" fill="#0F8E8B" fill-opacity="0.74"/><rect x="191.0" y="238.0" width="14" height="14" fill="#0F8E8B" fill-opacity="0.74"/><rect x="205.0" y="238.0" width="14" height="14" fill="#0F8E8B" fill-opacity="0.66"/><rect x="219.0" y="238.0" width="14" height="14" fill="#0F8E8B" fill-opacity="0.60"/><rect x="233.0" y="238.0" width="14" height="14" fill="#0F8E8B" fill-opacity="0.61"/><rect x="135.0" y="252.0" width="14" height="14" fill="#0F8E8B" fill-opacity="0.55"/><rect x="149.0" y="252.0" width="14" height="14" fill="#0F8E8B" fill-opacity="0.65"/><rect x="163.0" y="252.0" width="14" height="14" fill="#0F8E8B" fill-opacity="0.66"/><rect x="177.0" y="252.0" width="14" height="14" fill="#0F8E8B" fill-opacity="0.59"/><rect x="191.0" y="252.0" width="14" height="14" fill="#0F8E8B" fill-opacity="0.51"/><rect x="205.0" y="252.0" width="14" height="14" fill="#0F8E8B" fill-opacity="0.52"/><rect x="219.0" y="252.0" width="14" height="14" fill="#0F8E8B" fill-opacity="0.62"/><rect x="233.0" y="252.0" width="14" height="14" fill="#0F8E8B" fill-opacity="0.76"/><rect x="135.0" y="266.0" width="14" height="14" fill="#0F8E8B" fill-opacity="0.57"/><rect x="149.0" y="266.0" width="14" height="14" fill="#0F8E8B" fill-opacity="0.51"/><rect x="163.0" y="266.0" width="14" height="14" fill="#0F8E8B" fill-opacity="0.43"/><rect x="177.0" y="266.0" width="14" height="14" fill="#0F8E8B" fill-opacity="0.43"/><rect x="191.0" y="266.0" width="14" height="14" fill="#0F8E8B" fill-opacity="0.52"/><rect x="205.0" y="266.0" width="14" height="14" fill="#0F8E8B" fill-opacity="0.66"/><rect x="219.0" y="266.0" width="14" height="14" fill="#0F8E8B" fill-opacity="0.77"/><rect x="233.0" y="266.0" width="14" height="14" fill="#0F8E8B" fill-opacity="0.78"/><rect x="135.0" y="280.0" width="14" height="14" fill="#0F8E8B" fill-opacity="0.35"/><rect x="149.0" y="280.0" width="14" height="14" fill="#0F8E8B" fill-opacity="0.34"/><rect x="163.0" y="280.0" width="14" height="14" fill="#0F8E8B" fill-opacity="0.42"/><rect x="177.0" y="280.0" width="14" height="14" fill="#0F8E8B" fill-opacity="0.56"/><rect x="191.0" y="280.0" width="14" height="14" fill="#0F8E8B" fill-opacity="0.67"/><rect x="205.0" y="280.0" width="14" height="14" fill="#0F8E8B" fill-opacity="0.70"/><rect x="219.0" y="280.0" width="14" height="14" fill="#0F8E8B" fill-opacity="0.64"/><rect x="233.0" y="280.0" width="14" height="14" fill="#0F8E8B" fill-opacity="0.56"/><rect x="135.0" y="294.0" width="14" height="14" fill="#0F8E8B" fill-opacity="0.32"/><rect x="149.0" y="294.0" width="14" height="14" fill="#0F8E8B" fill-opacity="0.45"/><rect x="163.0" y="294.0" width="14" height="14" fill="#0F8E8B" fill-opacity="0.58"/><rect x="177.0" y="294.0" width="14" height="14" fill="#0F8E8B" fill-opacity="0.62"/><rect x="191.0" y="294.0" width="14" height="14" fill="#0F8E8B" fill-opacity="0.56"/><rect x="205.0" y="294.0" width="14" height="14" fill="#0F8E8B" fill-opacity="0.48"/><rect x="219.0" y="294.0" width="14" height="14" fill="#0F8E8B" fill-opacity="0.46"/><rect x="233.0" y="294.0" width="14" height="14" fill="#0F8E8B" fill-opacity="0.53"/><rect x="135.0" y="308.0" width="14" height="14" fill="#0F8E8B" fill-opacity="0.48"/><rect x="149.0" y="308.0" width="14" height="14" fill="#0F8E8B" fill-opacity="0.53"/><rect x="163.0" y="308.0" width="14" height="14" fill="#0F8E8B" fill-opacity="0.48"/><rect x="177.0" y="308.0" width="14" height="14" fill="#0F8E8B" fill-opacity="0.40"/><rect x="191.0" y="308.0" width="14" height="14" fill="#0F8E8B" fill-opacity="0.37"/><rect x="205.0" y="308.0" width="14" height="14" fill="#0F8E8B" fill-opacity="0.43"/><rect x="219.0" y="308.0" width="14" height="14" fill="#0F8E8B" fill-opacity="0.56"/><rect x="233.0" y="308.0" width="14" height="14" fill="#0F8E8B" fill-opacity="0.69"/><rect x="135.0" y="322.0" width="14" height="14" fill="#0F8E8B" fill-opacity="0.41"/><rect x="149.0" y="322.0" width="14" height="14" fill="#0F8E8B" fill-opacity="0.32"/><rect x="163.0" y="322.0" width="14" height="14" fill="#0F8E8B" fill-opacity="0.28"/><rect x="177.0" y="322.0" width="14" height="14" fill="#0F8E8B" fill-opacity="0.33"/><rect x="191.0" y="322.0" width="14" height="14" fill="#0F8E8B" fill-opacity="0.46"/><rect x="205.0" y="322.0" width="14" height="14" fill="#0F8E8B" fill-opacity="0.59"/><rect x="219.0" y="322.0" width="14" height="14" fill="#0F8E8B" fill-opacity="0.65"/><rect x="233.0" y="322.0" width="14" height="14" fill="#0F8E8B" fill-opacity="0.61"/><line x1="149.0" y1="224.0" x2="149.0" y2="336.0" stroke="#FFFFFF" stroke-width="0.8" stroke-opacity="0.45"/><line x1="135.0" y1="238.0" x2="247.0" y2="238.0" stroke="#FFFFFF" stroke-width="0.8" stroke-opacity="0.45"/><line x1="163.0" y1="224.0" x2="163.0" y2="336.0" stroke="#FFFFFF" stroke-width="0.8" stroke-opacity="0.45"/><line x1="135.0" y1="252.0" x2="247.0" y2="252.0" stroke="#FFFFFF" stroke-width="0.8" stroke-opacity="0.45"/><line x1="177.0" y1="224.0" x2="177.0" y2="336.0" stroke="#FFFFFF" stroke-width="0.8" stroke-opacity="0.45"/><line x1="135.0" y1="266.0" x2="247.0" y2="266.0" stroke="#FFFFFF" stroke-width="0.8" stroke-opacity="0.45"/><line x1="191.0" y1="224.0" x2="191.0" y2="336.0" stroke="#FFFFFF" stroke-width="0.8" stroke-opacity="0.45"/><line x1="135.0" y1="280.0" x2="247.0" y2="280.0" stroke="#FFFFFF" stroke-width="0.8" stroke-opacity="0.45"/><line x1="205.0" y1="224.0" x2="205.0" y2="336.0" stroke="#FFFFFF" stroke-width="0.8" stroke-opacity="0.45"/><line x1="135.0" y1="294.0" x2="247.0" y2="294.0" stroke="#FFFFFF" stroke-width="0.8" stroke-opacity="0.45"/><line x1="219.0" y1="224.0" x2="219.0" y2="336.0" stroke="#FFFFFF" stroke-width="0.8" stroke-opacity="0.45"/><line x1="135.0" y1="308.0" x2="247.0" y2="308.0" stroke="#FFFFFF" stroke-width="0.8" stroke-opacity="0.45"/><line x1="233.0" y1="224.0" x2="233.0" y2="336.0" stroke="#FFFFFF" stroke-width="0.8" stroke-opacity="0.45"/><line x1="135.0" y1="322.0" x2="247.0" y2="322.0" stroke="#FFFFFF" stroke-width="0.8" stroke-opacity="0.45"/><text x="191.0" y="396" font-family="Inter, -apple-system, system-ui, sans-serif" font-size="16" font-weight="800" fill="#0F1B2A" text-anchor="middle">Sentinel-2 scene</text><g transform="translate(147.5, 410)"><rect x="0" y="0" rx="11" ry="11" width="87" height="22" fill="#D5ECEC"/><text x="43.5" y="15.0" text-anchor="middle" font-family="ui-monospace, SFMono-Regular, Menlo, Consolas, monospace" font-size="12" font-weight="700" fill="#0F8E8B">gtiff_gbx</text></g><text x="191.0" y="458" text-anchor="middle" font-family="Inter, sans-serif" font-size="12" fill="#3F4D5E">Per-band GeoTIFFs from the Volume, loaded</text><text x="191.0" y="474" text-anchor="middle" font-family="Inter, sans-serif" font-size="12" fill="#3F4D5E">with the gtiff_gbx reader</text>
<line x1="354" y1="320.0" x2="384" y2="320.0" stroke="#0F8E8B" stroke-width="2.5" stroke-linecap="round"/><polygon points="394,320.0 384,313.3333333333333 384,326.6666666666667" fill="#0F8E8B"/>
<rect x="402" y="160" rx="14" ry="14" width="310" height="380" fill="#FFFFFF" stroke="#E5E7EB" stroke-width="1" filter="url(#card-shadow)"/><path d="M 402 174 A 14 14 0 0 1 416 160 H 698 A 14 14 0 0 1 712 174 V 165 H 402 Z" fill="#0F8E8B"/><rect x="492.0" y="230.0" rx="10" ry="10" width="130" height="100" fill="#FFFFFF" stroke="#0F8E8B" stroke-width="2"/><rect x="492.0" y="230.0" width="130" height="26" rx="10" ry="10" fill="#0F8E8B"/><rect x="492.0" y="246.0" width="130" height="10" fill="#0F8E8B"/><text x="557.0" y="248.0" text-anchor="middle" font-family="Inter, sans-serif" font-size="12" font-weight="800" fill="#FFFFFF">tile struct</text><text x="506.0" y="270.0" font-family="ui-monospace, Menlo, monospace" font-size="11" font-weight="600" fill="#0F8E8B">cellid</text><text x="506.0" y="288.0" font-family="ui-monospace, Menlo, monospace" font-size="11" font-weight="600" fill="#0F8E8B">raster</text><text x="506.0" y="306.0" font-family="ui-monospace, Menlo, monospace" font-size="11" font-weight="600" fill="#0F8E8B">metadata</text><text x="557.0" y="396" font-family="Inter, -apple-system, system-ui, sans-serif" font-size="16" font-weight="800" fill="#0F1B2A" text-anchor="middle">Typed tile struct</text><g transform="translate(506.5, 410)"><rect x="0" y="0" rx="11" ry="11" width="101" height="22" fill="#D5ECEC"/><text x="50.5" y="15.0" text-anchor="middle" font-family="ui-monospace, SFMono-Regular, Menlo, Consolas, monospace" font-size="12" font-weight="700" fill="#0F8E8B">rst_summary</text></g><text x="557.0" y="458" text-anchor="middle" font-family="Inter, sans-serif" font-size="12" fill="#3F4D5E">bytes + bbox + SRID + standardized nodata</text><text x="557.0" y="474" text-anchor="middle" font-family="Inter, sans-serif" font-size="12" fill="#3F4D5E">in a single materialization</text>
<line x1="720" y1="320.0" x2="750" y2="320.0" stroke="#0F8E8B" stroke-width="2.5" stroke-linecap="round"/><polygon points="760,320.0 750,313.3333333333333 750,326.6666666666667" fill="#0F8E8B"/>
<rect x="768" y="160" rx="14" ry="14" width="310" height="380" fill="#FFFFFF" stroke="#E5E7EB" stroke-width="1" filter="url(#card-shadow)"/><path d="M 768 174 A 14 14 0 0 1 782 160 H 1064 A 14 14 0 0 1 1078 174 V 165 H 768 Z" fill="#0F8E8B"/><polygon points="832.1,203.0 844.2,210.0 844.2,224.0 832.1,231.0 819.9,224.0 819.9,210.0" fill="#D5ECEC" fill-opacity="0.85" stroke="#0F8E8B" stroke-width="1.6"/><polygon points="856.3,203.0 868.4,210.0 868.4,224.0 856.3,231.0 844.2,224.0 844.2,210.0" fill="#D5ECEC" fill-opacity="0.85" stroke="#0F8E8B" stroke-width="1.6"/><polygon points="880.6,203.0 892.7,210.0 892.7,224.0 880.6,231.0 868.4,224.0 868.4,210.0" fill="#D5ECEC" fill-opacity="0.85" stroke="#0F8E8B" stroke-width="1.6"/><polygon points="904.8,203.0 916.9,210.0 916.9,224.0 904.8,231.0 892.7,224.0 892.7,210.0" fill="#D5ECEC" fill-opacity="0.85" stroke="#0F8E8B" stroke-width="1.6"/><polygon points="929.1,203.0 941.2,210.0 941.2,224.0 929.1,231.0 916.9,224.0 916.9,210.0" fill="#D5ECEC" fill-opacity="0.85" stroke="#0F8E8B" stroke-width="1.6"/><polygon points="953.3,203.0 965.4,210.0 965.4,224.0 953.3,231.0 941.2,224.0 941.2,210.0" fill="#D5ECEC" fill-opacity="0.85" stroke="#0F8E8B" stroke-width="1.6"/><polygon points="977.6,203.0 989.7,210.0 989.7,224.0 977.6,231.0 965.4,224.0 965.4,210.0" fill="#D5ECEC" fill-opacity="0.85" stroke="#0F8E8B" stroke-width="1.6"/><polygon points="1001.8,203.0 1013.9,210.0 1013.9,224.0 1001.8,231.0 989.7,224.0 989.7,210.0" fill="#D5ECEC" fill-opacity="0.85" stroke="#0F8E8B" stroke-width="1.6"/><polygon points="844.2,224.0 856.3,231.0 856.3,245.0 844.2,252.0 832.1,245.0 832.1,231.0" fill="#D5ECEC" fill-opacity="0.85" stroke="#0F8E8B" stroke-width="1.6"/><polygon points="868.4,224.0 880.6,231.0 880.6,245.0 868.4,252.0 856.3,245.0 856.3,231.0" fill="#D5ECEC" fill-opacity="0.85" stroke="#0F8E8B" stroke-width="1.6"/><polygon points="892.7,224.0 904.8,231.0 904.8,245.0 892.7,252.0 880.6,245.0 880.6,231.0" fill="#D5ECEC" fill-opacity="0.85" stroke="#0F8E8B" stroke-width="1.6"/><polygon points="916.9,224.0 929.1,231.0 929.1,245.0 916.9,252.0 904.8,245.0 904.8,231.0" fill="#D5ECEC" fill-opacity="0.85" stroke="#0F8E8B" stroke-width="1.6"/><polygon points="941.2,224.0 953.3,231.0 953.3,245.0 941.2,252.0 929.1,245.0 929.1,231.0" fill="#D5ECEC" fill-opacity="0.85" stroke="#0F8E8B" stroke-width="1.6"/><polygon points="965.4,224.0 977.6,231.0 977.6,245.0 965.4,252.0 953.3,245.0 953.3,231.0" fill="#D5ECEC" fill-opacity="0.85" stroke="#0F8E8B" stroke-width="1.6"/><polygon points="989.7,224.0 1001.8,231.0 1001.8,245.0 989.7,252.0 977.6,245.0 977.6,231.0" fill="#D5ECEC" fill-opacity="0.85" stroke="#0F8E8B" stroke-width="1.6"/><polygon points="1013.9,224.0 1026.1,231.0 1026.1,245.0 1013.9,252.0 1001.8,245.0 1001.8,231.0" fill="#D5ECEC" fill-opacity="0.85" stroke="#0F8E8B" stroke-width="1.6"/><polygon points="832.1,245.0 844.2,252.0 844.2,266.0 832.1,273.0 819.9,266.0 819.9,252.0" fill="#D5ECEC" fill-opacity="0.85" stroke="#0F8E8B" stroke-width="1.6"/><polygon points="856.3,245.0 868.4,252.0 868.4,266.0 856.3,273.0 844.2,266.0 844.2,252.0" fill="#D5ECEC" fill-opacity="0.85" stroke="#0F8E8B" stroke-width="1.6"/><polygon points="880.6,245.0 892.7,252.0 892.7,266.0 880.6,273.0 868.4,266.0 868.4,252.0" fill="#D5ECEC" fill-opacity="0.85" stroke="#0F8E8B" stroke-width="1.6"/><polygon points="904.8,245.0 916.9,252.0 916.9,266.0 904.8,273.0 892.7,266.0 892.7,252.0" fill="#D5ECEC" fill-opacity="0.85" stroke="#0F8E8B" stroke-width="1.6"/><polygon points="929.1,245.0 941.2,252.0 941.2,266.0 929.1,273.0 916.9,266.0 916.9,252.0" fill="#D5ECEC" fill-opacity="0.85" stroke="#0F8E8B" stroke-width="1.6"/><polygon points="953.3,245.0 965.4,252.0 965.4,266.0 953.3,273.0 941.2,266.0 941.2,252.0" fill="#D5ECEC" fill-opacity="0.85" stroke="#0F8E8B" stroke-width="1.6"/><polygon points="977.6,245.0 989.7,252.0 989.7,266.0 977.6,273.0 965.4,266.0 965.4,252.0" fill="#D5ECEC" fill-opacity="0.85" stroke="#0F8E8B" stroke-width="1.6"/><polygon points="1001.8,245.0 1013.9,252.0 1013.9,266.0 1001.8,273.0 989.7,266.0 989.7,252.0" fill="#D5ECEC" fill-opacity="0.85" stroke="#0F8E8B" stroke-width="1.6"/><polygon points="844.2,266.0 856.3,273.0 856.3,287.0 844.2,294.0 832.1,287.0 832.1,273.0" fill="#D5ECEC" fill-opacity="0.85" stroke="#0F8E8B" stroke-width="1.6"/><polygon points="868.4,266.0 880.6,273.0 880.6,287.0 868.4,294.0 856.3,287.0 856.3,273.0" fill="#D5ECEC" fill-opacity="0.85" stroke="#0F8E8B" stroke-width="1.6"/><polygon points="892.7,266.0 904.8,273.0 904.8,287.0 892.7,294.0 880.6,287.0 880.6,273.0" fill="#D5ECEC" fill-opacity="0.85" stroke="#0F8E8B" stroke-width="1.6"/><polygon points="916.9,266.0 929.1,273.0 929.1,287.0 916.9,294.0 904.8,287.0 904.8,273.0" fill="#D5ECEC" fill-opacity="0.85" stroke="#0F8E8B" stroke-width="1.6"/><polygon points="941.2,266.0 953.3,273.0 953.3,287.0 941.2,294.0 929.1,287.0 929.1,273.0" fill="#0F8E8B" fill-opacity="1.0" stroke="#0F8E8B" stroke-width="1.6"/><polygon points="965.4,266.0 977.6,273.0 977.6,287.0 965.4,294.0 953.3,287.0 953.3,273.0" fill="#D5ECEC" fill-opacity="0.85" stroke="#0F8E8B" stroke-width="1.6"/><polygon points="989.7,266.0 1001.8,273.0 1001.8,287.0 989.7,294.0 977.6,287.0 977.6,273.0" fill="#D5ECEC" fill-opacity="0.85" stroke="#0F8E8B" stroke-width="1.6"/><polygon points="1013.9,266.0 1026.1,273.0 1026.1,287.0 1013.9,294.0 1001.8,287.0 1001.8,273.0" fill="#D5ECEC" fill-opacity="0.85" stroke="#0F8E8B" stroke-width="1.6"/><polygon points="832.1,287.0 844.2,294.0 844.2,308.0 832.1,315.0 819.9,308.0 819.9,294.0" fill="#D5ECEC" fill-opacity="0.85" stroke="#0F8E8B" stroke-width="1.6"/><polygon points="856.3,287.0 868.4,294.0 868.4,308.0 856.3,315.0 844.2,308.0 844.2,294.0" fill="#D5ECEC" fill-opacity="0.85" stroke="#0F8E8B" stroke-width="1.6"/><polygon points="880.6,287.0 892.7,294.0 892.7,308.0 880.6,315.0 868.4,308.0 868.4,294.0" fill="#D5ECEC" fill-opacity="0.85" stroke="#0F8E8B" stroke-width="1.6"/><polygon points="904.8,287.0 916.9,294.0 916.9,308.0 904.8,315.0 892.7,308.0 892.7,294.0" fill="#D5ECEC" fill-opacity="0.85" stroke="#0F8E8B" stroke-width="1.6"/><polygon points="929.1,287.0 941.2,294.0 941.2,308.0 929.1,315.0 916.9,308.0 916.9,294.0" fill="#D5ECEC" fill-opacity="0.85" stroke="#0F8E8B" stroke-width="1.6"/><polygon points="953.3,287.0 965.4,294.0 965.4,308.0 953.3,315.0 941.2,308.0 941.2,294.0" fill="#D5ECEC" fill-opacity="0.85" stroke="#0F8E8B" stroke-width="1.6"/><polygon points="977.6,287.0 989.7,294.0 989.7,308.0 977.6,315.0 965.4,308.0 965.4,294.0" fill="#D5ECEC" fill-opacity="0.85" stroke="#0F8E8B" stroke-width="1.6"/><polygon points="1001.8,287.0 1013.9,294.0 1013.9,308.0 1001.8,315.0 989.7,308.0 989.7,294.0" fill="#D5ECEC" fill-opacity="0.85" stroke="#0F8E8B" stroke-width="1.6"/><polygon points="844.2,308.0 856.3,315.0 856.3,329.0 844.2,336.0 832.1,329.0 832.1,315.0" fill="#D5ECEC" fill-opacity="0.85" stroke="#0F8E8B" stroke-width="1.6"/><polygon points="868.4,308.0 880.6,315.0 880.6,329.0 868.4,336.0 856.3,329.0 856.3,315.0" fill="#D5ECEC" fill-opacity="0.85" stroke="#0F8E8B" stroke-width="1.6"/><polygon points="892.7,308.0 904.8,315.0 904.8,329.0 892.7,336.0 880.6,329.0 880.6,315.0" fill="#D5ECEC" fill-opacity="0.85" stroke="#0F8E8B" stroke-width="1.6"/><polygon points="916.9,308.0 929.1,315.0 929.1,329.0 916.9,336.0 904.8,329.0 904.8,315.0" fill="#D5ECEC" fill-opacity="0.85" stroke="#0F8E8B" stroke-width="1.6"/><polygon points="941.2,308.0 953.3,315.0 953.3,329.0 941.2,336.0 929.1,329.0 929.1,315.0" fill="#D5ECEC" fill-opacity="0.85" stroke="#0F8E8B" stroke-width="1.6"/><polygon points="965.4,308.0 977.6,315.0 977.6,329.0 965.4,336.0 953.3,329.0 953.3,315.0" fill="#D5ECEC" fill-opacity="0.85" stroke="#0F8E8B" stroke-width="1.6"/><polygon points="989.7,308.0 1001.8,315.0 1001.8,329.0 989.7,336.0 977.6,329.0 977.6,315.0" fill="#D5ECEC" fill-opacity="0.85" stroke="#0F8E8B" stroke-width="1.6"/><polygon points="1013.9,308.0 1026.1,315.0 1026.1,329.0 1013.9,336.0 1001.8,329.0 1001.8,315.0" fill="#D5ECEC" fill-opacity="0.85" stroke="#0F8E8B" stroke-width="1.6"/><polygon points="832.1,329.0 844.2,336.0 844.2,350.0 832.1,357.0 819.9,350.0 819.9,336.0" fill="#D5ECEC" fill-opacity="0.85" stroke="#0F8E8B" stroke-width="1.6"/><polygon points="856.3,329.0 868.4,336.0 868.4,350.0 856.3,357.0 844.2,350.0 844.2,336.0" fill="#D5ECEC" fill-opacity="0.85" stroke="#0F8E8B" stroke-width="1.6"/><polygon points="880.6,329.0 892.7,336.0 892.7,350.0 880.6,357.0 868.4,350.0 868.4,336.0" fill="#D5ECEC" fill-opacity="0.85" stroke="#0F8E8B" stroke-width="1.6"/><polygon points="904.8,329.0 916.9,336.0 916.9,350.0 904.8,357.0 892.7,350.0 892.7,336.0" fill="#D5ECEC" fill-opacity="0.85" stroke="#0F8E8B" stroke-width="1.6"/><polygon points="929.1,329.0 941.2,336.0 941.2,350.0 929.1,357.0 916.9,350.0 916.9,336.0" fill="#D5ECEC" fill-opacity="0.85" stroke="#0F8E8B" stroke-width="1.6"/><polygon points="953.3,329.0 965.4,336.0 965.4,350.0 953.3,357.0 941.2,350.0 941.2,336.0" fill="#D5ECEC" fill-opacity="0.85" stroke="#0F8E8B" stroke-width="1.6"/><polygon points="977.6,329.0 989.7,336.0 989.7,350.0 977.6,357.0 965.4,350.0 965.4,336.0" fill="#D5ECEC" fill-opacity="0.85" stroke="#0F8E8B" stroke-width="1.6"/><polygon points="1001.8,329.0 1013.9,336.0 1013.9,350.0 1001.8,357.0 989.7,350.0 989.7,336.0" fill="#D5ECEC" fill-opacity="0.85" stroke="#0F8E8B" stroke-width="1.6"/><text x="923.0" y="396" font-family="Inter, -apple-system, system-ui, sans-serif" font-size="16" font-weight="800" fill="#0F1B2A" text-anchor="middle">H3 res-7 tessellation</text><g transform="translate(851.5, 410)"><rect x="0" y="0" rx="11" ry="11" width="143" height="22" fill="#D5ECEC"/><text x="71.5" y="15.0" text-anchor="middle" font-family="ui-monospace, SFMono-Regular, Menlo, Consolas, monospace" font-size="12" font-weight="700" fill="#0F8E8B">rst_h3_tessellate</text></g><text x="923.0" y="458" text-anchor="middle" font-family="Inter, sans-serif" font-size="12" fill="#3F4D5E">Each scene explodes into many cell-sized</text><text x="923.0" y="474" text-anchor="middle" font-family="Inter, sans-serif" font-size="12" fill="#3F4D5E">tiles via rst_h3_tessellate</text>
<line x1="1086" y1="320.0" x2="1116" y2="320.0" stroke="#0F8E8B" stroke-width="2.5" stroke-linecap="round"/><polygon points="1126,320.0 1116,313.3333333333333 1116,326.6666666666667" fill="#0F8E8B"/>
<rect x="1134" y="160" rx="14" ry="14" width="310" height="380" fill="#FFFFFF" stroke="#E5E7EB" stroke-width="1" filter="url(#card-shadow)"/><path d="M 1134 174 A 14 14 0 0 1 1148 160 H 1430 A 14 14 0 0 1 1444 174 V 165 H 1134 Z" fill="#0F8E8B"/><polygon points="1289.0,222.0 1339.2,251.0 1339.2,309.0 1289.0,338.0 1238.8,309.0 1238.8,251.0" fill="#D5ECEC" stroke="#0F8E8B" stroke-width="2.4"/><line x1="1250.0" y1="303.0" x2="1328.0" y2="303.0" stroke="#0F8E8B" stroke-width="1.4" stroke-opacity="0.45"/><line x1="1250.0" y1="265.0" x2="1250.0" y2="303.0" stroke="#0F8E8B" stroke-width="1.4" stroke-opacity="0.45"/><polyline points="1250.0,291.6 1262.5,282.1 1275.7,285.9 1289.0,274.5 1301.5,280.2 1314.7,272.6 1328.0,278.3" fill="none" stroke="#0F8E8B" stroke-width="2.2" stroke-linecap="round" stroke-linejoin="round"/><circle cx="1250.0" cy="291.6" r="2.4" fill="#0F8E8B"/><circle cx="1262.5" cy="282.1" r="2.4" fill="#0F8E8B"/><circle cx="1275.7" cy="285.9" r="2.4" fill="#0F8E8B"/><circle cx="1289.0" cy="274.5" r="2.4" fill="#0F8E8B"/><circle cx="1301.5" cy="280.2" r="2.4" fill="#0F8E8B"/><circle cx="1314.7" cy="272.6" r="2.4" fill="#0F8E8B"/><circle cx="1328.0" cy="278.3" r="2.4" fill="#0F8E8B"/><text x="1289.0" y="396" font-family="Inter, -apple-system, system-ui, sans-serif" font-size="16" font-weight="800" fill="#0F1B2A" text-anchor="middle">Per-cell timeseries</text><g transform="translate(1245.5, 410)"><rect x="0" y="0" rx="11" ry="11" width="87" height="22" fill="#D5ECEC"/><text x="43.5" y="15.0" text-anchor="middle" font-family="ui-monospace, SFMono-Regular, Menlo, Consolas, monospace" font-size="12" font-weight="700" fill="#0F8E8B">rst_apply</text></g><text x="1289.0" y="458" text-anchor="middle" font-family="Inter, sans-serif" font-size="12" fill="#3F4D5E">band_b0X_h3 tables enable k-rings, joins,</text><text x="1289.0" y="474" text-anchor="middle" font-family="Inter, sans-serif" font-size="12" fill="#3F4D5E">and raster→series projections</text>
<text x="36" y="650" font-family="Inter, -apple-system, system-ui, sans-serif" font-size="10" font-weight="700" fill="#7A8794" text-anchor="start" letter-spacing="1.6">KEY FUNCTIONS</text><rect x="166" y="640" rx="12" ry="12" width="87" height="24" fill="#D5ECEC"/><text x="209.5" y="656.0" text-anchor="middle" font-family="ui-monospace, SFMono-Regular, Menlo, Consolas, monospace" font-size="12" font-weight="700" fill="#0F8E8B">gtiff_gbx</text><rect x="261" y="640" rx="12" ry="12" width="143" height="24" fill="#D5ECEC"/><text x="332.5" y="656.0" text-anchor="middle" font-family="ui-monospace, SFMono-Regular, Menlo, Consolas, monospace" font-size="12" font-weight="700" fill="#0F8E8B">rst_h3_tessellate</text><rect x="412" y="640" rx="12" ry="12" width="101" height="24" fill="#D5ECEC"/><text x="462.5" y="656.0" text-anchor="middle" font-family="ui-monospace, SFMono-Regular, Menlo, Consolas, monospace" font-size="12" font-weight="700" fill="#0F8E8B">rst_summary</text><rect x="521" y="640" rx="12" ry="12" width="87" height="24" fill="#D5ECEC"/><text x="564.5" y="656.0" text-anchor="middle" font-family="ui-monospace, SFMono-Regular, Menlo, Consolas, monospace" font-size="12" font-weight="700" fill="#0F8E8B">rst_apply</text><rect x="616" y="640" rx="12" ry="12" width="80" height="24" fill="#D5ECEC"/><text x="656.0" y="656.0" text-anchor="middle" font-family="ui-monospace, SFMono-Regular, Menlo, Consolas, monospace" font-size="12" font-weight="700" fill="#0F8E8B">h3_kring</text><rect x="704" y="640" rx="12" ry="12" width="115" height="24" fill="#D5ECEC"/><text x="761.5" y="656.0" text-anchor="middle" font-family="ui-monospace, SFMono-Regular, Menlo, Consolas, monospace" font-size="12" font-weight="700" fill="#0F8E8B">rst_merge_agg</text><text x="1444" y="650" font-family="Inter, -apple-system, system-ui, sans-serif" font-size="11" font-weight="400" fill="#7A8794" text-anchor="end">databrickslabs/geobrix  ·  Sentinel-2 L2A  ·  Planetary Computer</text>
</svg>